<svg class="railroad-diagram" height="221" viewBox="0 0 1296.5 221" width="1296.5" xmlns="http://www.w3.org/2000/svg" xmlns:xlink="http://www.w3.org/1999/xlink">
<g>
<style>/* <![CDATA[ */
	svg.railroad-diagram {
		background-color: white;
	}
	svg.railroad-diagram path {
		stroke-width:2;
		stroke:black;
		fill: rgba(255, 255, 255, 1.0);
	}
	svg.railroad-diagram text {
		font:bold 14px monospace;
		text-anchor:middle;
	}
	svg.railroad-diagram text.arrow {
		font:bold 24px monospace;
		text-anchor:middle;
	}
	svg.railroad-diagram text.label{
		text-anchor:start;
	}
	svg.railroad-diagram text.comment{
		font:italic 12px monospace;
	}
	svg.railroad-diagram rect{
		stroke-width:2;
		stroke:black;
		fill:white;
	}

/* ]]> */
</style><g>
<path d="M20 21v20m10 -20v20m-10 -10h20"></path></g><path d="M40 31h10"></path><g class="non-terminal">
<path d="M50 31h0"></path><path d="M104.0 31h0.0"></path><rect height="22" width="54.0" x="50" y="20"></rect><text x="77.0" y="35">mcix</text></g><path d="M104.0 31h10"></path><g>
<path d="M114.0 31h0"></path><path d="M1256.5 31h0.0"></path><path d="M114.0 31h20"></path><g class="terminal">
<path d="M134.0 31h0"></path><path d="M188.0 31h1048.5"></path><rect height="22" rx="10" ry="10" width="54.0" x="134.0" y="20"></rect><text x="161.0" y="35">help</text></g><path d="M1236.5 31h20"></path><path d="M114.0 31a10 10 0 0 1 10 10v10a10 10 0 0 0 10 10"></path><g>
<path d="M134.0 61h0"></path><path d="M1236.5 61h0.0"></path><g class="non-terminal">
<path d="M134.0 61h0"></path><path d="M239.0 61h0.0"></path><rect height="22" width="105.0" x="134.0" y="50"></rect><text x="186.5" y="65">compliance</text></g><path d="M239.0 61h10"></path><g>
<path d="M249.0 61h0"></path><path d="M1236.5 61h0.0"></path><path d="M249.0 61h20"></path><g class="terminal">
<path d="M269.0 61h0"></path><path d="M323.0 61h893.5"></path><rect height="22" rx="10" ry="10" width="54.0" x="269.0" y="50"></rect><text x="296.0" y="65">help</text></g><path d="M1216.5 61h20"></path><path d="M249.0 61a10 10 0 0 1 10 10v10a10 10 0 0 0 10 10"></path><g>
<path d="M269.0 91h0"></path><path d="M1216.5 91h0.0"></path><g class="non-terminal">
<path d="M269.0 91h0"></path><path d="M331.5 91h0.0"></path><rect height="22" width="62.5" x="269.0" y="80"></rect><text x="300.25" y="95">query</text></g><path d="M331.5 91h10"></path><g>
<path d="M341.5 91h0"></path><path d="M1216.5 91h0.0"></path><path d="M341.5 91h20"></path><g class="terminal">
<path d="M361.5 91h0"></path><path d="M415.5 91h781.0"></path><rect height="22" rx="10" ry="10" width="54.0" x="361.5" y="80"></rect><text x="388.5" y="95">help</text></g><path d="M1196.5 91h20"></path><path d="M341.5 91a10 10 0 0 1 10 10v19a10 10 0 0 0 10 10"></path><g>
<path d="M361.5 130h0"></path><path d="M1196.5 130h0.0"></path><g>
<path d="M361.5 130h0"></path><path d="M772.0 130h0.0"></path><path d="M391.5 130h10"></path><g>
<path d="M401.5 130h0"></path><path d="M742.0 130h0.0"></path><g class="non-terminal">
<path d="M401.5 130h0"></path><path d="M489.5 130h0.0"></path><rect height="22" width="88.0" x="401.5" y="119"></rect><text x="445.5" y="134">-queries</text></g><path d="M489.5 130h10"></path><path d="M499.5 130h10"></path><g class="terminal">
<path d="M509.5 130h0"></path><path d="M742.0 130h0.0"></path><rect height="22" rx="10" ry="10" width="232.5" x="509.5" y="119"></rect><text x="625.75" y="134">{location of query files}</text></g></g><path d="M742.0 130h10"></path><path d="M391.5 130v20a10 10 0 0 0 10 10"></path><g>
<path d="M401.5 160h0"></path><path d="M725.0 160h17.0"></path><g class="non-terminal">
<path d="M401.5 160h0"></path><path d="M481.0 160h0.0"></path><rect height="22" width="79.5" x="401.5" y="149"></rect><text x="441.25" y="164">-assets</text></g><path d="M481.0 160h10"></path><path d="M491.0 160h10"></path><g class="terminal">
<path d="M501.0 160h0"></path><path d="M725.0 160h0.0"></path><rect height="22" rx="10" ry="10" width="224.0" x="501.0" y="149"></rect><text x="613.0" y="164">{location of ISX assets}</text></g></g><path d="M742.0 160a10 10 0 0 0 10 -10v-10"></path><path d="M391.5 130v50a10 10 0 0 0 10 10"></path><g>
<path d="M401.5 190h0"></path><path d="M725.0 190h17.0"></path><g class="non-terminal">
<path d="M401.5 190h0"></path><path d="M481.0 190h0.0"></path><rect height="22" width="79.5" x="401.5" y="179"></rect><text x="441.25" y="194">-report</text></g><path d="M481.0 190h10"></path><path d="M491.0 190h10"></path><g class="terminal">
<path d="M501.0 190h0"></path><path d="M725.0 190h0.0"></path><rect height="22" rx="10" ry="10" width="224.0" x="501.0" y="179"></rect><text x="613.0" y="194">{CSV output report name}</text></g></g><path d="M742.0 190a10 10 0 0 0 10 -10v-40"></path><g class="diagram-text">
<title>take all branches, once each, in any order</title><path class="diagram-text" d="M 391.5 120 h -26 a 4 4 0 0 0 -4 4 v 12 a 4 4 0 0 0 4 4 h 26 z"></path><text class="diagram-text" x="376.5" y="134">all</text><path class="diagram-text" d="M 752.0 120 h 16 a 4 4 0 0 1 4 4 v 12 a 4 4 0 0 1 -4 4 h -16 z"></path><text class="diagram-arrow" x="762.0" y="134">↺</text></g></g><path d="M772.0 130h10"></path><g>
<path d="M782.0 130h0"></path><path d="M1196.5 130h0.0"></path><path d="M782.0 130a10 10 0 0 0 10 -10v0a10 10 0 0 1 10 -10"></path><g>
<path d="M802.0 110h374.5"></path></g><path d="M1176.5 110a10 10 0 0 1 10 10v0a10 10 0 0 0 10 10"></path><path d="M782.0 130h20"></path><g>
<path d="M802.0 130h0"></path><path d="M1176.5 130h0.0"></path><g class="non-terminal">
<path d="M802.0 130h0"></path><path d="M890.0 130h0.0"></path><rect height="22" width="88.0" x="802.0" y="119"></rect><text x="846.0" y="134">-threads</text></g><path d="M890.0 130h10"></path><path d="M900.0 130h10"></path><g class="terminal">
<path d="M910.0 130h0"></path><path d="M1176.5 130h0.0"></path><rect height="22" rx="10" ry="10" width="266.5" x="910.0" y="119"></rect><text x="1043.25" y="134">{number of execution threads}</text></g></g><path d="M1176.5 130h20"></path></g></g><path d="M1196.5 130a10 10 0 0 0 10 -10v-19a10 10 0 0 1 10 -10"></path></g></g><path d="M1216.5 91a10 10 0 0 0 10 -10v-10a10 10 0 0 1 10 -10"></path></g></g><path d="M1236.5 61a10 10 0 0 0 10 -10v-10a10 10 0 0 1 10 -10"></path></g><path d="M 1256.5 31 h 20 m -10 -10 v 20 m 10 -20 v 20"></path></g></svg>