<svg class="railroad-diagram" height="212" viewBox="0 0 753.0 212" width="753.0" xmlns="http://www.w3.org/2000/svg" xmlns:xlink="http://www.w3.org/1999/xlink">
<g>
<style>/* <![CDATA[ */
	svg.railroad-diagram {
		background-color: white;
	}
	svg.railroad-diagram path {
		stroke-width:2;
		stroke:black;
		fill: rgba(255, 255, 255, 1.0);
	}
	svg.railroad-diagram text {
		font:bold 14px monospace;
		text-anchor:middle;
	}
	svg.railroad-diagram text.arrow {
		font:bold 24px monospace;
		text-anchor:middle;
	}
	svg.railroad-diagram text.label{
		text-anchor:start;
	}
	svg.railroad-diagram text.comment{
		font:italic 12px monospace;
	}
	svg.railroad-diagram rect{
		stroke-width:2;
		stroke:black;
		fill:white;
	}

/* ]]> */
</style><g>
<path d="M20 21v20m10 -20v20m-10 -10h20"></path></g><path d="M40 31h10"></path><g class="non-terminal">
<path d="M50 31h0"></path><path d="M138.0 31h0.0"></path><rect height="22" width="88.0" x="50" y="20"></rect><text x="94.0" y="35">mettleci</text></g><path d="M138.0 31h10"></path><g>
<path d="M148.0 31h0"></path><path d="M713.0 31h0.0"></path><path d="M148.0 31h20"></path><g class="terminal">
<path d="M168.0 31h0"></path><path d="M222.0 31h471.0"></path><rect height="22" rx="10" ry="10" width="54.0" x="168.0" y="20"></rect><text x="195.0" y="35">help</text></g><path d="M693.0 31h20"></path><path d="M148.0 31a10 10 0 0 1 10 10v10a10 10 0 0 0 10 10"></path><g>
<path d="M168.0 61h0"></path><path d="M693.0 61h0.0"></path><g class="non-terminal">
<path d="M168.0 61h0"></path><path d="M256.0 61h0.0"></path><rect height="22" width="88.0" x="168.0" y="50"></rect><text x="212.0" y="65">dsparams</text></g><path d="M256.0 61h10"></path><g>
<path d="M266.0 61h0"></path><path d="M693.0 61h0.0"></path><path d="M266.0 61h20"></path><g class="terminal">
<path d="M286.0 61h0"></path><path d="M340.0 61h333.0"></path><rect height="22" rx="10" ry="10" width="54.0" x="286.0" y="50"></rect><text x="313.0" y="65">help</text></g><path d="M673.0 61h20"></path><path d="M266.0 61a10 10 0 0 1 10 10v10a10 10 0 0 0 10 10"></path><g>
<path d="M286.0 91h0"></path><path d="M673.0 91h0.0"></path><g class="non-terminal">
<path d="M286.0 91h0"></path><path d="M348.5 91h0.0"></path><rect height="22" width="62.5" x="286.0" y="80"></rect><text x="317.25" y="95">merge</text></g><path d="M348.5 91h10"></path><g>
<path d="M358.5 91h0"></path><path d="M673.0 91h0.0"></path><path d="M358.5 91h20"></path><g class="terminal">
<path d="M378.5 91h0"></path><path d="M432.5 91h220.5"></path><rect height="22" rx="10" ry="10" width="54.0" x="378.5" y="80"></rect><text x="405.5" y="95">help</text></g><path d="M653.0 91h20"></path><path d="M358.5 91a10 10 0 0 1 10 10v10a10 10 0 0 0 10 10"></path><g>
<path d="M378.5 121h0"></path><path d="M653.0 121h0.0"></path><g>
<path d="M378.5 121h0"></path><path d="M653.0 121h0.0"></path><path d="M408.5 121h10"></path><g>
<path d="M418.5 121h0"></path><path d="M623.0 121h0.0"></path><g class="non-terminal">
<path d="M418.5 121h0"></path><path d="M498.0 121h0.0"></path><rect height="22" width="79.5" x="418.5" y="110"></rect><text x="458.25" y="125">-before</text></g><path d="M498.0 121h10"></path><path d="M508.0 121h10"></path><g class="terminal">
<path d="M518.0 121h0"></path><path d="M623.0 121h0.0"></path><rect height="22" rx="10" ry="10" width="105.0" x="518.0" y="110"></rect><text x="570.5" y="125">{filename}</text></g></g><path d="M623.0 121h10"></path><path d="M408.5 121v20a10 10 0 0 0 10 10"></path><g>
<path d="M418.5 151h0"></path><path d="M606.0 151h17.0"></path><g class="non-terminal">
<path d="M418.5 151h0"></path><path d="M481.0 151h0.0"></path><rect height="22" width="62.5" x="418.5" y="140"></rect><text x="449.75" y="155">-diff</text></g><path d="M481.0 151h10"></path><path d="M491.0 151h10"></path><g class="terminal">
<path d="M501.0 151h0"></path><path d="M606.0 151h0.0"></path><rect height="22" rx="10" ry="10" width="105.0" x="501.0" y="140"></rect><text x="553.5" y="155">{filename}</text></g></g><path d="M623.0 151a10 10 0 0 0 10 -10v-10"></path><path d="M408.5 121v50a10 10 0 0 0 10 10"></path><g>
<path d="M418.5 181h0"></path><path d="M614.5 181h8.5"></path><g class="non-terminal">
<path d="M418.5 181h0"></path><path d="M489.5 181h0.0"></path><rect height="22" width="71.0" x="418.5" y="170"></rect><text x="454.0" y="185">-after</text></g><path d="M489.5 181h10"></path><path d="M499.5 181h10"></path><g class="terminal">
<path d="M509.5 181h0"></path><path d="M614.5 181h0.0"></path><rect height="22" rx="10" ry="10" width="105.0" x="509.5" y="170"></rect><text x="562.0" y="185">{filename}</text></g></g><path d="M623.0 181a10 10 0 0 0 10 -10v-40"></path><g class="diagram-text">
<title>take all branches, once each, in any order</title><path class="diagram-text" d="M 408.5 111 h -26 a 4 4 0 0 0 -4 4 v 12 a 4 4 0 0 0 4 4 h 26 z"></path><text class="diagram-text" x="393.5" y="125">all</text><path class="diagram-text" d="M 633.0 111 h 16 a 4 4 0 0 1 4 4 v 12 a 4 4 0 0 1 -4 4 h -16 z"></path><text class="diagram-arrow" x="643.0" y="125">↺</text></g></g></g><path d="M653.0 121a10 10 0 0 0 10 -10v-10a10 10 0 0 1 10 -10"></path></g></g><path d="M673.0 91a10 10 0 0 0 10 -10v-10a10 10 0 0 1 10 -10"></path></g></g><path d="M693.0 61a10 10 0 0 0 10 -10v-10a10 10 0 0 1 10 -10"></path></g><path d="M 713.0 31 h 20 m -10 -10 v 20 m 10 -20 v 20"></path></g></svg>