<svg class="railroad-diagram" height="182" viewBox="0 0 887.5 182" width="887.5" xmlns="http://www.w3.org/2000/svg" xmlns:xlink="http://www.w3.org/1999/xlink">
<g>
<style>/* <![CDATA[ */
	svg.railroad-diagram {
		background-color: white;
	}
	svg.railroad-diagram path {
		stroke-width:2;
		stroke:black;
		fill: rgba(255, 255, 255, 1.0);
	}
	svg.railroad-diagram text {
		font:bold 14px monospace;
		text-anchor:middle;
	}
	svg.railroad-diagram text.arrow {
		font:bold 24px monospace;
		text-anchor:middle;
	}
	svg.railroad-diagram text.label{
		text-anchor:start;
	}
	svg.railroad-diagram text.comment{
		font:italic 12px monospace;
	}
	svg.railroad-diagram rect{
		stroke-width:2;
		stroke:black;
		fill:white;
	}

/* ]]> */
</style><g>
<path d="M20 21v20m10 -20v20m-10 -10h20"></path></g><path d="M40 31h10"></path><g class="non-terminal">
<path d="M50 31h0"></path><path d="M138.0 31h0.0"></path><rect height="22" width="88.0" x="50" y="20"></rect><text x="94.0" y="35">mettleci</text></g><path d="M138.0 31h10"></path><g>
<path d="M148.0 31h0"></path><path d="M847.5 31h0.0"></path><path d="M148.0 31h20"></path><g class="terminal">
<path d="M168.0 31h0"></path><path d="M222.0 31h605.5"></path><rect height="22" rx="10" ry="10" width="54.0" x="168.0" y="20"></rect><text x="195.0" y="35">help</text></g><path d="M827.5 31h20"></path><path d="M148.0 31a10 10 0 0 1 10 10v10a10 10 0 0 0 10 10"></path><g>
<path d="M168.0 61h0"></path><path d="M827.5 61h0.0"></path><g class="non-terminal">
<path d="M168.0 61h0"></path><path d="M281.5 61h0.0"></path><rect height="22" width="113.5" x="168.0" y="50"></rect><text x="224.75" y="65">fabrication</text></g><path d="M281.5 61h10"></path><g>
<path d="M291.5 61h0"></path><path d="M827.5 61h0.0"></path><path d="M291.5 61h20"></path><g class="terminal">
<path d="M311.5 61h0"></path><path d="M365.5 61h442.0"></path><rect height="22" rx="10" ry="10" width="54.0" x="311.5" y="50"></rect><text x="338.5" y="65">help</text></g><path d="M807.5 61h20"></path><path d="M291.5 61a10 10 0 0 1 10 10v10a10 10 0 0 0 10 10"></path><g>
<path d="M311.5 91h0"></path><path d="M807.5 91h0.0"></path><g class="non-terminal">
<path d="M311.5 91h0"></path><path d="M365.5 91h0.0"></path><rect height="22" width="54.0" x="311.5" y="80"></rect><text x="338.5" y="95">list</text></g><path d="M365.5 91h10"></path><g>
<path d="M375.5 91h0"></path><path d="M807.5 91h0.0"></path><path d="M375.5 91h20"></path><g class="terminal">
<path d="M395.5 91h0"></path><path d="M449.5 91h338.0"></path><rect height="22" rx="10" ry="10" width="54.0" x="395.5" y="80"></rect><text x="422.5" y="95">help</text></g><path d="M787.5 91h20"></path><path d="M375.5 91a10 10 0 0 1 10 10v10a10 10 0 0 0 10 10"></path><g>
<path d="M395.5 121h0"></path><path d="M787.5 121h0.0"></path><g>
<path d="M395.5 121h0"></path><path d="M600.0 121h0.0"></path><path d="M395.5 121h20"></path><g>
<path d="M415.5 121h0"></path><path d="M580.0 121h0.0"></path><g class="non-terminal">
<path d="M415.5 121h0"></path><path d="M580.0 121h0.0"></path><rect height="22" width="164.5" x="415.5" y="110"></rect><text x="497.75" y="125">-include-internal</text></g></g><path d="M580.0 121h20"></path><path d="M395.5 121a10 10 0 0 1 10 10v10a10 10 0 0 0 10 10"></path><g>
<path d="M415.5 151h0"></path><path d="M569.0 151h11.0"></path><g class="non-terminal">
<path d="M415.5 151h0"></path><path d="M478.0 151h0.0"></path><rect height="22" width="62.5" x="415.5" y="140"></rect><text x="446.75" y="155">-path</text></g><path d="M478.0 151h10"></path><path d="M488.0 151h10"></path><g class="terminal">
<path d="M498.0 151h0"></path><path d="M569.0 151h0.0"></path><rect height="22" rx="10" ry="10" width="71.0" x="498.0" y="140"></rect><text x="533.5" y="155">{path}</text></g></g><path d="M580.0 151a10 10 0 0 0 10 -10v-10a10 10 0 0 1 10 -10"></path></g><g>
<path d="M600.0 121h0"></path><path d="M787.5 121h0.0"></path><path d="M600.0 121h20"></path><g>
<path d="M620.0 121h0"></path><path d="M620.0 121h147.5"></path><g>
<path d="M620.0 121h0"></path></g></g><path d="M767.5 121h20"></path><path d="M600.0 121a10 10 0 0 1 10 10v0a10 10 0 0 0 10 10"></path><g>
<path d="M620.0 141h0"></path><path d="M767.5 141h0.0"></path><g class="non-terminal">
<path d="M620.0 141h0"></path><path d="M767.5 141h0.0"></path><rect height="22" width="147.5" x="620.0" y="130"></rect><text x="693.75" y="145">-include-params</text></g></g><path d="M767.5 141a10 10 0 0 0 10 -10v0a10 10 0 0 1 10 -10"></path></g></g><path d="M787.5 121a10 10 0 0 0 10 -10v-10a10 10 0 0 1 10 -10"></path></g></g><path d="M807.5 91a10 10 0 0 0 10 -10v-10a10 10 0 0 1 10 -10"></path></g></g><path d="M827.5 61a10 10 0 0 0 10 -10v-10a10 10 0 0 1 10 -10"></path></g><path d="M 847.5 31 h 20 m -10 -10 v 20 m 10 -20 v 20"></path></g></svg>