<svg class="railroad-diagram" height="322" viewBox="0 0 1141.0 322" width="1141.0" xmlns="http://www.w3.org/2000/svg" xmlns:xlink="http://www.w3.org/1999/xlink">
<g>
<style>/* <![CDATA[ */
	svg.railroad-diagram {
		background-color: white;
	}
	svg.railroad-diagram path {
		stroke-width:2;
		stroke:black;
		fill: rgba(255, 255, 255, 1.0);
	}
	svg.railroad-diagram text {
		font:bold 14px monospace;
		text-anchor:middle;
	}
	svg.railroad-diagram text.arrow {
		font:bold 24px monospace;
		text-anchor:middle;
	}
	svg.railroad-diagram text.label{
		text-anchor:start;
	}
	svg.railroad-diagram text.comment{
		font:italic 12px monospace;
	}
	svg.railroad-diagram rect{
		stroke-width:2;
		stroke:black;
		fill:white;
	}

/* ]]> */
</style><g>
<path d="M20 21v20m10 -20v20m-10 -10h20"></path></g><path d="M40 31h10"></path><g class="non-terminal">
<path d="M50 31h0"></path><path d="M104.0 31h0.0"></path><rect height="22" width="54.0" x="50" y="20"></rect><text x="77.0" y="35">mcix</text></g><path d="M104.0 31h10"></path><g>
<path d="M114.0 31h0"></path><path d="M1101.0 31h0.0"></path><path d="M114.0 31h20"></path><g class="terminal">
<path d="M134.0 31h0"></path><path d="M188.0 31h893.0"></path><rect height="22" rx="10" ry="10" width="54.0" x="134.0" y="20"></rect><text x="161.0" y="35">help</text></g><path d="M1081.0 31h20"></path><path d="M114.0 31a10 10 0 0 1 10 10v10a10 10 0 0 0 10 10"></path><g>
<path d="M134.0 61h0"></path><path d="M1081.0 61h0.0"></path><g class="non-terminal">
<path d="M134.0 61h0"></path><path d="M179.5 61h0.0"></path><rect height="22" width="45.5" x="134.0" y="50"></rect><text x="156.75" y="65">isx</text></g><path d="M179.5 61h10"></path><g>
<path d="M189.5 61h0"></path><path d="M1081.0 61h0.0"></path><path d="M189.5 61h20"></path><g class="terminal">
<path d="M209.5 61h0"></path><path d="M263.5 61h797.5"></path><rect height="22" rx="10" ry="10" width="54.0" x="209.5" y="50"></rect><text x="236.5" y="65">help</text></g><path d="M1061.0 61h20"></path><path d="M189.5 61a10 10 0 0 1 10 10v10a10 10 0 0 0 10 10"></path><g>
<path d="M209.5 91h0"></path><path d="M1061.0 91h0.0"></path><g class="non-terminal">
<path d="M209.5 91h0"></path><path d="M280.5 91h0.0"></path><rect height="22" width="71.0" x="209.5" y="80"></rect><text x="245.0" y="95">export</text></g><path d="M280.5 91h10"></path><g>
<path d="M290.5 91h0"></path><path d="M1061.0 91h0.0"></path><path d="M290.5 91h20"></path><g class="terminal">
<path d="M310.5 91h0"></path><path d="M364.5 91h676.5"></path><rect height="22" rx="10" ry="10" width="54.0" x="310.5" y="80"></rect><text x="337.5" y="95">help</text></g><path d="M1041.0 91h20"></path><path d="M290.5 91a10 10 0 0 1 10 10v10a10 10 0 0 0 10 10"></path><g>
<path d="M310.5 121h0"></path><path d="M1041.0 121h0.0"></path><g>
<path d="M310.5 121h0"></path><path d="M627.5 121h0.0"></path><path d="M340.5 121h10"></path><g>
<path d="M350.5 121h0"></path><path d="M597.5 121h0.0"></path><g class="non-terminal">
<path d="M350.5 121h0"></path><path d="M430.0 121h0.0"></path><rect height="22" width="79.5" x="350.5" y="110"></rect><text x="390.25" y="125">-domain</text></g><path d="M430.0 121h10"></path><path d="M440.0 121h10"></path><g class="terminal">
<path d="M450.0 121h0"></path><path d="M597.5 121h0.0"></path><rect height="22" rx="10" ry="10" width="147.5" x="450.0" y="110"></rect><text x="523.75" y="125">{Services tier}</text></g></g><path d="M597.5 121h10"></path><path d="M340.5 121v20a10 10 0 0 0 10 10"></path><g>
<path d="M350.5 151h0"></path><path d="M580.5 151h17.0"></path><g class="non-terminal">
<path d="M350.5 151h0"></path><path d="M430.0 151h0.0"></path><rect height="22" width="79.5" x="350.5" y="140"></rect><text x="390.25" y="155">-server</text></g><path d="M430.0 151h10"></path><path d="M440.0 151h10"></path><g class="terminal">
<path d="M450.0 151h0"></path><path d="M580.5 151h0.0"></path><rect height="22" rx="10" ry="10" width="130.5" x="450.0" y="140"></rect><text x="515.25" y="155">{Engine tier}</text></g></g><path d="M597.5 151a10 10 0 0 0 10 -10v-10"></path><path d="M340.5 121v50a10 10 0 0 0 10 10"></path><g>
<path d="M350.5 181h0"></path><path d="M580.5 181h17.0"></path><g class="non-terminal">
<path d="M350.5 181h0"></path><path d="M447.0 181h0.0"></path><rect height="22" width="96.5" x="350.5" y="170"></rect><text x="398.75" y="185">-username</text></g><path d="M447.0 181h10"></path><path d="M457.0 181h10"></path><g class="terminal">
<path d="M467.0 181h0"></path><path d="M580.5 181h0.0"></path><rect height="22" rx="10" ry="10" width="113.5" x="467.0" y="170"></rect><text x="523.75" y="185">{User Name}</text></g></g><path d="M597.5 181a10 10 0 0 0 10 -10v-40"></path><path d="M340.5 121v80a10 10 0 0 0 10 10"></path><g>
<path d="M350.5 211h0"></path><path d="M572.0 211h25.5"></path><g class="non-terminal">
<path d="M350.5 211h0"></path><path d="M447.0 211h0.0"></path><rect height="22" width="96.5" x="350.5" y="200"></rect><text x="398.75" y="215">-password</text></g><path d="M447.0 211h10"></path><path d="M457.0 211h10"></path><g class="terminal">
<path d="M467.0 211h0"></path><path d="M572.0 211h0.0"></path><rect height="22" rx="10" ry="10" width="105.0" x="467.0" y="200"></rect><text x="519.5" y="215">{Password}</text></g></g><path d="M597.5 211a10 10 0 0 0 10 -10v-70"></path><path d="M340.5 121v110a10 10 0 0 0 10 10"></path><g>
<path d="M350.5 241h0"></path><path d="M597.5 241h0.0"></path><g class="non-terminal">
<path d="M350.5 241h0"></path><path d="M438.5 241h0.0"></path><rect height="22" width="88.0" x="350.5" y="230"></rect><text x="394.5" y="245">-project</text></g><path d="M438.5 241h10"></path><path d="M448.5 241h10"></path><g class="terminal">
<path d="M458.5 241h0"></path><path d="M597.5 241h0.0"></path><rect height="22" rx="10" ry="10" width="139.0" x="458.5" y="230"></rect><text x="528.0" y="245">{Project Name}</text></g></g><path d="M597.5 241a10 10 0 0 0 10 -10v-100"></path><g class="diagram-text">
<title>take all branches, once each, in any order</title><path class="diagram-text" d="M 340.5 111 h -26 a 4 4 0 0 0 -4 4 v 12 a 4 4 0 0 0 4 4 h 26 z"></path><text class="diagram-text" x="325.5" y="125">all</text><path class="diagram-text" d="M 607.5 111 h 16 a 4 4 0 0 1 4 4 v 12 a 4 4 0 0 1 -4 4 h -16 z"></path><text class="diagram-arrow" x="617.5" y="125">↺</text></g></g><path d="M627.5 121h10"></path><path d="M637.5 121h10"></path><g>
<path d="M647.5 121h0"></path><path d="M1041.0 121h0.0"></path><path d="M677.5 121h10"></path><g>
<path d="M687.5 121h0"></path><path d="M687.5 121h323.5"></path><g>
<path d="M687.5 121h0"></path></g></g><path d="M1011.0 121h10"></path><path d="M677.5 121v10a10 10 0 0 0 10 10"></path><g>
<path d="M687.5 141h0"></path><path d="M977.0 141h34.0"></path><g class="non-terminal">
<path d="M687.5 141h0"></path><path d="M775.5 141h0.0"></path><rect height="22" width="88.0" x="687.5" y="130"></rect><text x="731.5" y="145">-jobname</text></g><path d="M775.5 141h10"></path><path d="M785.5 141h10"></path><g class="terminal">
<path d="M795.5 141h0"></path><path d="M977.0 141h0.0"></path><rect height="22" rx="10" ry="10" width="181.5" x="795.5" y="130"></rect><text x="886.25" y="145">{Job specification}</text></g></g><path d="M1011.0 141a10 10 0 0 0 10 -10v0"></path><path d="M677.5 121v40a10 10 0 0 0 10 10"></path><g>
<path d="M687.5 171h0"></path><path d="M977.0 171h34.0"></path><g class="non-terminal">
<path d="M687.5 171h0"></path><path d="M784.0 171h0.0"></path><rect height="22" width="96.5" x="687.5" y="160"></rect><text x="735.75" y="175">-location</text></g><path d="M784.0 171h10"></path><path d="M794.0 171h10"></path><g class="terminal">
<path d="M804.0 171h0"></path><path d="M977.0 171h0.0"></path><rect height="22" rx="10" ry="10" width="173.0" x="804.0" y="160"></rect><text x="890.5" y="175">{Source directory}</text></g></g><path d="M1011.0 171a10 10 0 0 0 10 -10v-30"></path><path d="M677.5 121v70a10 10 0 0 0 10 10"></path><g>
<path d="M687.5 201h0"></path><path d="M1011.0 201h0.0"></path><g class="non-terminal">
<path d="M687.5 201h0"></path><path d="M826.5 201h0.0"></path><rect height="22" width="139.0" x="687.5" y="190"></rect><text x="757.0" y="205">-project-cache</text></g><path d="M826.5 201h10"></path><path d="M836.5 201h10"></path><g class="terminal">
<path d="M846.5 201h0"></path><path d="M1011.0 201h0.0"></path><rect height="22" rx="10" ry="10" width="164.5" x="846.5" y="190"></rect><text x="928.75" y="205">{Cache directory}</text></g></g><path d="M1011.0 201a10 10 0 0 0 10 -10v-60"></path><path d="M677.5 121v100a10 10 0 0 0 10 10"></path><g>
<path d="M687.5 231h0"></path><path d="M934.5 231h76.5"></path><g class="non-terminal">
<path d="M687.5 231h0"></path><path d="M775.5 231h0.0"></path><rect height="22" width="88.0" x="687.5" y="220"></rect><text x="731.5" y="235">-threads</text></g><path d="M775.5 231h10"></path><path d="M785.5 231h10"></path><g class="terminal">
<path d="M795.5 231h0"></path><path d="M934.5 231h0.0"></path><rect height="22" rx="10" ry="10" width="139.0" x="795.5" y="220"></rect><text x="865.0" y="235">{Thread count}</text></g></g><path d="M1011.0 231a10 10 0 0 0 10 -10v-90"></path><path d="M677.5 121v130a10 10 0 0 0 10 10"></path><g>
<path d="M687.5 261h0"></path><path d="M852.0 261h159.0"></path><g class="non-terminal">
<path d="M687.5 261h0"></path><path d="M852.0 261h0.0"></path><rect height="22" width="164.5" x="687.5" y="250"></rect><text x="769.75" y="265">-include-binaries</text></g></g><path d="M1011.0 261a10 10 0 0 0 10 -10v-120"></path><path d="M677.5 121v160a10 10 0 0 0 10 10"></path><g>
<path d="M687.5 291h0"></path><path d="M775.5 291h235.5"></path><g class="non-terminal">
<path d="M687.5 291h0"></path><path d="M775.5 291h0.0"></path><rect height="22" width="88.0" x="687.5" y="280"></rect><text x="731.5" y="295">-preview</text></g></g><path d="M1011.0 291a10 10 0 0 0 10 -10v-150"></path><g class="diagram-text">
<title>take one or more branches, once each, in any order</title><path class="diagram-text" d="M 677.5 111 h -26 a 4 4 0 0 0 -4 4 v 12 a 4 4 0 0 0 4 4 h 26 z"></path><text class="diagram-text" x="662.5" y="125">1+</text><path class="diagram-text" d="M 1021.0 111 h 16 a 4 4 0 0 1 4 4 v 12 a 4 4 0 0 1 -4 4 h -16 z"></path><text class="diagram-arrow" x="1031.0" y="125">↺</text></g></g></g><path d="M1041.0 121a10 10 0 0 0 10 -10v-10a10 10 0 0 1 10 -10"></path></g></g><path d="M1061.0 91a10 10 0 0 0 10 -10v-10a10 10 0 0 1 10 -10"></path></g></g><path d="M1081.0 61a10 10 0 0 0 10 -10v-10a10 10 0 0 1 10 -10"></path></g><path d="M 1101.0 31 h 20 m -10 -10 v 20 m 10 -20 v 20"></path></g></svg>