<svg class="railroad-diagram" height="251" viewBox="0 0 1247.0 251" width="1247.0" xmlns="http://www.w3.org/2000/svg" xmlns:xlink="http://www.w3.org/1999/xlink">
<g>
<style>/* <![CDATA[ */
	svg.railroad-diagram {
		background-color: white;
	}
	svg.railroad-diagram path {
		stroke-width:2;
		stroke:black;
		fill: rgba(255, 255, 255, 1.0);
	}
	svg.railroad-diagram text {
		font:bold 14px monospace;
		text-anchor:middle;
	}
	svg.railroad-diagram text.arrow {
		font:bold 24px monospace;
		text-anchor:middle;
	}
	svg.railroad-diagram text.label{
		text-anchor:start;
	}
	svg.railroad-diagram text.comment{
		font:italic 12px monospace;
	}
	svg.railroad-diagram rect{
		stroke-width:2;
		stroke:black;
		fill:white;
	}

/* ]]> */
</style><g>
<path d="M20 21v20m10 -20v20m-10 -10h20"></path></g><path d="M40 31h10"></path><g class="non-terminal">
<path d="M50 31h0"></path><path d="M104.0 31h0.0"></path><rect height="22" width="54.0" x="50" y="20"></rect><text x="77.0" y="35">mcix</text></g><path d="M104.0 31h10"></path><g>
<path d="M114.0 31h0"></path><path d="M1207.0 31h0.0"></path><path d="M114.0 31h20"></path><g class="terminal">
<path d="M134.0 31h0"></path><path d="M188.0 31h999.0"></path><rect height="22" rx="10" ry="10" width="54.0" x="134.0" y="20"></rect><text x="161.0" y="35">help</text></g><path d="M1187.0 31h20"></path><path d="M114.0 31a10 10 0 0 1 10 10v10a10 10 0 0 0 10 10"></path><g>
<path d="M134.0 61h0"></path><path d="M1187.0 61h0.0"></path><g class="non-terminal">
<path d="M134.0 61h0"></path><path d="M205.0 61h0.0"></path><rect height="22" width="71.0" x="134.0" y="50"></rect><text x="169.5" y="65">remote</text></g><path d="M205.0 61h10"></path><g>
<path d="M215.0 61h0"></path><path d="M1187.0 61h0.0"></path><path d="M215.0 61h20"></path><g class="terminal">
<path d="M235.0 61h0"></path><path d="M289.0 61h878.0"></path><rect height="22" rx="10" ry="10" width="54.0" x="235.0" y="50"></rect><text x="262.0" y="65">help</text></g><path d="M1167.0 61h20"></path><path d="M215.0 61a10 10 0 0 1 10 10v10a10 10 0 0 0 10 10"></path><g>
<path d="M235.0 91h0"></path><path d="M1167.0 91h0.0"></path><g class="non-terminal">
<path d="M235.0 91h0"></path><path d="M314.5 91h0.0"></path><rect height="22" width="79.5" x="235.0" y="80"></rect><text x="274.75" y="95">execute</text></g><path d="M314.5 91h10"></path><g>
<path d="M324.5 91h0"></path><path d="M1167.0 91h0.0"></path><path d="M324.5 91h20"></path><g class="terminal">
<path d="M344.5 91h0"></path><path d="M398.5 91h748.5"></path><rect height="22" rx="10" ry="10" width="54.0" x="344.5" y="80"></rect><text x="371.5" y="95">help</text></g><path d="M1147.0 91h20"></path><path d="M324.5 91a10 10 0 0 1 10 10v19a10 10 0 0 0 10 10"></path><g>
<path d="M344.5 130h0"></path><path d="M1147.0 130h0.0"></path><g>
<path d="M344.5 130h0"></path><path d="M771.5 130h0.0"></path><path d="M374.5 130h10"></path><g>
<path d="M384.5 130h0"></path><path d="M741.5 130h0.0"></path><g class="non-terminal">
<path d="M384.5 130h0"></path><path d="M447.0 130h0.0"></path><rect height="22" width="62.5" x="384.5" y="119"></rect><text x="415.75" y="134">-host</text></g><path d="M447.0 130h10"></path><path d="M457.0 130h10"></path><g class="terminal">
<path d="M467.0 130h0"></path><path d="M538.0 130h0.0"></path><rect height="22" rx="10" ry="10" width="71.0" x="467.0" y="119"></rect><text x="502.5" y="134">{host}</text></g><path d="M538.0 130h10"></path><g>
<path d="M548.0 130h0"></path><path d="M741.5 130h0.0"></path><path d="M548.0 130a10 10 0 0 0 10 -10v0a10 10 0 0 1 10 -10"></path><g>
<path d="M568.0 110h153.5"></path></g><path d="M721.5 110a10 10 0 0 1 10 10v0a10 10 0 0 0 10 10"></path><path d="M548.0 130h20"></path><g>
<path d="M568.0 130h0"></path><path d="M721.5 130h0.0"></path><g class="non-terminal">
<path d="M568.0 130h0"></path><path d="M630.5 130h0.0"></path><rect height="22" width="62.5" x="568.0" y="119"></rect><text x="599.25" y="134">-port</text></g><path d="M630.5 130h10"></path><path d="M640.5 130h10"></path><g class="terminal">
<path d="M650.5 130h0"></path><path d="M721.5 130h0.0"></path><rect height="22" rx="10" ry="10" width="71.0" x="650.5" y="119"></rect><text x="686.0" y="134">{port}</text></g></g><path d="M721.5 130h20"></path></g></g><path d="M741.5 130h10"></path><path d="M374.5 130v20a10 10 0 0 0 10 10"></path><g>
<path d="M384.5 160h0"></path><path d="M572.0 160h169.5"></path><g class="non-terminal">
<path d="M384.5 160h0"></path><path d="M481.0 160h0.0"></path><rect height="22" width="96.5" x="384.5" y="149"></rect><text x="432.75" y="164">-username</text></g><path d="M481.0 160h10"></path><path d="M491.0 160h10"></path><g class="terminal">
<path d="M501.0 160h0"></path><path d="M572.0 160h0.0"></path><rect height="22" rx="10" ry="10" width="71.0" x="501.0" y="149"></rect><text x="536.5" y="164">{user}</text></g></g><path d="M741.5 160a10 10 0 0 0 10 -10v-10"></path><path d="M374.5 130v50a10 10 0 0 0 10 10"></path><g>
<path d="M384.5 190h0"></path><path d="M572.0 190h169.5"></path><g class="non-terminal">
<path d="M384.5 190h0"></path><path d="M464.0 190h0.0"></path><rect height="22" width="79.5" x="384.5" y="179"></rect><text x="424.25" y="194">-script</text></g><path d="M464.0 190h10"></path><path d="M474.0 190h10"></path><g class="terminal">
<path d="M484.0 190h0"></path><path d="M572.0 190h0.0"></path><rect height="22" rx="10" ry="10" width="88.0" x="484.0" y="179"></rect><text x="528.0" y="194">{script}</text></g></g><path d="M741.5 190a10 10 0 0 0 10 -10v-40"></path><path d="M374.5 130v80a10 10 0 0 0 10 10"></path><g>
<path d="M384.5 220h0"></path><path d="M725.0 220h16.5"></path><g class="non-terminal">
<path d="M384.5 220h0"></path><path d="M540.5 220h0.0"></path><rect height="22" width="156.0" x="384.5" y="209"></rect><text x="462.5" y="224">-transferPattern</text></g><path d="M540.5 220h10"></path><path d="M550.5 220h10"></path><g class="terminal">
<path d="M560.5 220h0"></path><path d="M725.0 220h0.0"></path><rect height="22" rx="10" ry="10" width="164.5" x="560.5" y="209"></rect><text x="642.75" y="224">{transferPattern}</text></g></g><path d="M741.5 220a10 10 0 0 0 10 -10v-70"></path><g class="diagram-text">
<title>take all branches, once each, in any order</title><path class="diagram-text" d="M 374.5 120 h -26 a 4 4 0 0 0 -4 4 v 12 a 4 4 0 0 0 4 4 h 26 z"></path><text class="diagram-text" x="359.5" y="134">all</text><path class="diagram-text" d="M 751.5 120 h 16 a 4 4 0 0 1 4 4 v 12 a 4 4 0 0 1 -4 4 h -16 z"></path><text class="diagram-arrow" x="761.5" y="134">↺</text></g></g><path d="M771.5 130h10"></path><g>
<path d="M781.5 130h0"></path><path d="M1147.0 130h0.0"></path><path d="M781.5 130h20"></path><g>
<path d="M801.5 130h0"></path><path d="M1023.0 130h104.0"></path><g class="non-terminal">
<path d="M801.5 130h0"></path><path d="M898.0 130h0.0"></path><rect height="22" width="96.5" x="801.5" y="119"></rect><text x="849.75" y="134">-password</text></g><path d="M898.0 130h10"></path><path d="M908.0 130h10"></path><g class="terminal">
<path d="M918.0 130h0"></path><path d="M1023.0 130h0.0"></path><rect height="22" rx="10" ry="10" width="105.0" x="918.0" y="119"></rect><text x="970.5" y="134">{password}</text></g></g><path d="M1127.0 130h20"></path><path d="M781.5 130a10 10 0 0 1 10 10v10a10 10 0 0 0 10 10"></path><g>
<path d="M801.5 160h0"></path><path d="M1127.0 160h0.0"></path><path d="M831.5 160h10"></path><g>
<path d="M841.5 160h0"></path><path d="M1037.5 160h59.5"></path><g class="non-terminal">
<path d="M841.5 160h0"></path><path d="M955.0 160h0.0"></path><rect height="22" width="113.5" x="841.5" y="149"></rect><text x="898.25" y="164">-privateKey</text></g><path d="M955.0 160h10"></path><path d="M965.0 160h10"></path><g class="terminal">
<path d="M975.0 160h0"></path><path d="M1037.5 160h0.0"></path><rect height="22" rx="10" ry="10" width="62.5" x="975.0" y="149"></rect><text x="1006.25" y="164">{key}</text></g></g><path d="M1097.0 160h10"></path><path d="M831.5 160v20a10 10 0 0 0 10 10"></path><g>
<path d="M841.5 190h0"></path><path d="M1097.0 190h0.0"></path><g class="non-terminal">
<path d="M841.5 190h0"></path><path d="M955.0 190h0.0"></path><rect height="22" width="113.5" x="841.5" y="179"></rect><text x="898.25" y="194">-passphrase</text></g><path d="M955.0 190h10"></path><path d="M965.0 190h10"></path><g class="terminal">
<path d="M975.0 190h0"></path><path d="M1097.0 190h0.0"></path><rect height="22" rx="10" ry="10" width="122.0" x="975.0" y="179"></rect><text x="1036.0" y="194">{passphrase}</text></g></g><path d="M1097.0 190a10 10 0 0 0 10 -10v-10"></path><g class="diagram-text">
<title>take all branches, once each, in any order</title><path class="diagram-text" d="M 831.5 150 h -26 a 4 4 0 0 0 -4 4 v 12 a 4 4 0 0 0 4 4 h 26 z"></path><text class="diagram-text" x="816.5" y="164">all</text><path class="diagram-text" d="M 1107.0 150 h 16 a 4 4 0 0 1 4 4 v 12 a 4 4 0 0 1 -4 4 h -16 z"></path><text class="diagram-arrow" x="1117.0" y="164">↺</text></g></g><path d="M1127.0 160a10 10 0 0 0 10 -10v-10a10 10 0 0 1 10 -10"></path></g></g><path d="M1147.0 130a10 10 0 0 0 10 -10v-19a10 10 0 0 1 10 -10"></path></g></g><path d="M1167.0 91a10 10 0 0 0 10 -10v-10a10 10 0 0 1 10 -10"></path></g></g><path d="M1187.0 61a10 10 0 0 0 10 -10v-10a10 10 0 0 1 10 -10"></path></g><path d="M 1207.0 31 h 20 m -10 -10 v 20 m 10 -20 v 20"></path></g></svg>