<svg class="railroad-diagram" height="262" viewBox="0 0 1499.0 262" width="1499.0" xmlns="http://www.w3.org/2000/svg" xmlns:xlink="http://www.w3.org/1999/xlink">
<g>
<style>/* <![CDATA[ */
	svg.railroad-diagram {
		background-color: white;
	}
	svg.railroad-diagram path {
		stroke-width:2;
		stroke:black;
		fill: rgba(255, 255, 255, 1.0);
	}
	svg.railroad-diagram text {
		font:bold 14px monospace;
		text-anchor:middle;
	}
	svg.railroad-diagram text.arrow {
		font:bold 24px monospace;
		text-anchor:middle;
	}
	svg.railroad-diagram text.label{
		text-anchor:start;
	}
	svg.railroad-diagram text.comment{
		font:italic 12px monospace;
	}
	svg.railroad-diagram rect{
		stroke-width:2;
		stroke:black;
		fill:white;
	}

/* ]]> */
</style><g>
<path d="M20 21v20m10 -20v20m-10 -10h20"></path></g><path d="M40 31h10"></path><g class="non-terminal">
<path d="M50 31h0"></path><path d="M104.0 31h0.0"></path><rect height="22" width="54.0" x="50" y="20"></rect><text x="77.0" y="35">mcix</text></g><path d="M104.0 31h10"></path><g>
<path d="M114.0 31h0"></path><path d="M1459.0 31h0.0"></path><path d="M114.0 31h20"></path><g class="terminal">
<path d="M134.0 31h0"></path><path d="M188.0 31h1251.0"></path><rect height="22" rx="10" ry="10" width="54.0" x="134.0" y="20"></rect><text x="161.0" y="35">help</text></g><path d="M1439.0 31h20"></path><path d="M114.0 31a10 10 0 0 1 10 10v10a10 10 0 0 0 10 10"></path><g>
<path d="M134.0 61h0"></path><path d="M1439.0 61h0.0"></path><g class="non-terminal">
<path d="M134.0 61h0"></path><path d="M205.0 61h0.0"></path><rect height="22" width="71.0" x="134.0" y="50"></rect><text x="169.5" y="65">remote</text></g><path d="M205.0 61h10"></path><g>
<path d="M215.0 61h0"></path><path d="M1439.0 61h0.0"></path><path d="M215.0 61h20"></path><g class="terminal">
<path d="M235.0 61h0"></path><path d="M289.0 61h1130.0"></path><rect height="22" rx="10" ry="10" width="54.0" x="235.0" y="50"></rect><text x="262.0" y="65">help</text></g><path d="M1419.0 61h20"></path><path d="M215.0 61a10 10 0 0 1 10 10v10a10 10 0 0 0 10 10"></path><g>
<path d="M235.0 91h0"></path><path d="M1419.0 91h0.0"></path><g class="non-terminal">
<path d="M235.0 91h0"></path><path d="M306.0 91h0.0"></path><rect height="22" width="71.0" x="235.0" y="80"></rect><text x="270.5" y="95">upload</text></g><path d="M306.0 91h10"></path><g>
<path d="M316.0 91h0"></path><path d="M1419.0 91h0.0"></path><path d="M316.0 91h20"></path><g class="terminal">
<path d="M336.0 91h0"></path><path d="M390.0 91h1009.0"></path><rect height="22" rx="10" ry="10" width="54.0" x="336.0" y="80"></rect><text x="363.0" y="95">help</text></g><path d="M1399.0 91h20"></path><path d="M316.0 91a10 10 0 0 1 10 10v10a10 10 0 0 0 10 10"></path><g>
<path d="M336.0 121h0"></path><path d="M1399.0 121h0.0"></path><g>
<path d="M336.0 121h0"></path><path d="M763.0 121h0.0"></path><path d="M366.0 121h10"></path><g>
<path d="M376.0 121h0"></path><path d="M733.0 121h0.0"></path><g class="non-terminal">
<path d="M376.0 121h0"></path><path d="M438.5 121h0.0"></path><rect height="22" width="62.5" x="376.0" y="110"></rect><text x="407.25" y="125">-host</text></g><path d="M438.5 121h10"></path><path d="M448.5 121h10"></path><g class="terminal">
<path d="M458.5 121h0"></path><path d="M529.5 121h0.0"></path><rect height="22" rx="10" ry="10" width="71.0" x="458.5" y="110"></rect><text x="494.0" y="125">{host}</text></g><path d="M529.5 121h10"></path><g>
<path d="M539.5 121h0"></path><path d="M733.0 121h0.0"></path><path d="M539.5 121h20"></path><g>
<path d="M559.5 121h0"></path><path d="M559.5 121h153.5"></path><g>
<path d="M559.5 121h0"></path></g></g><path d="M713.0 121h20"></path><path d="M539.5 121a10 10 0 0 1 10 10v0a10 10 0 0 0 10 10"></path><g>
<path d="M559.5 141h0"></path><path d="M713.0 141h0.0"></path><g class="non-terminal">
<path d="M559.5 141h0"></path><path d="M622.0 141h0.0"></path><rect height="22" width="62.5" x="559.5" y="130"></rect><text x="590.75" y="145">-port</text></g><path d="M622.0 141h10"></path><path d="M632.0 141h10"></path><g class="terminal">
<path d="M642.0 141h0"></path><path d="M713.0 141h0.0"></path><rect height="22" rx="10" ry="10" width="71.0" x="642.0" y="130"></rect><text x="677.5" y="145">{port}</text></g></g><path d="M713.0 141a10 10 0 0 0 10 -10v0a10 10 0 0 1 10 -10"></path></g></g><path d="M733.0 121h10"></path><path d="M366.0 121v40a10 10 0 0 0 10 10"></path><g>
<path d="M376.0 171h0"></path><path d="M563.5 171h169.5"></path><g class="non-terminal">
<path d="M376.0 171h0"></path><path d="M472.5 171h0.0"></path><rect height="22" width="96.5" x="376.0" y="160"></rect><text x="424.25" y="175">-username</text></g><path d="M472.5 171h10"></path><path d="M482.5 171h10"></path><g class="terminal">
<path d="M492.5 171h0"></path><path d="M563.5 171h0.0"></path><rect height="22" rx="10" ry="10" width="71.0" x="492.5" y="160"></rect><text x="528.0" y="175">{user}</text></g></g><path d="M733.0 171a10 10 0 0 0 10 -10v-30"></path><path d="M366.0 121v70a10 10 0 0 0 10 10"></path><g>
<path d="M376.0 201h0"></path><path d="M589.0 201h144.0"></path><g class="non-terminal">
<path d="M376.0 201h0"></path><path d="M498.0 201h0.0"></path><rect height="22" width="122.0" x="376.0" y="190"></rect><text x="437.0" y="205">-destination</text></g><path d="M498.0 201h10"></path><path d="M508.0 201h10"></path><g class="terminal">
<path d="M518.0 201h0"></path><path d="M589.0 201h0.0"></path><rect height="22" rx="10" ry="10" width="71.0" x="518.0" y="190"></rect><text x="553.5" y="205">{path}</text></g></g><path d="M733.0 201a10 10 0 0 0 10 -10v-60"></path><path d="M366.0 121v100a10 10 0 0 0 10 10"></path><g>
<path d="M376.0 231h0"></path><path d="M716.5 231h16.5"></path><g class="non-terminal">
<path d="M376.0 231h0"></path><path d="M532.0 231h0.0"></path><rect height="22" width="156.0" x="376.0" y="220"></rect><text x="454.0" y="235">-transferPattern</text></g><path d="M532.0 231h10"></path><path d="M542.0 231h10"></path><g class="terminal">
<path d="M552.0 231h0"></path><path d="M716.5 231h0.0"></path><rect height="22" rx="10" ry="10" width="164.5" x="552.0" y="220"></rect><text x="634.25" y="235">{transferPattern}</text></g></g><path d="M733.0 231a10 10 0 0 0 10 -10v-90"></path><g class="diagram-text">
<title>take all branches, once each, in any order</title><path class="diagram-text" d="M 366.0 111 h -26 a 4 4 0 0 0 -4 4 v 12 a 4 4 0 0 0 4 4 h 26 z"></path><text class="diagram-text" x="351.0" y="125">all</text><path class="diagram-text" d="M 743.0 111 h 16 a 4 4 0 0 1 4 4 v 12 a 4 4 0 0 1 -4 4 h -16 z"></path><text class="diagram-arrow" x="753.0" y="125">↺</text></g></g><path d="M763.0 121h10"></path><path d="M773.0 121h10"></path><g>
<path d="M783.0 121h0"></path><path d="M1023.5 121h0.0"></path><path d="M813.0 121h10"></path><g>
<path d="M823.0 121h0"></path><path d="M823.0 121h170.5"></path><g>
<path d="M823.0 121h0"></path></g></g><path d="M993.5 121h10"></path><path d="M813.0 121v10a10 10 0 0 0 10 10"></path><g>
<path d="M823.0 141h0"></path><path d="M993.5 141h0.0"></path><g class="non-terminal">
<path d="M823.0 141h0"></path><path d="M902.5 141h0.0"></path><rect height="22" width="79.5" x="823.0" y="130"></rect><text x="862.75" y="145">-source</text></g><path d="M902.5 141h10"></path><path d="M912.5 141h10"></path><g class="terminal">
<path d="M922.5 141h0"></path><path d="M993.5 141h0.0"></path><rect height="22" rx="10" ry="10" width="71.0" x="922.5" y="130"></rect><text x="958.0" y="145">{path}</text></g></g><path d="M993.5 141a10 10 0 0 0 10 -10v0"></path><g class="diagram-text">
<title>take one or more branches, once each, in any order</title><path class="diagram-text" d="M 813.0 111 h -26 a 4 4 0 0 0 -4 4 v 12 a 4 4 0 0 0 4 4 h 26 z"></path><text class="diagram-text" x="798.0" y="125">1+</text><path class="diagram-text" d="M 1003.5 111 h 16 a 4 4 0 0 1 4 4 v 12 a 4 4 0 0 1 -4 4 h -16 z"></path><text class="diagram-arrow" x="1013.5" y="125">↺</text></g></g><path d="M1023.5 121h10"></path><g>
<path d="M1033.5 121h0"></path><path d="M1399.0 121h0.0"></path><path d="M1033.5 121h20"></path><g>
<path d="M1053.5 121h0"></path><path d="M1275.0 121h104.0"></path><g class="non-terminal">
<path d="M1053.5 121h0"></path><path d="M1150.0 121h0.0"></path><rect height="22" width="96.5" x="1053.5" y="110"></rect><text x="1101.75" y="125">-password</text></g><path d="M1150.0 121h10"></path><path d="M1160.0 121h10"></path><g class="terminal">
<path d="M1170.0 121h0"></path><path d="M1275.0 121h0.0"></path><rect height="22" rx="10" ry="10" width="105.0" x="1170.0" y="110"></rect><text x="1222.5" y="125">{password}</text></g></g><path d="M1379.0 121h20"></path><path d="M1033.5 121a10 10 0 0 1 10 10v10a10 10 0 0 0 10 10"></path><g>
<path d="M1053.5 151h0"></path><path d="M1379.0 151h0.0"></path><path d="M1083.5 151h10"></path><g>
<path d="M1093.5 151h0"></path><path d="M1289.5 151h59.5"></path><g class="non-terminal">
<path d="M1093.5 151h0"></path><path d="M1207.0 151h0.0"></path><rect height="22" width="113.5" x="1093.5" y="140"></rect><text x="1150.25" y="155">-privateKey</text></g><path d="M1207.0 151h10"></path><path d="M1217.0 151h10"></path><g class="terminal">
<path d="M1227.0 151h0"></path><path d="M1289.5 151h0.0"></path><rect height="22" rx="10" ry="10" width="62.5" x="1227.0" y="140"></rect><text x="1258.25" y="155">{key}</text></g></g><path d="M1349.0 151h10"></path><path d="M1083.5 151v20a10 10 0 0 0 10 10"></path><g>
<path d="M1093.5 181h0"></path><path d="M1349.0 181h0.0"></path><g class="non-terminal">
<path d="M1093.5 181h0"></path><path d="M1207.0 181h0.0"></path><rect height="22" width="113.5" x="1093.5" y="170"></rect><text x="1150.25" y="185">-passphrase</text></g><path d="M1207.0 181h10"></path><path d="M1217.0 181h10"></path><g class="terminal">
<path d="M1227.0 181h0"></path><path d="M1349.0 181h0.0"></path><rect height="22" rx="10" ry="10" width="122.0" x="1227.0" y="170"></rect><text x="1288.0" y="185">{passphrase}</text></g></g><path d="M1349.0 181a10 10 0 0 0 10 -10v-10"></path><g class="diagram-text">
<title>take all branches, once each, in any order</title><path class="diagram-text" d="M 1083.5 141 h -26 a 4 4 0 0 0 -4 4 v 12 a 4 4 0 0 0 4 4 h 26 z"></path><text class="diagram-text" x="1068.5" y="155">all</text><path class="diagram-text" d="M 1359.0 141 h 16 a 4 4 0 0 1 4 4 v 12 a 4 4 0 0 1 -4 4 h -16 z"></path><text class="diagram-arrow" x="1369.0" y="155">↺</text></g></g><path d="M1379.0 151a10 10 0 0 0 10 -10v-10a10 10 0 0 1 10 -10"></path></g></g><path d="M1399.0 121a10 10 0 0 0 10 -10v-10a10 10 0 0 1 10 -10"></path></g></g><path d="M1419.0 91a10 10 0 0 0 10 -10v-10a10 10 0 0 1 10 -10"></path></g></g><path d="M1439.0 61a10 10 0 0 0 10 -10v-10a10 10 0 0 1 10 -10"></path></g><path d="M 1459.0 31 h 20 m -10 -10 v 20 m 10 -20 v 20"></path></g></svg>