<svg class="railroad-diagram" height="262" viewBox="0 0 1533.0 262" width="1533.0" xmlns="http://www.w3.org/2000/svg" xmlns:xlink="http://www.w3.org/1999/xlink">
<g>
<style>/* <![CDATA[ */
	svg.railroad-diagram {
		background-color: white;
	}
	svg.railroad-diagram path {
		stroke-width:2;
		stroke:black;
		fill: rgba(255, 255, 255, 1.0);
	}
	svg.railroad-diagram text {
		font:bold 14px monospace;
		text-anchor:middle;
	}
	svg.railroad-diagram text.arrow {
		font:bold 24px monospace;
		text-anchor:middle;
	}
	svg.railroad-diagram text.label{
		text-anchor:start;
	}
	svg.railroad-diagram text.comment{
		font:italic 12px monospace;
	}
	svg.railroad-diagram rect{
		stroke-width:2;
		stroke:black;
		fill:white;
	}

/* ]]> */
</style><g>
<path d="M20 21v20m10 -20v20m-10 -10h20"></path></g><path d="M40 31h10"></path><g class="non-terminal">
<path d="M50 31h0"></path><path d="M138.0 31h0.0"></path><rect height="22" width="88.0" x="50" y="20"></rect><text x="94.0" y="35">mettleci</text></g><path d="M138.0 31h10"></path><g>
<path d="M148.0 31h0"></path><path d="M1493.0 31h0.0"></path><path d="M148.0 31h20"></path><g class="terminal">
<path d="M168.0 31h0"></path><path d="M222.0 31h1251.0"></path><rect height="22" rx="10" ry="10" width="54.0" x="168.0" y="20"></rect><text x="195.0" y="35">help</text></g><path d="M1473.0 31h20"></path><path d="M148.0 31a10 10 0 0 1 10 10v10a10 10 0 0 0 10 10"></path><g>
<path d="M168.0 61h0"></path><path d="M1473.0 61h0.0"></path><g class="non-terminal">
<path d="M168.0 61h0"></path><path d="M239.0 61h0.0"></path><rect height="22" width="71.0" x="168.0" y="50"></rect><text x="203.5" y="65">remote</text></g><path d="M239.0 61h10"></path><g>
<path d="M249.0 61h0"></path><path d="M1473.0 61h0.0"></path><path d="M249.0 61h20"></path><g class="terminal">
<path d="M269.0 61h0"></path><path d="M323.0 61h1130.0"></path><rect height="22" rx="10" ry="10" width="54.0" x="269.0" y="50"></rect><text x="296.0" y="65">help</text></g><path d="M1453.0 61h20"></path><path d="M249.0 61a10 10 0 0 1 10 10v10a10 10 0 0 0 10 10"></path><g>
<path d="M269.0 91h0"></path><path d="M1453.0 91h0.0"></path><g class="non-terminal">
<path d="M269.0 91h0"></path><path d="M340.0 91h0.0"></path><rect height="22" width="71.0" x="269.0" y="80"></rect><text x="304.5" y="95">upload</text></g><path d="M340.0 91h10"></path><g>
<path d="M350.0 91h0"></path><path d="M1453.0 91h0.0"></path><path d="M350.0 91h20"></path><g class="terminal">
<path d="M370.0 91h0"></path><path d="M424.0 91h1009.0"></path><rect height="22" rx="10" ry="10" width="54.0" x="370.0" y="80"></rect><text x="397.0" y="95">help</text></g><path d="M1433.0 91h20"></path><path d="M350.0 91a10 10 0 0 1 10 10v10a10 10 0 0 0 10 10"></path><g>
<path d="M370.0 121h0"></path><path d="M1433.0 121h0.0"></path><g>
<path d="M370.0 121h0"></path><path d="M797.0 121h0.0"></path><path d="M400.0 121h10"></path><g>
<path d="M410.0 121h0"></path><path d="M767.0 121h0.0"></path><g class="non-terminal">
<path d="M410.0 121h0"></path><path d="M472.5 121h0.0"></path><rect height="22" width="62.5" x="410.0" y="110"></rect><text x="441.25" y="125">-host</text></g><path d="M472.5 121h10"></path><path d="M482.5 121h10"></path><g class="terminal">
<path d="M492.5 121h0"></path><path d="M563.5 121h0.0"></path><rect height="22" rx="10" ry="10" width="71.0" x="492.5" y="110"></rect><text x="528.0" y="125">{host}</text></g><path d="M563.5 121h10"></path><g>
<path d="M573.5 121h0"></path><path d="M767.0 121h0.0"></path><path d="M573.5 121h20"></path><g>
<path d="M593.5 121h0"></path><path d="M593.5 121h153.5"></path><g>
<path d="M593.5 121h0"></path></g></g><path d="M747.0 121h20"></path><path d="M573.5 121a10 10 0 0 1 10 10v0a10 10 0 0 0 10 10"></path><g>
<path d="M593.5 141h0"></path><path d="M747.0 141h0.0"></path><g class="non-terminal">
<path d="M593.5 141h0"></path><path d="M656.0 141h0.0"></path><rect height="22" width="62.5" x="593.5" y="130"></rect><text x="624.75" y="145">-port</text></g><path d="M656.0 141h10"></path><path d="M666.0 141h10"></path><g class="terminal">
<path d="M676.0 141h0"></path><path d="M747.0 141h0.0"></path><rect height="22" rx="10" ry="10" width="71.0" x="676.0" y="130"></rect><text x="711.5" y="145">{port}</text></g></g><path d="M747.0 141a10 10 0 0 0 10 -10v0a10 10 0 0 1 10 -10"></path></g></g><path d="M767.0 121h10"></path><path d="M400.0 121v40a10 10 0 0 0 10 10"></path><g>
<path d="M410.0 171h0"></path><path d="M597.5 171h169.5"></path><g class="non-terminal">
<path d="M410.0 171h0"></path><path d="M506.5 171h0.0"></path><rect height="22" width="96.5" x="410.0" y="160"></rect><text x="458.25" y="175">-username</text></g><path d="M506.5 171h10"></path><path d="M516.5 171h10"></path><g class="terminal">
<path d="M526.5 171h0"></path><path d="M597.5 171h0.0"></path><rect height="22" rx="10" ry="10" width="71.0" x="526.5" y="160"></rect><text x="562.0" y="175">{user}</text></g></g><path d="M767.0 171a10 10 0 0 0 10 -10v-30"></path><path d="M400.0 121v70a10 10 0 0 0 10 10"></path><g>
<path d="M410.0 201h0"></path><path d="M623.0 201h144.0"></path><g class="non-terminal">
<path d="M410.0 201h0"></path><path d="M532.0 201h0.0"></path><rect height="22" width="122.0" x="410.0" y="190"></rect><text x="471.0" y="205">-destination</text></g><path d="M532.0 201h10"></path><path d="M542.0 201h10"></path><g class="terminal">
<path d="M552.0 201h0"></path><path d="M623.0 201h0.0"></path><rect height="22" rx="10" ry="10" width="71.0" x="552.0" y="190"></rect><text x="587.5" y="205">{path}</text></g></g><path d="M767.0 201a10 10 0 0 0 10 -10v-60"></path><path d="M400.0 121v100a10 10 0 0 0 10 10"></path><g>
<path d="M410.0 231h0"></path><path d="M750.5 231h16.5"></path><g class="non-terminal">
<path d="M410.0 231h0"></path><path d="M566.0 231h0.0"></path><rect height="22" width="156.0" x="410.0" y="220"></rect><text x="488.0" y="235">-transferPattern</text></g><path d="M566.0 231h10"></path><path d="M576.0 231h10"></path><g class="terminal">
<path d="M586.0 231h0"></path><path d="M750.5 231h0.0"></path><rect height="22" rx="10" ry="10" width="164.5" x="586.0" y="220"></rect><text x="668.25" y="235">{transferPattern}</text></g></g><path d="M767.0 231a10 10 0 0 0 10 -10v-90"></path><g class="diagram-text">
<title>take all branches, once each, in any order</title><path class="diagram-text" d="M 400.0 111 h -26 a 4 4 0 0 0 -4 4 v 12 a 4 4 0 0 0 4 4 h 26 z"></path><text class="diagram-text" x="385.0" y="125">all</text><path class="diagram-text" d="M 777.0 111 h 16 a 4 4 0 0 1 4 4 v 12 a 4 4 0 0 1 -4 4 h -16 z"></path><text class="diagram-arrow" x="787.0" y="125">↺</text></g></g><path d="M797.0 121h10"></path><path d="M807.0 121h10"></path><g>
<path d="M817.0 121h0"></path><path d="M1057.5 121h0.0"></path><path d="M847.0 121h10"></path><g>
<path d="M857.0 121h0"></path><path d="M857.0 121h170.5"></path><g>
<path d="M857.0 121h0"></path></g></g><path d="M1027.5 121h10"></path><path d="M847.0 121v10a10 10 0 0 0 10 10"></path><g>
<path d="M857.0 141h0"></path><path d="M1027.5 141h0.0"></path><g class="non-terminal">
<path d="M857.0 141h0"></path><path d="M936.5 141h0.0"></path><rect height="22" width="79.5" x="857.0" y="130"></rect><text x="896.75" y="145">-source</text></g><path d="M936.5 141h10"></path><path d="M946.5 141h10"></path><g class="terminal">
<path d="M956.5 141h0"></path><path d="M1027.5 141h0.0"></path><rect height="22" rx="10" ry="10" width="71.0" x="956.5" y="130"></rect><text x="992.0" y="145">{path}</text></g></g><path d="M1027.5 141a10 10 0 0 0 10 -10v0"></path><g class="diagram-text">
<title>take one or more branches, once each, in any order</title><path class="diagram-text" d="M 847.0 111 h -26 a 4 4 0 0 0 -4 4 v 12 a 4 4 0 0 0 4 4 h 26 z"></path><text class="diagram-text" x="832.0" y="125">1+</text><path class="diagram-text" d="M 1037.5 111 h 16 a 4 4 0 0 1 4 4 v 12 a 4 4 0 0 1 -4 4 h -16 z"></path><text class="diagram-arrow" x="1047.5" y="125">↺</text></g></g><path d="M1057.5 121h10"></path><g>
<path d="M1067.5 121h0"></path><path d="M1433.0 121h0.0"></path><path d="M1067.5 121h20"></path><g>
<path d="M1087.5 121h0"></path><path d="M1309.0 121h104.0"></path><g class="non-terminal">
<path d="M1087.5 121h0"></path><path d="M1184.0 121h0.0"></path><rect height="22" width="96.5" x="1087.5" y="110"></rect><text x="1135.75" y="125">-password</text></g><path d="M1184.0 121h10"></path><path d="M1194.0 121h10"></path><g class="terminal">
<path d="M1204.0 121h0"></path><path d="M1309.0 121h0.0"></path><rect height="22" rx="10" ry="10" width="105.0" x="1204.0" y="110"></rect><text x="1256.5" y="125">{password}</text></g></g><path d="M1413.0 121h20"></path><path d="M1067.5 121a10 10 0 0 1 10 10v10a10 10 0 0 0 10 10"></path><g>
<path d="M1087.5 151h0"></path><path d="M1413.0 151h0.0"></path><path d="M1117.5 151h10"></path><g>
<path d="M1127.5 151h0"></path><path d="M1323.5 151h59.5"></path><g class="non-terminal">
<path d="M1127.5 151h0"></path><path d="M1241.0 151h0.0"></path><rect height="22" width="113.5" x="1127.5" y="140"></rect><text x="1184.25" y="155">-privateKey</text></g><path d="M1241.0 151h10"></path><path d="M1251.0 151h10"></path><g class="terminal">
<path d="M1261.0 151h0"></path><path d="M1323.5 151h0.0"></path><rect height="22" rx="10" ry="10" width="62.5" x="1261.0" y="140"></rect><text x="1292.25" y="155">{key}</text></g></g><path d="M1383.0 151h10"></path><path d="M1117.5 151v20a10 10 0 0 0 10 10"></path><g>
<path d="M1127.5 181h0"></path><path d="M1383.0 181h0.0"></path><g class="non-terminal">
<path d="M1127.5 181h0"></path><path d="M1241.0 181h0.0"></path><rect height="22" width="113.5" x="1127.5" y="170"></rect><text x="1184.25" y="185">-passphrase</text></g><path d="M1241.0 181h10"></path><path d="M1251.0 181h10"></path><g class="terminal">
<path d="M1261.0 181h0"></path><path d="M1383.0 181h0.0"></path><rect height="22" rx="10" ry="10" width="122.0" x="1261.0" y="170"></rect><text x="1322.0" y="185">{passphrase}</text></g></g><path d="M1383.0 181a10 10 0 0 0 10 -10v-10"></path><g class="diagram-text">
<title>take all branches, once each, in any order</title><path class="diagram-text" d="M 1117.5 141 h -26 a 4 4 0 0 0 -4 4 v 12 a 4 4 0 0 0 4 4 h 26 z"></path><text class="diagram-text" x="1102.5" y="155">all</text><path class="diagram-text" d="M 1393.0 141 h 16 a 4 4 0 0 1 4 4 v 12 a 4 4 0 0 1 -4 4 h -16 z"></path><text class="diagram-arrow" x="1403.0" y="155">↺</text></g></g><path d="M1413.0 151a10 10 0 0 0 10 -10v-10a10 10 0 0 1 10 -10"></path></g></g><path d="M1433.0 121a10 10 0 0 0 10 -10v-10a10 10 0 0 1 10 -10"></path></g></g><path d="M1453.0 91a10 10 0 0 0 10 -10v-10a10 10 0 0 1 10 -10"></path></g></g><path d="M1473.0 61a10 10 0 0 0 10 -10v-10a10 10 0 0 1 10 -10"></path></g><path d="M 1493.0 31 h 20 m -10 -10 v 20 m 10 -20 v 20"></path></g></svg>