<svg class="railroad-diagram" height="251" viewBox="0 0 1508.5 251" width="1508.5" xmlns="http://www.w3.org/2000/svg" xmlns:xlink="http://www.w3.org/1999/xlink">
<g>
<style>/* <![CDATA[ */
	svg.railroad-diagram {
		background-color: white;
	}
	svg.railroad-diagram path {
		stroke-width:2;
		stroke:black;
		fill: rgba(255, 255, 255, 1.0);
	}
	svg.railroad-diagram text {
		font:bold 14px monospace;
		text-anchor:middle;
	}
	svg.railroad-diagram text.arrow {
		font:bold 24px monospace;
		text-anchor:middle;
	}
	svg.railroad-diagram text.label{
		text-anchor:start;
	}
	svg.railroad-diagram text.comment{
		font:italic 12px monospace;
	}
	svg.railroad-diagram rect{
		stroke-width:2;
		stroke:black;
		fill:white;
	}

/* ]]> */
</style><g>
<path d="M20 21v20m10 -20v20m-10 -10h20"></path></g><path d="M40 31h10"></path><g class="non-terminal">
<path d="M50 31h0"></path><path d="M104.0 31h0.0"></path><rect height="22" width="54.0" x="50" y="20"></rect><text x="77.0" y="35">mcix</text></g><path d="M104.0 31h10"></path><g>
<path d="M114.0 31h0"></path><path d="M1468.5 31h0.0"></path><path d="M114.0 31h20"></path><g class="terminal">
<path d="M134.0 31h0"></path><path d="M188.0 31h1260.5"></path><rect height="22" rx="10" ry="10" width="54.0" x="134.0" y="20"></rect><text x="161.0" y="35">help</text></g><path d="M1448.5 31h20"></path><path d="M114.0 31a10 10 0 0 1 10 10v10a10 10 0 0 0 10 10"></path><g>
<path d="M134.0 61h0"></path><path d="M1448.5 61h0.0"></path><g class="non-terminal">
<path d="M134.0 61h0"></path><path d="M205.0 61h0.0"></path><rect height="22" width="71.0" x="134.0" y="50"></rect><text x="169.5" y="65">remote</text></g><path d="M205.0 61h10"></path><g>
<path d="M215.0 61h0"></path><path d="M1448.5 61h0.0"></path><path d="M215.0 61h20"></path><g class="terminal">
<path d="M235.0 61h0"></path><path d="M289.0 61h1139.5"></path><rect height="22" rx="10" ry="10" width="54.0" x="235.0" y="50"></rect><text x="262.0" y="65">help</text></g><path d="M1428.5 61h20"></path><path d="M215.0 61a10 10 0 0 1 10 10v10a10 10 0 0 0 10 10"></path><g>
<path d="M235.0 91h0"></path><path d="M1428.5 91h0.0"></path><g class="non-terminal">
<path d="M235.0 91h0"></path><path d="M323.0 91h0.0"></path><rect height="22" width="88.0" x="235.0" y="80"></rect><text x="279.0" y="95">download</text></g><path d="M323.0 91h10"></path><g>
<path d="M333.0 91h0"></path><path d="M1428.5 91h0.0"></path><path d="M333.0 91h20"></path><g class="terminal">
<path d="M353.0 91h0"></path><path d="M407.0 91h1001.5"></path><rect height="22" rx="10" ry="10" width="54.0" x="353.0" y="80"></rect><text x="380.0" y="95">help</text></g><path d="M1408.5 91h20"></path><path d="M333.0 91a10 10 0 0 1 10 10v19a10 10 0 0 0 10 10"></path><g>
<path d="M353.0 130h0"></path><path d="M1408.5 130h0.0"></path><g>
<path d="M353.0 130h0"></path><path d="M780.0 130h0.0"></path><path d="M383.0 130h10"></path><g>
<path d="M393.0 130h0"></path><path d="M750.0 130h0.0"></path><g class="non-terminal">
<path d="M393.0 130h0"></path><path d="M455.5 130h0.0"></path><rect height="22" width="62.5" x="393.0" y="119"></rect><text x="424.25" y="134">-host</text></g><path d="M455.5 130h10"></path><path d="M465.5 130h10"></path><g class="terminal">
<path d="M475.5 130h0"></path><path d="M546.5 130h0.0"></path><rect height="22" rx="10" ry="10" width="71.0" x="475.5" y="119"></rect><text x="511.0" y="134">{host}</text></g><path d="M546.5 130h10"></path><g>
<path d="M556.5 130h0"></path><path d="M750.0 130h0.0"></path><path d="M556.5 130a10 10 0 0 0 10 -10v0a10 10 0 0 1 10 -10"></path><g>
<path d="M576.5 110h153.5"></path></g><path d="M730.0 110a10 10 0 0 1 10 10v0a10 10 0 0 0 10 10"></path><path d="M556.5 130h20"></path><g>
<path d="M576.5 130h0"></path><path d="M730.0 130h0.0"></path><g class="non-terminal">
<path d="M576.5 130h0"></path><path d="M639.0 130h0.0"></path><rect height="22" width="62.5" x="576.5" y="119"></rect><text x="607.75" y="134">-port</text></g><path d="M639.0 130h10"></path><path d="M649.0 130h10"></path><g class="terminal">
<path d="M659.0 130h0"></path><path d="M730.0 130h0.0"></path><rect height="22" rx="10" ry="10" width="71.0" x="659.0" y="119"></rect><text x="694.5" y="134">{port}</text></g></g><path d="M730.0 130h20"></path></g></g><path d="M750.0 130h10"></path><path d="M383.0 130v20a10 10 0 0 0 10 10"></path><g>
<path d="M393.0 160h0"></path><path d="M580.5 160h169.5"></path><g class="non-terminal">
<path d="M393.0 160h0"></path><path d="M489.5 160h0.0"></path><rect height="22" width="96.5" x="393.0" y="149"></rect><text x="441.25" y="164">-username</text></g><path d="M489.5 160h10"></path><path d="M499.5 160h10"></path><g class="terminal">
<path d="M509.5 160h0"></path><path d="M580.5 160h0.0"></path><rect height="22" rx="10" ry="10" width="71.0" x="509.5" y="149"></rect><text x="545.0" y="164">{user}</text></g></g><path d="M750.0 160a10 10 0 0 0 10 -10v-10"></path><path d="M383.0 130v50a10 10 0 0 0 10 10"></path><g>
<path d="M393.0 190h0"></path><path d="M563.5 190h186.5"></path><g class="non-terminal">
<path d="M393.0 190h0"></path><path d="M472.5 190h0.0"></path><rect height="22" width="79.5" x="393.0" y="179"></rect><text x="432.75" y="194">-source</text></g><path d="M472.5 190h10"></path><path d="M482.5 190h10"></path><g class="terminal">
<path d="M492.5 190h0"></path><path d="M563.5 190h0.0"></path><rect height="22" rx="10" ry="10" width="71.0" x="492.5" y="179"></rect><text x="528.0" y="194">{path}</text></g></g><path d="M750.0 190a10 10 0 0 0 10 -10v-40"></path><path d="M383.0 130v80a10 10 0 0 0 10 10"></path><g>
<path d="M393.0 220h0"></path><path d="M733.5 220h16.5"></path><g class="non-terminal">
<path d="M393.0 220h0"></path><path d="M549.0 220h0.0"></path><rect height="22" width="156.0" x="393.0" y="209"></rect><text x="471.0" y="224">-transferPattern</text></g><path d="M549.0 220h10"></path><path d="M559.0 220h10"></path><g class="terminal">
<path d="M569.0 220h0"></path><path d="M733.5 220h0.0"></path><rect height="22" rx="10" ry="10" width="164.5" x="569.0" y="209"></rect><text x="651.25" y="224">{transferPattern}</text></g></g><path d="M750.0 220a10 10 0 0 0 10 -10v-70"></path><g class="diagram-text">
<title>take all branches, once each, in any order</title><path class="diagram-text" d="M 383.0 120 h -26 a 4 4 0 0 0 -4 4 v 12 a 4 4 0 0 0 4 4 h 26 z"></path><text class="diagram-text" x="368.0" y="134">all</text><path class="diagram-text" d="M 760.0 120 h 16 a 4 4 0 0 1 4 4 v 12 a 4 4 0 0 1 -4 4 h -16 z"></path><text class="diagram-arrow" x="770.0" y="134">↺</text></g></g><path d="M780.0 130h10"></path><g>
<path d="M790.0 130h0"></path><path d="M1043.0 130h0.0"></path><path d="M790.0 130a10 10 0 0 0 10 -10v0a10 10 0 0 1 10 -10"></path><g>
<path d="M810.0 110h213.0"></path></g><path d="M1023.0 110a10 10 0 0 1 10 10v0a10 10 0 0 0 10 10"></path><path d="M790.0 130h20"></path><g>
<path d="M810.0 130h0"></path><path d="M1023.0 130h0.0"></path><g class="non-terminal">
<path d="M810.0 130h0"></path><path d="M932.0 130h0.0"></path><rect height="22" width="122.0" x="810.0" y="119"></rect><text x="871.0" y="134">-destination</text></g><path d="M932.0 130h10"></path><path d="M942.0 130h10"></path><g class="terminal">
<path d="M952.0 130h0"></path><path d="M1023.0 130h0.0"></path><rect height="22" rx="10" ry="10" width="71.0" x="952.0" y="119"></rect><text x="987.5" y="134">{path}</text></g></g><path d="M1023.0 130h20"></path></g><g>
<path d="M1043.0 130h0"></path><path d="M1408.5 130h0.0"></path><path d="M1043.0 130h20"></path><g>
<path d="M1063.0 130h0"></path><path d="M1284.5 130h104.0"></path><g class="non-terminal">
<path d="M1063.0 130h0"></path><path d="M1159.5 130h0.0"></path><rect height="22" width="96.5" x="1063.0" y="119"></rect><text x="1111.25" y="134">-password</text></g><path d="M1159.5 130h10"></path><path d="M1169.5 130h10"></path><g class="terminal">
<path d="M1179.5 130h0"></path><path d="M1284.5 130h0.0"></path><rect height="22" rx="10" ry="10" width="105.0" x="1179.5" y="119"></rect><text x="1232.0" y="134">{password}</text></g></g><path d="M1388.5 130h20"></path><path d="M1043.0 130a10 10 0 0 1 10 10v10a10 10 0 0 0 10 10"></path><g>
<path d="M1063.0 160h0"></path><path d="M1388.5 160h0.0"></path><path d="M1093.0 160h10"></path><g>
<path d="M1103.0 160h0"></path><path d="M1299.0 160h59.5"></path><g class="non-terminal">
<path d="M1103.0 160h0"></path><path d="M1216.5 160h0.0"></path><rect height="22" width="113.5" x="1103.0" y="149"></rect><text x="1159.75" y="164">-privateKey</text></g><path d="M1216.5 160h10"></path><path d="M1226.5 160h10"></path><g class="terminal">
<path d="M1236.5 160h0"></path><path d="M1299.0 160h0.0"></path><rect height="22" rx="10" ry="10" width="62.5" x="1236.5" y="149"></rect><text x="1267.75" y="164">{key}</text></g></g><path d="M1358.5 160h10"></path><path d="M1093.0 160v20a10 10 0 0 0 10 10"></path><g>
<path d="M1103.0 190h0"></path><path d="M1358.5 190h0.0"></path><g class="non-terminal">
<path d="M1103.0 190h0"></path><path d="M1216.5 190h0.0"></path><rect height="22" width="113.5" x="1103.0" y="179"></rect><text x="1159.75" y="194">-passphrase</text></g><path d="M1216.5 190h10"></path><path d="M1226.5 190h10"></path><g class="terminal">
<path d="M1236.5 190h0"></path><path d="M1358.5 190h0.0"></path><rect height="22" rx="10" ry="10" width="122.0" x="1236.5" y="179"></rect><text x="1297.5" y="194">{passphrase}</text></g></g><path d="M1358.5 190a10 10 0 0 0 10 -10v-10"></path><g class="diagram-text">
<title>take all branches, once each, in any order</title><path class="diagram-text" d="M 1093.0 150 h -26 a 4 4 0 0 0 -4 4 v 12 a 4 4 0 0 0 4 4 h 26 z"></path><text class="diagram-text" x="1078.0" y="164">all</text><path class="diagram-text" d="M 1368.5 150 h 16 a 4 4 0 0 1 4 4 v 12 a 4 4 0 0 1 -4 4 h -16 z"></path><text class="diagram-arrow" x="1378.5" y="164">↺</text></g></g><path d="M1388.5 160a10 10 0 0 0 10 -10v-10a10 10 0 0 1 10 -10"></path></g></g><path d="M1408.5 130a10 10 0 0 0 10 -10v-19a10 10 0 0 1 10 -10"></path></g></g><path d="M1428.5 91a10 10 0 0 0 10 -10v-10a10 10 0 0 1 10 -10"></path></g></g><path d="M1448.5 61a10 10 0 0 0 10 -10v-10a10 10 0 0 1 10 -10"></path></g><path d="M 1468.5 31 h 20 m -10 -10 v 20 m 10 -20 v 20"></path></g></svg>