<svg class="railroad-diagram" height="202" viewBox="0 0 999.0 202" width="999.0" xmlns="http://www.w3.org/2000/svg" xmlns:xlink="http://www.w3.org/1999/xlink">
<g>
<style>/* <![CDATA[ */
	svg.railroad-diagram {
		background-color: white;
	}
	svg.railroad-diagram path {
		stroke-width:2;
		stroke:black;
		fill: rgba(255, 255, 255, 1.0);
	}
	svg.railroad-diagram text {
		font:bold 14px monospace;
		text-anchor:middle;
	}
	svg.railroad-diagram text.arrow {
		font:bold 24px monospace;
		text-anchor:middle;
	}
	svg.railroad-diagram text.label{
		text-anchor:start;
	}
	svg.railroad-diagram text.comment{
		font:italic 12px monospace;
	}
	svg.railroad-diagram rect{
		stroke-width:2;
		stroke:black;
		fill:white;
	}

/* ]]> */
</style><g>
<path d="M20 21v20m10 -20v20m-10 -10h20"></path></g><path d="M40 31h10"></path><g class="non-terminal">
<path d="M50 31h0"></path><path d="M104.0 31h0.0"></path><rect height="22" width="54.0" x="50" y="20"></rect><text x="77.0" y="35">mcix</text></g><path d="M104.0 31h10"></path><g>
<path d="M114.0 31h0"></path><path d="M959.0 31h0.0"></path><path d="M114.0 31h20"></path><g class="terminal">
<path d="M134.0 31h0"></path><path d="M188.0 31h751.0"></path><rect height="22" rx="10" ry="10" width="54.0" x="134.0" y="20"></rect><text x="161.0" y="35">help</text></g><path d="M939.0 31h20"></path><path d="M114.0 31a10 10 0 0 1 10 10v10a10 10 0 0 0 10 10"></path><g>
<path d="M134.0 61h0"></path><path d="M939.0 61h0.0"></path><g class="non-terminal">
<path d="M134.0 61h0"></path><path d="M222.0 61h0.0"></path><rect height="22" width="88.0" x="134.0" y="50"></rect><text x="178.0" y="65">unittest</text></g><path d="M222.0 61h10"></path><g>
<path d="M232.0 61h0"></path><path d="M939.0 61h0.0"></path><path d="M232.0 61h20"></path><g class="terminal">
<path d="M252.0 61h0"></path><path d="M306.0 61h613.0"></path><rect height="22" rx="10" ry="10" width="54.0" x="252.0" y="50"></rect><text x="279.0" y="65">help</text></g><path d="M919.0 61h20"></path><path d="M232.0 61a10 10 0 0 1 10 10v10a10 10 0 0 0 10 10"></path><g>
<path d="M252.0 91h0"></path><path d="M919.0 91h0.0"></path><g class="non-terminal">
<path d="M252.0 91h0"></path><path d="M340.0 91h0.0"></path><rect height="22" width="88.0" x="252.0" y="80"></rect><text x="296.0" y="95">generate</text></g><path d="M340.0 91h10"></path><g>
<path d="M350.0 91h0"></path><path d="M919.0 91h0.0"></path><path d="M350.0 91h20"></path><g class="terminal">
<path d="M370.0 91h0"></path><path d="M424.0 91h475.0"></path><rect height="22" rx="10" ry="10" width="54.0" x="370.0" y="80"></rect><text x="397.0" y="95">help</text></g><path d="M899.0 91h20"></path><path d="M350.0 91a10 10 0 0 1 10 10v10a10 10 0 0 0 10 10"></path><g>
<path d="M370.0 121h0"></path><path d="M899.0 121h0.0"></path><g>
<path d="M370.0 121h0"></path><path d="M610.5 121h0.0"></path><path d="M400.0 121h10"></path><g>
<path d="M410.0 121h0"></path><path d="M572.0 121h8.5"></path><g class="non-terminal">
<path d="M410.0 121h0"></path><path d="M481.0 121h0.0"></path><rect height="22" width="71.0" x="410.0" y="110"></rect><text x="445.5" y="125">-specs</text></g><path d="M481.0 121h10"></path><path d="M491.0 121h10"></path><g class="terminal">
<path d="M501.0 121h0"></path><path d="M572.0 121h0.0"></path><rect height="22" rx="10" ry="10" width="71.0" x="501.0" y="110"></rect><text x="536.5" y="125">{path}</text></g></g><path d="M580.5 121h10"></path><path d="M400.0 121v20a10 10 0 0 0 10 10"></path><g>
<path d="M410.0 151h0"></path><path d="M580.5 151h0.0"></path><g class="non-terminal">
<path d="M410.0 151h0"></path><path d="M489.5 151h0.0"></path><rect height="22" width="79.5" x="410.0" y="140"></rect><text x="449.75" y="155">-assets</text></g><path d="M489.5 151h10"></path><path d="M499.5 151h10"></path><g class="terminal">
<path d="M509.5 151h0"></path><path d="M580.5 151h0.0"></path><rect height="22" rx="10" ry="10" width="71.0" x="509.5" y="140"></rect><text x="545.0" y="155">{path}</text></g></g><path d="M580.5 151a10 10 0 0 0 10 -10v-10"></path><g class="diagram-text">
<title>take all branches, once each, in any order</title><path class="diagram-text" d="M 400.0 111 h -26 a 4 4 0 0 0 -4 4 v 12 a 4 4 0 0 0 4 4 h 26 z"></path><text class="diagram-text" x="385.0" y="125">all</text><path class="diagram-text" d="M 590.5 111 h 16 a 4 4 0 0 1 4 4 v 12 a 4 4 0 0 1 -4 4 h -16 z"></path><text class="diagram-arrow" x="600.5" y="125">↺</text></g></g><path d="M610.5 121h10"></path><path d="M620.5 121h10"></path><g>
<path d="M630.5 121h0"></path><path d="M899.0 121h0.0"></path><path d="M660.5 121h10"></path><g>
<path d="M670.5 121h0"></path><path d="M670.5 121h198.5"></path><g>
<path d="M670.5 121h0"></path></g></g><path d="M869.0 121h10"></path><path d="M660.5 121v10a10 10 0 0 0 10 10"></path><g>
<path d="M670.5 141h0"></path><path d="M849.5 141h19.5"></path><g class="non-terminal">
<path d="M670.5 141h0"></path><path d="M758.5 141h0.0"></path><rect height="22" width="88.0" x="670.5" y="130"></rect><text x="714.5" y="145">-joblist</text></g><path d="M758.5 141h10"></path><path d="M768.5 141h10"></path><g class="terminal">
<path d="M778.5 141h0"></path><path d="M849.5 141h0.0"></path><rect height="22" rx="10" ry="10" width="71.0" x="778.5" y="130"></rect><text x="814.0" y="145">{path}</text></g></g><path d="M869.0 141a10 10 0 0 0 10 -10v0"></path><path d="M660.5 121v40a10 10 0 0 0 10 10"></path><g class="non-terminal">
<path d="M670.5 171h0"></path><path d="M869.0 171h0.0"></path><rect height="22" width="198.5" x="670.5" y="160"></rect><text x="769.75" y="175">-check-row-count-only</text></g><path d="M869.0 171a10 10 0 0 0 10 -10v-30"></path><g class="diagram-text">
<title>take one or more branches, once each, in any order</title><path class="diagram-text" d="M 660.5 111 h -26 a 4 4 0 0 0 -4 4 v 12 a 4 4 0 0 0 4 4 h 26 z"></path><text class="diagram-text" x="645.5" y="125">1+</text><path class="diagram-text" d="M 879.0 111 h 16 a 4 4 0 0 1 4 4 v 12 a 4 4 0 0 1 -4 4 h -16 z"></path><text class="diagram-arrow" x="889.0" y="125">↺</text></g></g></g><path d="M899.0 121a10 10 0 0 0 10 -10v-10a10 10 0 0 1 10 -10"></path></g></g><path d="M919.0 91a10 10 0 0 0 10 -10v-10a10 10 0 0 1 10 -10"></path></g></g><path d="M939.0 61a10 10 0 0 0 10 -10v-10a10 10 0 0 1 10 -10"></path></g><path d="M 959.0 31 h 20 m -10 -10 v 20 m 10 -20 v 20"></path></g></svg>