<svg class="railroad-diagram" height="272" viewBox="0 0 1132.5 272" width="1132.5" xmlns="http://www.w3.org/2000/svg" xmlns:xlink="http://www.w3.org/1999/xlink">
<g>
<style>/* <![CDATA[ */
	svg.railroad-diagram {
		background-color: white;
	}
	svg.railroad-diagram path {
		stroke-width:2;
		stroke:black;
		fill: rgba(255, 255, 255, 1.0);
	}
	svg.railroad-diagram text {
		font:bold 14px monospace;
		text-anchor:middle;
	}
	svg.railroad-diagram text.arrow {
		font:bold 24px monospace;
		text-anchor:middle;
	}
	svg.railroad-diagram text.label{
		text-anchor:start;
	}
	svg.railroad-diagram text.comment{
		font:italic 12px monospace;
	}
	svg.railroad-diagram rect{
		stroke-width:2;
		stroke:black;
		fill:white;
	}

/* ]]> */
</style><g>
<path d="M20 21v20m10 -20v20m-10 -10h20"></path></g><path d="M40 31h10"></path><g class="non-terminal">
<path d="M50 31h0"></path><path d="M104.0 31h0.0"></path><rect height="22" width="54.0" x="50" y="20"></rect><text x="77.0" y="35">mcix</text></g><path d="M104.0 31h10"></path><g>
<path d="M114.0 31h0"></path><path d="M1092.5 31h0.0"></path><path d="M114.0 31h20"></path><g class="terminal">
<path d="M134.0 31h0"></path><path d="M188.0 31h884.5"></path><rect height="22" rx="10" ry="10" width="54.0" x="134.0" y="20"></rect><text x="161.0" y="35">help</text></g><path d="M1072.5 31h20"></path><path d="M114.0 31a10 10 0 0 1 10 10v10a10 10 0 0 0 10 10"></path><g>
<path d="M134.0 61h0"></path><path d="M1072.5 61h0.0"></path><g class="non-terminal">
<path d="M134.0 61h0"></path><path d="M222.0 61h0.0"></path><rect height="22" width="88.0" x="134.0" y="50"></rect><text x="178.0" y="65">unittest</text></g><path d="M222.0 61h10"></path><g>
<path d="M232.0 61h0"></path><path d="M1072.5 61h0.0"></path><path d="M232.0 61h20"></path><g class="terminal">
<path d="M252.0 61h0"></path><path d="M306.0 61h746.5"></path><rect height="22" rx="10" ry="10" width="54.0" x="252.0" y="50"></rect><text x="279.0" y="65">help</text></g><path d="M1052.5 61h20"></path><path d="M232.0 61a10 10 0 0 1 10 10v10a10 10 0 0 0 10 10"></path><g>
<path d="M252.0 91h0"></path><path d="M1052.5 91h0.0"></path><g class="non-terminal">
<path d="M252.0 91h0"></path><path d="M331.5 91h0.0"></path><rect height="22" width="79.5" x="252.0" y="80"></rect><text x="291.75" y="95">migrate</text></g><path d="M331.5 91h10"></path><g>
<path d="M341.5 91h0"></path><path d="M1052.5 91h0.0"></path><path d="M341.5 91h20"></path><g class="terminal">
<path d="M361.5 91h0"></path><path d="M415.5 91h617.0"></path><rect height="22" rx="10" ry="10" width="54.0" x="361.5" y="80"></rect><text x="388.5" y="95">help</text></g><path d="M1032.5 91h20"></path><path d="M341.5 91a10 10 0 0 1 10 10v10a10 10 0 0 0 10 10"></path><g>
<path d="M361.5 121h0"></path><path d="M1032.5 121h0.0"></path><g>
<path d="M361.5 121h0"></path><path d="M695.5 121h0.0"></path><path d="M391.5 121h10"></path><g>
<path d="M401.5 121h0"></path><path d="M538.0 121h127.5"></path><g class="non-terminal">
<path d="M401.5 121h0"></path><path d="M455.5 121h0.0"></path><rect height="22" width="54.0" x="401.5" y="110"></rect><text x="428.5" y="125">-url</text></g><path d="M455.5 121h10"></path><path d="M465.5 121h10"></path><g class="terminal">
<path d="M475.5 121h0"></path><path d="M538.0 121h0.0"></path><rect height="22" rx="10" ry="10" width="62.5" x="475.5" y="110"></rect><text x="506.75" y="125">{url}</text></g></g><path d="M665.5 121h10"></path><path d="M391.5 121v20a10 10 0 0 0 10 10"></path><g>
<path d="M401.5 151h0"></path><path d="M589.0 151h76.5"></path><g class="non-terminal">
<path d="M401.5 151h0"></path><path d="M464.0 151h0.0"></path><rect height="22" width="62.5" x="401.5" y="140"></rect><text x="432.75" y="155">-user</text></g><path d="M464.0 151h10"></path><path d="M474.0 151h10"></path><g class="terminal">
<path d="M484.0 151h0"></path><path d="M589.0 151h0.0"></path><rect height="22" rx="10" ry="10" width="105.0" x="484.0" y="140"></rect><text x="536.5" y="155">{username}</text></g></g><path d="M665.5 151a10 10 0 0 0 10 -10v-10"></path><path d="M391.5 121v50a10 10 0 0 0 10 10"></path><g>
<path d="M401.5 181h0"></path><path d="M597.5 181h68.0"></path><g class="non-terminal">
<path d="M401.5 181h0"></path><path d="M489.5 181h0.0"></path><rect height="22" width="88.0" x="401.5" y="170"></rect><text x="445.5" y="185">-api-key</text></g><path d="M489.5 181h10"></path><path d="M499.5 181h10"></path><g class="terminal">
<path d="M509.5 181h0"></path><path d="M597.5 181h0.0"></path><rect height="22" rx="10" ry="10" width="88.0" x="509.5" y="170"></rect><text x="553.5" y="185">{apikey}</text></g></g><path d="M665.5 181a10 10 0 0 0 10 -10v-40"></path><path d="M391.5 121v80a10 10 0 0 0 10 10"></path><g>
<path d="M401.5 211h0"></path><path d="M563.5 211h102.0"></path><g class="non-terminal">
<path d="M401.5 211h0"></path><path d="M472.5 211h0.0"></path><rect height="22" width="71.0" x="401.5" y="200"></rect><text x="437.0" y="215">-specs</text></g><path d="M472.5 211h10"></path><path d="M482.5 211h10"></path><g class="terminal">
<path d="M492.5 211h0"></path><path d="M563.5 211h0.0"></path><rect height="22" rx="10" ry="10" width="71.0" x="492.5" y="200"></rect><text x="528.0" y="215">{path}</text></g></g><path d="M665.5 211a10 10 0 0 0 10 -10v-70"></path><path d="M391.5 121v110a10 10 0 0 0 10 10"></path><g>
<path d="M401.5 241h0"></path><path d="M665.5 241h0.0"></path><g class="non-terminal">
<path d="M401.5 241h0"></path><path d="M574.5 241h0.0"></path><rect height="22" width="173.0" x="401.5" y="230"></rect><text x="488.0" y="245">-test-data-archive</text></g><path d="M574.5 241h10"></path><path d="M584.5 241h10"></path><g class="terminal">
<path d="M594.5 241h0"></path><path d="M665.5 241h0.0"></path><rect height="22" rx="10" ry="10" width="71.0" x="594.5" y="230"></rect><text x="630.0" y="245">{path}</text></g></g><path d="M665.5 241a10 10 0 0 0 10 -10v-100"></path><g class="diagram-text">
<title>take all branches, once each, in any order</title><path class="diagram-text" d="M 391.5 111 h -26 a 4 4 0 0 0 -4 4 v 12 a 4 4 0 0 0 4 4 h 26 z"></path><text class="diagram-text" x="376.5" y="125">all</text><path class="diagram-text" d="M 675.5 111 h 16 a 4 4 0 0 1 4 4 v 12 a 4 4 0 0 1 -4 4 h -16 z"></path><text class="diagram-arrow" x="685.5" y="125">↺</text></g></g><path d="M695.5 121h10"></path><path d="M705.5 121h10"></path><g>
<path d="M715.5 121h0"></path><path d="M1032.5 121h0.0"></path><path d="M745.5 121h10"></path><g>
<path d="M755.5 121h0"></path><path d="M755.5 121h247.0"></path><g>
<path d="M755.5 121h0"></path></g></g><path d="M1002.5 121h10"></path><path d="M745.5 121v10a10 10 0 0 0 10 10"></path><g>
<path d="M755.5 141h0"></path><path d="M1002.5 141h0.0"></path><g class="non-terminal">
<path d="M755.5 141h0"></path><path d="M869.0 141h0.0"></path><rect height="22" width="113.5" x="755.5" y="130"></rect><text x="812.25" y="145">-project-id</text></g><path d="M869.0 141h10"></path><path d="M879.0 141h10"></path><g class="terminal">
<path d="M889.0 141h0"></path><path d="M1002.5 141h0.0"></path><rect height="22" rx="10" ry="10" width="113.5" x="889.0" y="130"></rect><text x="945.75" y="145">{projectid}</text></g></g><path d="M1002.5 141a10 10 0 0 0 10 -10v0"></path><path d="M745.5 121v40a10 10 0 0 0 10 10"></path><g>
<path d="M755.5 171h0"></path><path d="M994.0 171h8.5"></path><g class="non-terminal">
<path d="M755.5 171h0"></path><path d="M843.5 171h0.0"></path><rect height="22" width="88.0" x="755.5" y="160"></rect><text x="799.5" y="175">-project</text></g><path d="M843.5 171h10"></path><path d="M853.5 171h10"></path><g class="terminal">
<path d="M863.5 171h0"></path><path d="M994.0 171h0.0"></path><rect height="22" rx="10" ry="10" width="130.5" x="863.5" y="160"></rect><text x="928.75" y="175">{projectname}</text></g></g><path d="M1002.5 171a10 10 0 0 0 10 -10v-30"></path><g class="diagram-text">
<title>take one or more branches, once each, in any order</title><path class="diagram-text" d="M 745.5 111 h -26 a 4 4 0 0 0 -4 4 v 12 a 4 4 0 0 0 4 4 h 26 z"></path><text class="diagram-text" x="730.5" y="125">1+</text><path class="diagram-text" d="M 1012.5 111 h 16 a 4 4 0 0 1 4 4 v 12 a 4 4 0 0 1 -4 4 h -16 z"></path><text class="diagram-arrow" x="1022.5" y="125">↺</text></g></g></g><path d="M1032.5 121a10 10 0 0 0 10 -10v-10a10 10 0 0 1 10 -10"></path></g></g><path d="M1052.5 91a10 10 0 0 0 10 -10v-10a10 10 0 0 1 10 -10"></path></g></g><path d="M1072.5 61a10 10 0 0 0 10 -10v-10a10 10 0 0 1 10 -10"></path></g><path d="M 1092.5 31 h 20 m -10 -10 v 20 m 10 -20 v 20"></path></g></svg>