<svg class="railroad-diagram" height="202" viewBox="0 0 1150.5 202" width="1150.5" xmlns="http://www.w3.org/2000/svg" xmlns:xlink="http://www.w3.org/1999/xlink">
<g>
<style>/* <![CDATA[ */
	svg.railroad-diagram {
		background-color: white;
	}
	svg.railroad-diagram path {
		stroke-width:2;
		stroke:black;
		fill: rgba(255, 255, 255, 1.0);
	}
	svg.railroad-diagram text {
		font:bold 14px monospace;
		text-anchor:middle;
	}
	svg.railroad-diagram text.arrow {
		font:bold 24px monospace;
		text-anchor:middle;
	}
	svg.railroad-diagram text.label{
		text-anchor:start;
	}
	svg.railroad-diagram text.comment{
		font:italic 12px monospace;
	}
	svg.railroad-diagram rect{
		stroke-width:2;
		stroke:black;
		fill:white;
	}

/* ]]> */
</style><g>
<path d="M20 21v20m10 -20v20m-10 -10h20"></path></g><path d="M40 31h10"></path><g class="non-terminal">
<path d="M50 31h0"></path><path d="M104.0 31h0.0"></path><rect height="22" width="54.0" x="50" y="20"></rect><text x="77.0" y="35">mcix</text></g><path d="M104.0 31h10"></path><g>
<path d="M114.0 31h0"></path><path d="M1110.5 31h0.0"></path><path d="M114.0 31h20"></path><g class="terminal">
<path d="M134.0 31h0"></path><path d="M188.0 31h902.5"></path><rect height="22" rx="10" ry="10" width="54.0" x="134.0" y="20"></rect><text x="161.0" y="35">help</text></g><path d="M1090.5 31h20"></path><path d="M114.0 31a10 10 0 0 1 10 10v10a10 10 0 0 0 10 10"></path><g>
<path d="M134.0 61h0"></path><path d="M1090.5 61h0.0"></path><g class="non-terminal">
<path d="M134.0 61h0"></path><path d="M239.0 61h0.0"></path><rect height="22" width="105.0" x="134.0" y="50"></rect><text x="186.5" y="65">compliance</text></g><path d="M239.0 61h10"></path><g>
<path d="M249.0 61h0"></path><path d="M1090.5 61h0.0"></path><path d="M249.0 61h20"></path><g class="terminal">
<path d="M269.0 61h0"></path><path d="M323.0 61h747.5"></path><rect height="22" rx="10" ry="10" width="54.0" x="269.0" y="50"></rect><text x="296.0" y="65">help</text></g><path d="M1070.5 61h20"></path><path d="M249.0 61a10 10 0 0 1 10 10v10a10 10 0 0 0 10 10"></path><g>
<path d="M269.0 91h0"></path><path d="M1070.5 91h0.0"></path><g class="non-terminal">
<path d="M269.0 91h0"></path><path d="M365.5 91h0.0"></path><rect height="22" width="96.5" x="269.0" y="80"></rect><text x="317.25" y="95">list-tags</text></g><path d="M365.5 91h10"></path><g>
<path d="M375.5 91h0"></path><path d="M1070.5 91h0.0"></path><path d="M375.5 91h20"></path><g class="terminal">
<path d="M395.5 91h0"></path><path d="M449.5 91h601.0"></path><rect height="22" rx="10" ry="10" width="54.0" x="395.5" y="80"></rect><text x="422.5" y="95">help</text></g><path d="M1050.5 91h20"></path><path d="M375.5 91a10 10 0 0 1 10 10v10a10 10 0 0 0 10 10"></path><g>
<path d="M395.5 121h0"></path><path d="M1050.5 121h0.0"></path><g>
<path d="M395.5 121h0"></path><path d="M801.5 121h0.0"></path><path d="M395.5 121h20"></path><g>
<path d="M415.5 121h0"></path><path d="M781.5 121h0.0"></path><g class="non-terminal">
<path d="M415.5 121h0"></path><path d="M486.5 121h0.0"></path><rect height="22" width="71.0" x="415.5" y="110"></rect><text x="451.0" y="125">-rules</text></g><path d="M486.5 121h10"></path><path d="M496.5 121h10"></path><g class="terminal">
<path d="M506.5 121h0"></path><path d="M781.5 121h0.0"></path><rect height="22" rx="10" ry="10" width="275.0" x="506.5" y="110"></rect><text x="644.0" y="125">{location of compliance rules}</text></g></g><path d="M781.5 121h20"></path><path d="M395.5 121a10 10 0 0 1 10 10v10a10 10 0 0 0 10 10"></path><g>
<path d="M415.5 151h0"></path><path d="M773.0 151h8.5"></path><g class="non-terminal">
<path d="M415.5 151h0"></path><path d="M503.5 151h0.0"></path><rect height="22" width="88.0" x="415.5" y="140"></rect><text x="459.5" y="155">-queries</text></g><path d="M503.5 151h10"></path><path d="M513.5 151h10"></path><g class="terminal">
<path d="M523.5 151h0"></path><path d="M773.0 151h0.0"></path><rect height="22" rx="10" ry="10" width="249.5" x="523.5" y="140"></rect><text x="648.25" y="155">{location of asset queries}</text></g></g><path d="M781.5 151a10 10 0 0 0 10 -10v-10a10 10 0 0 1 10 -10"></path></g><g>
<path d="M801.5 121h0"></path><path d="M1050.5 121h0.0"></path><path d="M801.5 121h20"></path><g>
<path d="M821.5 121h209.0"></path></g><path d="M1030.5 121h20"></path><path d="M801.5 121a10 10 0 0 1 10 10v0a10 10 0 0 0 10 10"></path><g>
<path d="M821.5 141h0"></path><path d="M1030.5 141h0.0"></path><g class="non-terminal">
<path d="M821.5 141h0"></path><path d="M901.0 141h0.0"></path><rect height="22" width="79.5" x="821.5" y="130"></rect><text x="861.25" y="145">-format</text></g><path d="M901.0 141h10"></path><g>
<path d="M911.0 141h0"></path><path d="M1030.5 141h0.0"></path><path d="M911.0 141h20"></path><g class="terminal">
<path d="M931.0 141h0"></path><path d="M1010.5 141h0.0"></path><rect height="22" rx="10" ry="10" width="79.5" x="931.0" y="130"></rect><text x="970.75" y="145">tabular</text></g><path d="M1010.5 141h20"></path><path d="M911.0 141a10 10 0 0 1 10 10v10a10 10 0 0 0 10 10"></path><g class="terminal">
<path d="M931.0 171h0"></path><path d="M976.5 171h34.0"></path><rect height="22" rx="10" ry="10" width="45.5" x="931.0" y="160"></rect><text x="953.75" y="175">csv</text></g><path d="M1010.5 171a10 10 0 0 0 10 -10v-10a10 10 0 0 1 10 -10"></path></g></g><path d="M1030.5 141a10 10 0 0 0 10 -10v0a10 10 0 0 1 10 -10"></path></g></g><path d="M1050.5 121a10 10 0 0 0 10 -10v-10a10 10 0 0 1 10 -10"></path></g></g><path d="M1070.5 91a10 10 0 0 0 10 -10v-10a10 10 0 0 1 10 -10"></path></g></g><path d="M1090.5 61a10 10 0 0 0 10 -10v-10a10 10 0 0 1 10 -10"></path></g><path d="M 1110.5 31 h 20 m -10 -10 v 20 m 10 -20 v 20"></path></g></svg>