<svg class="railroad-diagram" height="152" viewBox="0 0 972.0 152" width="972.0" xmlns="http://www.w3.org/2000/svg" xmlns:xlink="http://www.w3.org/1999/xlink">
<g>
<style>/* <![CDATA[ */
	svg.railroad-diagram {
		background-color: white;
	}
	svg.railroad-diagram path {
		stroke-width:2;
		stroke:black;
		fill: rgba(255, 255, 255, 1.0);
	}
	svg.railroad-diagram text {
		font:bold 14px monospace;
		text-anchor:middle;
	}
	svg.railroad-diagram text.arrow {
		font:bold 24px monospace;
		text-anchor:middle;
	}
	svg.railroad-diagram text.label{
		text-anchor:start;
	}
	svg.railroad-diagram text.comment{
		font:italic 12px monospace;
	}
	svg.railroad-diagram rect{
		stroke-width:2;
		stroke:black;
		fill:white;
	}

/* ]]> */
</style><g>
<path d="M20 21v20m10 -20v20m-10 -10h20"></path></g><path d="M40 31h10"></path><g class="non-terminal">
<path d="M50 31h0"></path><path d="M104.0 31h0.0"></path><rect height="22" width="54.0" x="50" y="20"></rect><text x="77.0" y="35">mcix</text></g><path d="M104.0 31h10"></path><g>
<path d="M114.0 31h0"></path><path d="M932.0 31h0.0"></path><path d="M114.0 31h20"></path><g class="terminal">
<path d="M134.0 31h0"></path><path d="M188.0 31h724.0"></path><rect height="22" rx="10" ry="10" width="54.0" x="134.0" y="20"></rect><text x="161.0" y="35">help</text></g><path d="M912.0 31h20"></path><path d="M114.0 31a10 10 0 0 1 10 10v10a10 10 0 0 0 10 10"></path><g>
<path d="M134.0 61h0"></path><path d="M912.0 61h0.0"></path><g class="non-terminal">
<path d="M134.0 61h0"></path><path d="M239.0 61h0.0"></path><rect height="22" width="105.0" x="134.0" y="50"></rect><text x="186.5" y="65">compliance</text></g><path d="M239.0 61h10"></path><g>
<path d="M249.0 61h0"></path><path d="M912.0 61h0.0"></path><path d="M249.0 61h20"></path><g class="terminal">
<path d="M269.0 61h0"></path><path d="M323.0 61h569.0"></path><rect height="22" rx="10" ry="10" width="54.0" x="269.0" y="50"></rect><text x="296.0" y="65">help</text></g><path d="M892.0 61h20"></path><path d="M249.0 61a10 10 0 0 1 10 10v10a10 10 0 0 0 10 10"></path><g>
<path d="M269.0 91h0"></path><path d="M892.0 91h0.0"></path><g class="non-terminal">
<path d="M269.0 91h0"></path><path d="M348.5 91h0.0"></path><rect height="22" width="79.5" x="269.0" y="80"></rect><text x="308.75" y="95">console</text></g><path d="M348.5 91h10"></path><g>
<path d="M358.5 91h0"></path><path d="M892.0 91h0.0"></path><path d="M358.5 91h20"></path><g class="terminal">
<path d="M378.5 91h0"></path><path d="M432.5 91h439.5"></path><rect height="22" rx="10" ry="10" width="54.0" x="378.5" y="80"></rect><text x="405.5" y="95">help</text></g><path d="M872.0 91h20"></path><path d="M358.5 91a10 10 0 0 1 10 10v10a10 10 0 0 0 10 10"></path><g>
<path d="M378.5 121h0"></path><path d="M872.0 121h0.0"></path><g class="non-terminal">
<path d="M378.5 121h0"></path><path d="M458.0 121h0.0"></path><rect height="22" width="79.5" x="378.5" y="110"></rect><text x="418.25" y="125">-assets</text></g><path d="M458.0 121h10"></path><path d="M468.0 121h10"></path><g class="terminal">
<path d="M478.0 121h0"></path><path d="M872.0 121h0.0"></path><rect height="22" rx="10" ry="10" width="394.0" x="478.0" y="110"></rect><text x="675.0" y="125">{Directory or Zip containing project export}</text></g></g><path d="M872.0 121a10 10 0 0 0 10 -10v-10a10 10 0 0 1 10 -10"></path></g></g><path d="M892.0 91a10 10 0 0 0 10 -10v-10a10 10 0 0 1 10 -10"></path></g></g><path d="M912.0 61a10 10 0 0 0 10 -10v-10a10 10 0 0 1 10 -10"></path></g><path d="M 932.0 31 h 20 m -10 -10 v 20 m 10 -20 v 20"></path></g></svg>