<svg class="railroad-diagram" height="332" viewBox="0 0 1141.0 332" width="1141.0" xmlns="http://www.w3.org/2000/svg" xmlns:xlink="http://www.w3.org/1999/xlink">
<g>
<style>/* <![CDATA[ */
	svg.railroad-diagram {
		background-color: white;
	}
	svg.railroad-diagram path {
		stroke-width:2;
		stroke:black;
		fill: rgba(255, 255, 255, 1.0);
	}
	svg.railroad-diagram text {
		font:bold 14px monospace;
		text-anchor:middle;
	}
	svg.railroad-diagram text.arrow {
		font:bold 24px monospace;
		text-anchor:middle;
	}
	svg.railroad-diagram text.label{
		text-anchor:start;
	}
	svg.railroad-diagram text.comment{
		font:italic 12px monospace;
	}
	svg.railroad-diagram rect{
		stroke-width:2;
		stroke:black;
		fill:white;
	}

/* ]]> */
</style><g>
<path d="M20 21v20m10 -20v20m-10 -10h20"></path></g><path d="M40 31h10"></path><g class="non-terminal">
<path d="M50 31h0"></path><path d="M104.0 31h0.0"></path><rect height="22" width="54.0" x="50" y="20"></rect><text x="77.0" y="35">mcix</text></g><path d="M104.0 31h10"></path><g>
<path d="M114.0 31h0"></path><path d="M1101.0 31h0.0"></path><path d="M114.0 31h20"></path><g class="terminal">
<path d="M134.0 31h0"></path><path d="M188.0 31h893.0"></path><rect height="22" rx="10" ry="10" width="54.0" x="134.0" y="20"></rect><text x="161.0" y="35">help</text></g><path d="M1081.0 31h20"></path><path d="M114.0 31a10 10 0 0 1 10 10v10a10 10 0 0 0 10 10"></path><g>
<path d="M134.0 61h0"></path><path d="M1081.0 61h0.0"></path><g class="non-terminal">
<path d="M134.0 61h0"></path><path d="M230.5 61h0.0"></path><rect height="22" width="96.5" x="134.0" y="50"></rect><text x="182.25" y="65">datastage</text></g><path d="M230.5 61h10"></path><g>
<path d="M240.5 61h0"></path><path d="M1081.0 61h0.0"></path><path d="M240.5 61h20"></path><g class="terminal">
<path d="M260.5 61h0"></path><path d="M314.5 61h746.5"></path><rect height="22" rx="10" ry="10" width="54.0" x="260.5" y="50"></rect><text x="287.5" y="65">help</text></g><path d="M1061.0 61h20"></path><path d="M240.5 61a10 10 0 0 1 10 10v10a10 10 0 0 0 10 10"></path><g>
<path d="M260.5 91h0"></path><path d="M1061.0 91h0.0"></path><g class="non-terminal">
<path d="M260.5 91h0"></path><path d="M314.5 91h0.0"></path><rect height="22" width="54.0" x="260.5" y="80"></rect><text x="287.5" y="95">ccmt</text></g><path d="M314.5 91h10"></path><g>
<path d="M324.5 91h0"></path><path d="M1061.0 91h0.0"></path><path d="M324.5 91h20"></path><g class="terminal">
<path d="M344.5 91h0"></path><path d="M398.5 91h642.5"></path><rect height="22" rx="10" ry="10" width="54.0" x="344.5" y="80"></rect><text x="371.5" y="95">help</text></g><path d="M1041.0 91h20"></path><path d="M324.5 91a10 10 0 0 1 10 10v10a10 10 0 0 0 10 10"></path><g>
<path d="M344.5 121h0"></path><path d="M1041.0 121h0.0"></path><g>
<path d="M344.5 121h0"></path><path d="M678.5 121h0.0"></path><path d="M374.5 121h10"></path><g>
<path d="M384.5 121h0"></path><path d="M572.0 121h76.5"></path><g class="non-terminal">
<path d="M384.5 121h0"></path><path d="M464.0 121h0.0"></path><rect height="22" width="79.5" x="384.5" y="110"></rect><text x="424.25" y="125">-domain</text></g><path d="M464.0 121h10"></path><path d="M474.0 121h10"></path><g class="terminal">
<path d="M484.0 121h0"></path><path d="M572.0 121h0.0"></path><rect height="22" rx="10" ry="10" width="88.0" x="484.0" y="110"></rect><text x="528.0" y="125">{domain}</text></g></g><path d="M648.5 121h10"></path><path d="M374.5 121v20a10 10 0 0 0 10 10"></path><g>
<path d="M384.5 151h0"></path><path d="M614.5 151h34.0"></path><g class="non-terminal">
<path d="M384.5 151h0"></path><path d="M464.0 151h0.0"></path><rect height="22" width="79.5" x="384.5" y="140"></rect><text x="424.25" y="155">-server</text></g><path d="M464.0 151h10"></path><path d="M474.0 151h10"></path><g class="terminal">
<path d="M484.0 151h0"></path><path d="M614.5 151h0.0"></path><rect height="22" rx="10" ry="10" width="130.5" x="484.0" y="140"></rect><text x="549.25" y="155">{engine tier}</text></g></g><path d="M648.5 151a10 10 0 0 0 10 -10v-10"></path><path d="M374.5 121v50a10 10 0 0 0 10 10"></path><g>
<path d="M384.5 181h0"></path><path d="M589.0 181h59.5"></path><g class="non-terminal">
<path d="M384.5 181h0"></path><path d="M472.5 181h0.0"></path><rect height="22" width="88.0" x="384.5" y="170"></rect><text x="428.5" y="185">-project</text></g><path d="M472.5 181h10"></path><path d="M482.5 181h10"></path><g class="terminal">
<path d="M492.5 181h0"></path><path d="M589.0 181h0.0"></path><rect height="22" rx="10" ry="10" width="96.5" x="492.5" y="170"></rect><text x="540.75" y="185">{project}</text></g></g><path d="M648.5 181a10 10 0 0 0 10 -10v-40"></path><path d="M374.5 121v80a10 10 0 0 0 10 10"></path><g>
<path d="M384.5 211h0"></path><path d="M572.0 211h76.5"></path><g class="non-terminal">
<path d="M384.5 211h0"></path><path d="M481.0 211h0.0"></path><rect height="22" width="96.5" x="384.5" y="200"></rect><text x="432.75" y="215">-username</text></g><path d="M481.0 211h10"></path><path d="M491.0 211h10"></path><g class="terminal">
<path d="M501.0 211h0"></path><path d="M572.0 211h0.0"></path><rect height="22" rx="10" ry="10" width="71.0" x="501.0" y="200"></rect><text x="536.5" y="215">{user}</text></g></g><path d="M648.5 211a10 10 0 0 0 10 -10v-70"></path><path d="M374.5 121v110a10 10 0 0 0 10 10"></path><g>
<path d="M384.5 241h0"></path><path d="M606.0 241h42.5"></path><g class="non-terminal">
<path d="M384.5 241h0"></path><path d="M481.0 241h0.0"></path><rect height="22" width="96.5" x="384.5" y="230"></rect><text x="432.75" y="245">-password</text></g><path d="M481.0 241h10"></path><path d="M491.0 241h10"></path><g class="terminal">
<path d="M501.0 241h0"></path><path d="M606.0 241h0.0"></path><rect height="22" rx="10" ry="10" width="105.0" x="501.0" y="230"></rect><text x="553.5" y="245">{password}</text></g></g><path d="M648.5 241a10 10 0 0 0 10 -10v-100"></path><path d="M374.5 121v140a10 10 0 0 0 10 10"></path><g>
<path d="M384.5 271h0"></path><path d="M597.5 271h51.0"></path><g class="non-terminal">
<path d="M384.5 271h0"></path><path d="M472.5 271h0.0"></path><rect height="22" width="88.0" x="384.5" y="260"></rect><text x="428.5" y="275">-logfile</text></g><path d="M472.5 271h10"></path><path d="M482.5 271h10"></path><g class="terminal">
<path d="M492.5 271h0"></path><path d="M597.5 271h0.0"></path><rect height="22" rx="10" ry="10" width="105.0" x="492.5" y="260"></rect><text x="545.0" y="275">{filename}</text></g></g><path d="M648.5 271a10 10 0 0 0 10 -10v-130"></path><path d="M374.5 121v170a10 10 0 0 0 10 10"></path><g>
<path d="M384.5 301h0"></path><path d="M648.5 301h0.0"></path><g class="non-terminal">
<path d="M384.5 301h0"></path><path d="M515.0 301h0.0"></path><rect height="22" width="130.5" x="384.5" y="290"></rect><text x="449.75" y="305">-isxdirectory</text></g><path d="M515.0 301h10"></path><path d="M525.0 301h10"></path><g class="terminal">
<path d="M535.0 301h0"></path><path d="M648.5 301h0.0"></path><rect height="22" rx="10" ry="10" width="113.5" x="535.0" y="290"></rect><text x="591.75" y="305">{directory}</text></g></g><path d="M648.5 301a10 10 0 0 0 10 -10v-160"></path><g class="diagram-text">
<title>take all branches, once each, in any order</title><path class="diagram-text" d="M 374.5 111 h -26 a 4 4 0 0 0 -4 4 v 12 a 4 4 0 0 0 4 4 h 26 z"></path><text class="diagram-text" x="359.5" y="125">all</text><path class="diagram-text" d="M 658.5 111 h 16 a 4 4 0 0 1 4 4 v 12 a 4 4 0 0 1 -4 4 h -16 z"></path><text class="diagram-arrow" x="668.5" y="125">↺</text></g></g><path d="M678.5 121h10"></path><g>
<path d="M688.5 121h0"></path><path d="M1041.0 121h0.0"></path><path d="M688.5 121h20"></path><g>
<path d="M708.5 121h312.5"></path></g><path d="M1021.0 121h20"></path><path d="M688.5 121a10 10 0 0 1 10 10v0a10 10 0 0 0 10 10"></path><g>
<path d="M708.5 141h0"></path><path d="M1021.0 141h0.0"></path><path d="M708.5 141h20"></path><g>
<path d="M728.5 141h0"></path><path d="M933.0 141h68.0"></path><g class="non-terminal">
<path d="M728.5 141h0"></path><path d="M799.5 141h0.0"></path><rect height="22" width="71.0" x="728.5" y="130"></rect><text x="764.0" y="145">-param</text></g><path d="M799.5 141h10"></path><path d="M809.5 141h10"></path><g class="terminal">
<path d="M819.5 141h0"></path><path d="M933.0 141h0.0"></path><rect height="22" rx="10" ry="10" width="113.5" x="819.5" y="130"></rect><text x="876.25" y="145">{parameter}</text></g></g><path d="M1001.0 141h20"></path><path d="M708.5 141a10 10 0 0 1 10 10v10a10 10 0 0 0 10 10"></path><g>
<path d="M728.5 171h0"></path><path d="M1001.0 171h0.0"></path><g class="non-terminal">
<path d="M728.5 171h0"></path><path d="M867.5 171h0.0"></path><rect height="22" width="139.0" x="728.5" y="160"></rect><text x="798.0" y="175">-project-cache</text></g><path d="M867.5 171h10"></path><path d="M877.5 171h10"></path><g class="terminal">
<path d="M887.5 171h0"></path><path d="M1001.0 171h0.0"></path><rect height="22" rx="10" ry="10" width="113.5" x="887.5" y="160"></rect><text x="944.25" y="175">{directory}</text></g></g><path d="M1001.0 171a10 10 0 0 0 10 -10v-10a10 10 0 0 1 10 -10"></path><path d="M708.5 141a10 10 0 0 1 10 10v40a10 10 0 0 0 10 10"></path><g>
<path d="M728.5 201h0"></path><path d="M924.5 201h76.5"></path><g class="non-terminal">
<path d="M728.5 201h0"></path><path d="M816.5 201h0.0"></path><rect height="22" width="88.0" x="728.5" y="190"></rect><text x="772.5" y="205">-threads</text></g><path d="M816.5 201h10"></path><path d="M826.5 201h10"></path><g class="terminal">
<path d="M836.5 201h0"></path><path d="M924.5 201h0.0"></path><rect height="22" rx="10" ry="10" width="88.0" x="836.5" y="190"></rect><text x="880.5" y="205">{number}</text></g></g><path d="M1001.0 201a10 10 0 0 0 10 -10v-40a10 10 0 0 1 10 -10"></path><path d="M708.5 141a10 10 0 0 1 10 10v70a10 10 0 0 0 10 10"></path><g>
<path d="M728.5 231h0"></path><path d="M933.0 231h68.0"></path><g class="non-terminal">
<path d="M728.5 231h0"></path><path d="M825.0 231h0.0"></path><rect height="22" width="96.5" x="728.5" y="220"></rect><text x="776.75" y="235">-heapsize</text></g><path d="M825.0 231h10"></path><path d="M835.0 231h10"></path><g class="terminal">
<path d="M845.0 231h0"></path><path d="M933.0 231h0.0"></path><rect height="22" rx="10" ry="10" width="88.0" x="845.0" y="220"></rect><text x="889.0" y="235">{number}</text></g></g><path d="M1001.0 231a10 10 0 0 0 10 -10v-70a10 10 0 0 1 10 -10"></path><path d="M708.5 141a10 10 0 0 1 10 10v100a10 10 0 0 0 10 10"></path><g>
<path d="M728.5 261h0"></path><path d="M984.0 261h17.0"></path><g class="non-terminal">
<path d="M728.5 261h0"></path><path d="M893.0 261h0.0"></path><rect height="22" width="164.5" x="728.5" y="250"></rect><text x="810.75" y="265">-noBatchThreshold</text></g><path d="M893.0 261h10"></path><path d="M903.0 261h10"></path><g class="terminal">
<path d="M913.0 261h0"></path><path d="M984.0 261h0.0"></path><rect height="22" rx="10" ry="10" width="71.0" x="913.0" y="250"></rect><text x="948.5" y="265">{path}</text></g></g><path d="M1001.0 261a10 10 0 0 0 10 -10v-100a10 10 0 0 1 10 -10"></path></g><path d="M1021.0 141a10 10 0 0 0 10 -10v0a10 10 0 0 1 10 -10"></path></g></g><path d="M1041.0 121a10 10 0 0 0 10 -10v-10a10 10 0 0 1 10 -10"></path></g></g><path d="M1061.0 91a10 10 0 0 0 10 -10v-10a10 10 0 0 1 10 -10"></path></g></g><path d="M1081.0 61a10 10 0 0 0 10 -10v-10a10 10 0 0 1 10 -10"></path></g><path d="M 1101.0 31 h 20 m -10 -10 v 20 m 10 -20 v 20"></path></g></svg>