<svg class="railroad-diagram" height="332" viewBox="0 0 1209.0 332" width="1209.0" xmlns="http://www.w3.org/2000/svg" xmlns:xlink="http://www.w3.org/1999/xlink">
<g>
<style>/* <![CDATA[ */
	svg.railroad-diagram {
		background-color: white;
	}
	svg.railroad-diagram path {
		stroke-width:2;
		stroke:black;
		fill: rgba(255, 255, 255, 1.0);
	}
	svg.railroad-diagram text {
		font:bold 14px monospace;
		text-anchor:middle;
	}
	svg.railroad-diagram text.arrow {
		font:bold 24px monospace;
		text-anchor:middle;
	}
	svg.railroad-diagram text.label{
		text-anchor:start;
	}
	svg.railroad-diagram text.comment{
		font:italic 12px monospace;
	}
	svg.railroad-diagram rect{
		stroke-width:2;
		stroke:black;
		fill:white;
	}

/* ]]> */
</style><g>
<path d="M20 21v20m10 -20v20m-10 -10h20"></path></g><path d="M40 31h10"></path><g class="non-terminal">
<path d="M50 31h0"></path><path d="M138.0 31h0.0"></path><rect height="22" width="88.0" x="50" y="20"></rect><text x="94.0" y="35">mettleci</text></g><path d="M138.0 31h10"></path><g>
<path d="M148.0 31h0"></path><path d="M1169.0 31h0.0"></path><path d="M148.0 31h20"></path><g class="terminal">
<path d="M168.0 31h0"></path><path d="M222.0 31h927.0"></path><rect height="22" rx="10" ry="10" width="54.0" x="168.0" y="20"></rect><text x="195.0" y="35">help</text></g><path d="M1149.0 31h20"></path><path d="M148.0 31a10 10 0 0 1 10 10v10a10 10 0 0 0 10 10"></path><g>
<path d="M168.0 61h0"></path><path d="M1149.0 61h0.0"></path><g class="non-terminal">
<path d="M168.0 61h0"></path><path d="M264.5 61h0.0"></path><rect height="22" width="96.5" x="168.0" y="50"></rect><text x="216.25" y="65">datastage</text></g><path d="M264.5 61h10"></path><g>
<path d="M274.5 61h0"></path><path d="M1149.0 61h0.0"></path><path d="M274.5 61h20"></path><g class="terminal">
<path d="M294.5 61h0"></path><path d="M348.5 61h780.5"></path><rect height="22" rx="10" ry="10" width="54.0" x="294.5" y="50"></rect><text x="321.5" y="65">help</text></g><path d="M1129.0 61h20"></path><path d="M274.5 61a10 10 0 0 1 10 10v10a10 10 0 0 0 10 10"></path><g>
<path d="M294.5 91h0"></path><path d="M1129.0 91h0.0"></path><g class="non-terminal">
<path d="M294.5 91h0"></path><path d="M365.5 91h0.0"></path><rect height="22" width="71.0" x="294.5" y="80"></rect><text x="330.0" y="95">deploy</text></g><path d="M365.5 91h10"></path><g>
<path d="M375.5 91h0"></path><path d="M1129.0 91h0.0"></path><path d="M375.5 91h20"></path><g class="terminal">
<path d="M395.5 91h0"></path><path d="M449.5 91h659.5"></path><rect height="22" rx="10" ry="10" width="54.0" x="395.5" y="80"></rect><text x="422.5" y="95">help</text></g><path d="M1109.0 91h20"></path><path d="M375.5 91a10 10 0 0 1 10 10v10a10 10 0 0 0 10 10"></path><g>
<path d="M395.5 121h0"></path><path d="M1109.0 121h0.0"></path><g>
<path d="M395.5 121h0"></path><path d="M738.0 121h0.0"></path><path d="M425.5 121h10"></path><g>
<path d="M435.5 121h0"></path><path d="M674.0 121h34.0"></path><g class="non-terminal">
<path d="M435.5 121h0"></path><path d="M515.0 121h0.0"></path><rect height="22" width="79.5" x="435.5" y="110"></rect><text x="475.25" y="125">-domain</text></g><path d="M515.0 121h10"></path><path d="M525.0 121h10"></path><g class="terminal">
<path d="M535.0 121h0"></path><path d="M674.0 121h0.0"></path><rect height="22" rx="10" ry="10" width="139.0" x="535.0" y="110"></rect><text x="604.5" y="125">{service tier}</text></g></g><path d="M708.0 121h10"></path><path d="M425.5 121v20a10 10 0 0 0 10 10"></path><g>
<path d="M435.5 151h0"></path><path d="M665.5 151h42.5"></path><g class="non-terminal">
<path d="M435.5 151h0"></path><path d="M515.0 151h0.0"></path><rect height="22" width="79.5" x="435.5" y="140"></rect><text x="475.25" y="155">-server</text></g><path d="M515.0 151h10"></path><path d="M525.0 151h10"></path><g class="terminal">
<path d="M535.0 151h0"></path><path d="M665.5 151h0.0"></path><rect height="22" rx="10" ry="10" width="130.5" x="535.0" y="140"></rect><text x="600.25" y="155">{engine tier}</text></g></g><path d="M708.0 151a10 10 0 0 0 10 -10v-10"></path><path d="M425.5 121v50a10 10 0 0 0 10 10"></path><g>
<path d="M435.5 181h0"></path><path d="M657.0 181h51.0"></path><g class="non-terminal">
<path d="M435.5 181h0"></path><path d="M532.0 181h0.0"></path><rect height="22" width="96.5" x="435.5" y="170"></rect><text x="483.75" y="185">-username</text></g><path d="M532.0 181h10"></path><path d="M542.0 181h10"></path><g class="terminal">
<path d="M552.0 181h0"></path><path d="M657.0 181h0.0"></path><rect height="22" rx="10" ry="10" width="105.0" x="552.0" y="170"></rect><text x="604.5" y="185">{username}</text></g></g><path d="M708.0 181a10 10 0 0 0 10 -10v-40"></path><path d="M425.5 121v80a10 10 0 0 0 10 10"></path><g>
<path d="M435.5 211h0"></path><path d="M657.0 211h51.0"></path><g class="non-terminal">
<path d="M435.5 211h0"></path><path d="M532.0 211h0.0"></path><rect height="22" width="96.5" x="435.5" y="200"></rect><text x="483.75" y="215">-password</text></g><path d="M532.0 211h10"></path><path d="M542.0 211h10"></path><g class="terminal">
<path d="M552.0 211h0"></path><path d="M657.0 211h0.0"></path><rect height="22" rx="10" ry="10" width="105.0" x="552.0" y="200"></rect><text x="604.5" y="215">{password}</text></g></g><path d="M708.0 211a10 10 0 0 0 10 -10v-70"></path><path d="M425.5 121v110a10 10 0 0 0 10 10"></path><g>
<path d="M435.5 241h0"></path><path d="M640.0 241h68.0"></path><g class="non-terminal">
<path d="M435.5 241h0"></path><path d="M523.5 241h0.0"></path><rect height="22" width="88.0" x="435.5" y="230"></rect><text x="479.5" y="245">-project</text></g><path d="M523.5 241h10"></path><path d="M533.5 241h10"></path><g class="terminal">
<path d="M543.5 241h0"></path><path d="M640.0 241h0.0"></path><rect height="22" rx="10" ry="10" width="96.5" x="543.5" y="230"></rect><text x="591.75" y="245">{project}</text></g></g><path d="M708.0 241a10 10 0 0 0 10 -10v-100"></path><path d="M425.5 121v140a10 10 0 0 0 10 10"></path><g>
<path d="M435.5 271h0"></path><path d="M648.5 271h59.5"></path><g class="non-terminal">
<path d="M435.5 271h0"></path><path d="M515.0 271h0.0"></path><rect height="22" width="79.5" x="435.5" y="260"></rect><text x="475.25" y="275">-assets</text></g><path d="M515.0 271h10"></path><path d="M525.0 271h10"></path><g class="terminal">
<path d="M535.0 271h0"></path><path d="M648.5 271h0.0"></path><rect height="22" rx="10" ry="10" width="113.5" x="535.0" y="260"></rect><text x="591.75" y="275">{directory}</text></g></g><path d="M708.0 271a10 10 0 0 0 10 -10v-130"></path><path d="M425.5 121v170a10 10 0 0 0 10 10"></path><g>
<path d="M435.5 301h0"></path><path d="M708.0 301h0.0"></path><g class="non-terminal">
<path d="M435.5 301h0"></path><path d="M574.5 301h0.0"></path><rect height="22" width="139.0" x="435.5" y="290"></rect><text x="505.0" y="305">-project-cache</text></g><path d="M574.5 301h10"></path><path d="M584.5 301h10"></path><g class="terminal">
<path d="M594.5 301h0"></path><path d="M708.0 301h0.0"></path><rect height="22" rx="10" ry="10" width="113.5" x="594.5" y="290"></rect><text x="651.25" y="305">{directory}</text></g></g><path d="M708.0 301a10 10 0 0 0 10 -10v-160"></path><g class="diagram-text">
<title>take all branches, once each, in any order</title><path class="diagram-text" d="M 425.5 111 h -26 a 4 4 0 0 0 -4 4 v 12 a 4 4 0 0 0 4 4 h 26 z"></path><text class="diagram-text" x="410.5" y="125">all</text><path class="diagram-text" d="M 718.0 111 h 16 a 4 4 0 0 1 4 4 v 12 a 4 4 0 0 1 -4 4 h -16 z"></path><text class="diagram-arrow" x="728.0" y="125">↺</text></g></g><path d="M738.0 121h10"></path><path d="M748.0 121h10"></path><g>
<path d="M758.0 121h0"></path><path d="M1109.0 121h0.0"></path><path d="M788.0 121h10"></path><g>
<path d="M798.0 121h0"></path><path d="M798.0 121h281.0"></path><g>
<path d="M798.0 121h0"></path></g></g><path d="M1079.0 121h10"></path><path d="M788.0 121v10a10 10 0 0 0 10 10"></path><g>
<path d="M798.0 141h0"></path><path d="M1030.5 141h48.5"></path><g class="non-terminal">
<path d="M798.0 141h0"></path><path d="M1030.5 141h0.0"></path><rect height="22" width="232.5" x="798.0" y="130"></rect><text x="914.25" y="145">-include-job-in-test-name</text></g></g><path d="M1079.0 141a10 10 0 0 0 10 -10v0"></path><path d="M788.0 121v40a10 10 0 0 0 10 10"></path><g>
<path d="M798.0 171h0"></path><path d="M994.0 171h85.0"></path><g class="non-terminal">
<path d="M798.0 171h0"></path><path d="M886.0 171h0.0"></path><rect height="22" width="88.0" x="798.0" y="160"></rect><text x="842.0" y="175">-threads</text></g><path d="M886.0 171h10"></path><path d="M896.0 171h10"></path><g class="terminal">
<path d="M906.0 171h0"></path><path d="M994.0 171h0.0"></path><rect height="22" rx="10" ry="10" width="88.0" x="906.0" y="160"></rect><text x="950.0" y="175">{number}</text></g></g><path d="M1079.0 171a10 10 0 0 0 10 -10v-30"></path><path d="M788.0 121v70a10 10 0 0 0 10 10"></path><g>
<path d="M798.0 201h0"></path><path d="M1079.0 201h0.0"></path><g class="non-terminal">
<path d="M798.0 201h0"></path><path d="M945.5 201h0.0"></path><rect height="22" width="147.5" x="798.0" y="190"></rect><text x="871.75" y="205">-parameter-sets</text></g><path d="M945.5 201h10"></path><path d="M955.5 201h10"></path><g class="terminal">
<path d="M965.5 201h0"></path><path d="M1079.0 201h0.0"></path><rect height="22" rx="10" ry="10" width="113.5" x="965.5" y="190"></rect><text x="1022.25" y="205">{directory}</text></g></g><path d="M1079.0 201a10 10 0 0 0 10 -10v-60"></path><g class="diagram-text">
<title>take one or more branches, once each, in any order</title><path class="diagram-text" d="M 788.0 111 h -26 a 4 4 0 0 0 -4 4 v 12 a 4 4 0 0 0 4 4 h 26 z"></path><text class="diagram-text" x="773.0" y="125">1+</text><path class="diagram-text" d="M 1089.0 111 h 16 a 4 4 0 0 1 4 4 v 12 a 4 4 0 0 1 -4 4 h -16 z"></path><text class="diagram-arrow" x="1099.0" y="125">↺</text></g></g></g><path d="M1109.0 121a10 10 0 0 0 10 -10v-10a10 10 0 0 1 10 -10"></path></g></g><path d="M1129.0 91a10 10 0 0 0 10 -10v-10a10 10 0 0 1 10 -10"></path></g></g><path d="M1149.0 61a10 10 0 0 0 10 -10v-10a10 10 0 0 1 10 -10"></path></g><path d="M 1169.0 31 h 20 m -10 -10 v 20 m 10 -20 v 20"></path></g></svg>