<svg class="railroad-diagram" height="332" viewBox="0 0 1175.0 332" width="1175.0" xmlns="http://www.w3.org/2000/svg" xmlns:xlink="http://www.w3.org/1999/xlink">
<g>
<style>/* <![CDATA[ */
	svg.railroad-diagram {
		background-color: white;
	}
	svg.railroad-diagram path {
		stroke-width:2;
		stroke:black;
		fill: rgba(255, 255, 255, 1.0);
	}
	svg.railroad-diagram text {
		font:bold 14px monospace;
		text-anchor:middle;
	}
	svg.railroad-diagram text.arrow {
		font:bold 24px monospace;
		text-anchor:middle;
	}
	svg.railroad-diagram text.label{
		text-anchor:start;
	}
	svg.railroad-diagram text.comment{
		font:italic 12px monospace;
	}
	svg.railroad-diagram rect{
		stroke-width:2;
		stroke:black;
		fill:white;
	}

/* ]]> */
</style><g>
<path d="M20 21v20m10 -20v20m-10 -10h20"></path></g><path d="M40 31h10"></path><g class="non-terminal">
<path d="M50 31h0"></path><path d="M138.0 31h0.0"></path><rect height="22" width="88.0" x="50" y="20"></rect><text x="94.0" y="35">mettleci</text></g><path d="M138.0 31h10"></path><g>
<path d="M148.0 31h0"></path><path d="M1135.0 31h0.0"></path><path d="M148.0 31h20"></path><g class="terminal">
<path d="M168.0 31h0"></path><path d="M222.0 31h893.0"></path><rect height="22" rx="10" ry="10" width="54.0" x="168.0" y="20"></rect><text x="195.0" y="35">help</text></g><path d="M1115.0 31h20"></path><path d="M148.0 31a10 10 0 0 1 10 10v10a10 10 0 0 0 10 10"></path><g>
<path d="M168.0 61h0"></path><path d="M1115.0 61h0.0"></path><g class="non-terminal">
<path d="M168.0 61h0"></path><path d="M264.5 61h0.0"></path><rect height="22" width="96.5" x="168.0" y="50"></rect><text x="216.25" y="65">datastage</text></g><path d="M264.5 61h10"></path><g>
<path d="M274.5 61h0"></path><path d="M1115.0 61h0.0"></path><path d="M274.5 61h20"></path><g class="terminal">
<path d="M294.5 61h0"></path><path d="M348.5 61h746.5"></path><rect height="22" rx="10" ry="10" width="54.0" x="294.5" y="50"></rect><text x="321.5" y="65">help</text></g><path d="M1095.0 61h20"></path><path d="M274.5 61a10 10 0 0 1 10 10v10a10 10 0 0 0 10 10"></path><g>
<path d="M294.5 91h0"></path><path d="M1095.0 91h0.0"></path><g class="non-terminal">
<path d="M294.5 91h0"></path><path d="M348.5 91h0.0"></path><rect height="22" width="54.0" x="294.5" y="80"></rect><text x="321.5" y="95">ccmt</text></g><path d="M348.5 91h10"></path><g>
<path d="M358.5 91h0"></path><path d="M1095.0 91h0.0"></path><path d="M358.5 91h20"></path><g class="terminal">
<path d="M378.5 91h0"></path><path d="M432.5 91h642.5"></path><rect height="22" rx="10" ry="10" width="54.0" x="378.5" y="80"></rect><text x="405.5" y="95">help</text></g><path d="M1075.0 91h20"></path><path d="M358.5 91a10 10 0 0 1 10 10v10a10 10 0 0 0 10 10"></path><g>
<path d="M378.5 121h0"></path><path d="M1075.0 121h0.0"></path><g>
<path d="M378.5 121h0"></path><path d="M712.5 121h0.0"></path><path d="M408.5 121h10"></path><g>
<path d="M418.5 121h0"></path><path d="M606.0 121h76.5"></path><g class="non-terminal">
<path d="M418.5 121h0"></path><path d="M498.0 121h0.0"></path><rect height="22" width="79.5" x="418.5" y="110"></rect><text x="458.25" y="125">-domain</text></g><path d="M498.0 121h10"></path><path d="M508.0 121h10"></path><g class="terminal">
<path d="M518.0 121h0"></path><path d="M606.0 121h0.0"></path><rect height="22" rx="10" ry="10" width="88.0" x="518.0" y="110"></rect><text x="562.0" y="125">{domain}</text></g></g><path d="M682.5 121h10"></path><path d="M408.5 121v20a10 10 0 0 0 10 10"></path><g>
<path d="M418.5 151h0"></path><path d="M648.5 151h34.0"></path><g class="non-terminal">
<path d="M418.5 151h0"></path><path d="M498.0 151h0.0"></path><rect height="22" width="79.5" x="418.5" y="140"></rect><text x="458.25" y="155">-server</text></g><path d="M498.0 151h10"></path><path d="M508.0 151h10"></path><g class="terminal">
<path d="M518.0 151h0"></path><path d="M648.5 151h0.0"></path><rect height="22" rx="10" ry="10" width="130.5" x="518.0" y="140"></rect><text x="583.25" y="155">{engine tier}</text></g></g><path d="M682.5 151a10 10 0 0 0 10 -10v-10"></path><path d="M408.5 121v50a10 10 0 0 0 10 10"></path><g>
<path d="M418.5 181h0"></path><path d="M623.0 181h59.5"></path><g class="non-terminal">
<path d="M418.5 181h0"></path><path d="M506.5 181h0.0"></path><rect height="22" width="88.0" x="418.5" y="170"></rect><text x="462.5" y="185">-project</text></g><path d="M506.5 181h10"></path><path d="M516.5 181h10"></path><g class="terminal">
<path d="M526.5 181h0"></path><path d="M623.0 181h0.0"></path><rect height="22" rx="10" ry="10" width="96.5" x="526.5" y="170"></rect><text x="574.75" y="185">{project}</text></g></g><path d="M682.5 181a10 10 0 0 0 10 -10v-40"></path><path d="M408.5 121v80a10 10 0 0 0 10 10"></path><g>
<path d="M418.5 211h0"></path><path d="M606.0 211h76.5"></path><g class="non-terminal">
<path d="M418.5 211h0"></path><path d="M515.0 211h0.0"></path><rect height="22" width="96.5" x="418.5" y="200"></rect><text x="466.75" y="215">-username</text></g><path d="M515.0 211h10"></path><path d="M525.0 211h10"></path><g class="terminal">
<path d="M535.0 211h0"></path><path d="M606.0 211h0.0"></path><rect height="22" rx="10" ry="10" width="71.0" x="535.0" y="200"></rect><text x="570.5" y="215">{user}</text></g></g><path d="M682.5 211a10 10 0 0 0 10 -10v-70"></path><path d="M408.5 121v110a10 10 0 0 0 10 10"></path><g>
<path d="M418.5 241h0"></path><path d="M640.0 241h42.5"></path><g class="non-terminal">
<path d="M418.5 241h0"></path><path d="M515.0 241h0.0"></path><rect height="22" width="96.5" x="418.5" y="230"></rect><text x="466.75" y="245">-password</text></g><path d="M515.0 241h10"></path><path d="M525.0 241h10"></path><g class="terminal">
<path d="M535.0 241h0"></path><path d="M640.0 241h0.0"></path><rect height="22" rx="10" ry="10" width="105.0" x="535.0" y="230"></rect><text x="587.5" y="245">{password}</text></g></g><path d="M682.5 241a10 10 0 0 0 10 -10v-100"></path><path d="M408.5 121v140a10 10 0 0 0 10 10"></path><g>
<path d="M418.5 271h0"></path><path d="M631.5 271h51.0"></path><g class="non-terminal">
<path d="M418.5 271h0"></path><path d="M506.5 271h0.0"></path><rect height="22" width="88.0" x="418.5" y="260"></rect><text x="462.5" y="275">-logfile</text></g><path d="M506.5 271h10"></path><path d="M516.5 271h10"></path><g class="terminal">
<path d="M526.5 271h0"></path><path d="M631.5 271h0.0"></path><rect height="22" rx="10" ry="10" width="105.0" x="526.5" y="260"></rect><text x="579.0" y="275">{filename}</text></g></g><path d="M682.5 271a10 10 0 0 0 10 -10v-130"></path><path d="M408.5 121v170a10 10 0 0 0 10 10"></path><g>
<path d="M418.5 301h0"></path><path d="M682.5 301h0.0"></path><g class="non-terminal">
<path d="M418.5 301h0"></path><path d="M549.0 301h0.0"></path><rect height="22" width="130.5" x="418.5" y="290"></rect><text x="483.75" y="305">-isxdirectory</text></g><path d="M549.0 301h10"></path><path d="M559.0 301h10"></path><g class="terminal">
<path d="M569.0 301h0"></path><path d="M682.5 301h0.0"></path><rect height="22" rx="10" ry="10" width="113.5" x="569.0" y="290"></rect><text x="625.75" y="305">{directory}</text></g></g><path d="M682.5 301a10 10 0 0 0 10 -10v-160"></path><g class="diagram-text">
<title>take all branches, once each, in any order</title><path class="diagram-text" d="M 408.5 111 h -26 a 4 4 0 0 0 -4 4 v 12 a 4 4 0 0 0 4 4 h 26 z"></path><text class="diagram-text" x="393.5" y="125">all</text><path class="diagram-text" d="M 692.5 111 h 16 a 4 4 0 0 1 4 4 v 12 a 4 4 0 0 1 -4 4 h -16 z"></path><text class="diagram-arrow" x="702.5" y="125">↺</text></g></g><path d="M712.5 121h10"></path><g>
<path d="M722.5 121h0"></path><path d="M1075.0 121h0.0"></path><path d="M722.5 121h20"></path><g>
<path d="M742.5 121h312.5"></path></g><path d="M1055.0 121h20"></path><path d="M722.5 121a10 10 0 0 1 10 10v0a10 10 0 0 0 10 10"></path><g>
<path d="M742.5 141h0"></path><path d="M1055.0 141h0.0"></path><path d="M742.5 141h20"></path><g>
<path d="M762.5 141h0"></path><path d="M967.0 141h68.0"></path><g class="non-terminal">
<path d="M762.5 141h0"></path><path d="M833.5 141h0.0"></path><rect height="22" width="71.0" x="762.5" y="130"></rect><text x="798.0" y="145">-param</text></g><path d="M833.5 141h10"></path><path d="M843.5 141h10"></path><g class="terminal">
<path d="M853.5 141h0"></path><path d="M967.0 141h0.0"></path><rect height="22" rx="10" ry="10" width="113.5" x="853.5" y="130"></rect><text x="910.25" y="145">{parameter}</text></g></g><path d="M1035.0 141h20"></path><path d="M742.5 141a10 10 0 0 1 10 10v10a10 10 0 0 0 10 10"></path><g>
<path d="M762.5 171h0"></path><path d="M1035.0 171h0.0"></path><g class="non-terminal">
<path d="M762.5 171h0"></path><path d="M901.5 171h0.0"></path><rect height="22" width="139.0" x="762.5" y="160"></rect><text x="832.0" y="175">-project-cache</text></g><path d="M901.5 171h10"></path><path d="M911.5 171h10"></path><g class="terminal">
<path d="M921.5 171h0"></path><path d="M1035.0 171h0.0"></path><rect height="22" rx="10" ry="10" width="113.5" x="921.5" y="160"></rect><text x="978.25" y="175">{directory}</text></g></g><path d="M1035.0 171a10 10 0 0 0 10 -10v-10a10 10 0 0 1 10 -10"></path><path d="M742.5 141a10 10 0 0 1 10 10v40a10 10 0 0 0 10 10"></path><g>
<path d="M762.5 201h0"></path><path d="M958.5 201h76.5"></path><g class="non-terminal">
<path d="M762.5 201h0"></path><path d="M850.5 201h0.0"></path><rect height="22" width="88.0" x="762.5" y="190"></rect><text x="806.5" y="205">-threads</text></g><path d="M850.5 201h10"></path><path d="M860.5 201h10"></path><g class="terminal">
<path d="M870.5 201h0"></path><path d="M958.5 201h0.0"></path><rect height="22" rx="10" ry="10" width="88.0" x="870.5" y="190"></rect><text x="914.5" y="205">{number}</text></g></g><path d="M1035.0 201a10 10 0 0 0 10 -10v-40a10 10 0 0 1 10 -10"></path><path d="M742.5 141a10 10 0 0 1 10 10v70a10 10 0 0 0 10 10"></path><g>
<path d="M762.5 231h0"></path><path d="M967.0 231h68.0"></path><g class="non-terminal">
<path d="M762.5 231h0"></path><path d="M859.0 231h0.0"></path><rect height="22" width="96.5" x="762.5" y="220"></rect><text x="810.75" y="235">-heapsize</text></g><path d="M859.0 231h10"></path><path d="M869.0 231h10"></path><g class="terminal">
<path d="M879.0 231h0"></path><path d="M967.0 231h0.0"></path><rect height="22" rx="10" ry="10" width="88.0" x="879.0" y="220"></rect><text x="923.0" y="235">{number}</text></g></g><path d="M1035.0 231a10 10 0 0 0 10 -10v-70a10 10 0 0 1 10 -10"></path><path d="M742.5 141a10 10 0 0 1 10 10v100a10 10 0 0 0 10 10"></path><g>
<path d="M762.5 261h0"></path><path d="M1018.0 261h17.0"></path><g class="non-terminal">
<path d="M762.5 261h0"></path><path d="M927.0 261h0.0"></path><rect height="22" width="164.5" x="762.5" y="250"></rect><text x="844.75" y="265">-noBatchThreshold</text></g><path d="M927.0 261h10"></path><path d="M937.0 261h10"></path><g class="terminal">
<path d="M947.0 261h0"></path><path d="M1018.0 261h0.0"></path><rect height="22" rx="10" ry="10" width="71.0" x="947.0" y="250"></rect><text x="982.5" y="265">{path}</text></g></g><path d="M1035.0 261a10 10 0 0 0 10 -10v-100a10 10 0 0 1 10 -10"></path></g><path d="M1055.0 141a10 10 0 0 0 10 -10v0a10 10 0 0 1 10 -10"></path></g></g><path d="M1075.0 121a10 10 0 0 0 10 -10v-10a10 10 0 0 1 10 -10"></path></g></g><path d="M1095.0 91a10 10 0 0 0 10 -10v-10a10 10 0 0 1 10 -10"></path></g></g><path d="M1115.0 61a10 10 0 0 0 10 -10v-10a10 10 0 0 1 10 -10"></path></g><path d="M 1135.0 31 h 20 m -10 -10 v 20 m 10 -20 v 20"></path></g></svg>