<svg class="railroad-diagram" height="212" viewBox="0 0 744.5 212" width="744.5" xmlns="http://www.w3.org/2000/svg" xmlns:xlink="http://www.w3.org/1999/xlink">
<g>
<style>/* <![CDATA[ */
	svg.railroad-diagram {
		background-color: white;
	}
	svg.railroad-diagram path {
		stroke-width:2;
		stroke:black;
		fill: rgba(255, 255, 255, 1.0);
	}
	svg.railroad-diagram text {
		font:bold 14px monospace;
		text-anchor:middle;
	}
	svg.railroad-diagram text.arrow {
		font:bold 24px monospace;
		text-anchor:middle;
	}
	svg.railroad-diagram text.label{
		text-anchor:start;
	}
	svg.railroad-diagram text.comment{
		font:italic 12px monospace;
	}
	svg.railroad-diagram rect{
		stroke-width:2;
		stroke:black;
		fill:white;
	}

/* ]]> */
</style><g>
<path d="M20 21v20m10 -20v20m-10 -10h20"></path></g><path d="M40 31h10"></path><g class="non-terminal">
<path d="M50 31h0"></path><path d="M138.0 31h0.0"></path><rect height="22" width="88.0" x="50" y="20"></rect><text x="94.0" y="35">mettleci</text></g><path d="M138.0 31h10"></path><g>
<path d="M148.0 31h0"></path><path d="M704.5 31h0.0"></path><path d="M148.0 31h20"></path><g class="terminal">
<path d="M168.0 31h0"></path><path d="M222.0 31h462.5"></path><rect height="22" rx="10" ry="10" width="54.0" x="168.0" y="20"></rect><text x="195.0" y="35">help</text></g><path d="M684.5 31h20"></path><path d="M148.0 31a10 10 0 0 1 10 10v10a10 10 0 0 0 10 10"></path><g>
<path d="M168.0 61h0"></path><path d="M684.5 61h0.0"></path><g class="non-terminal">
<path d="M168.0 61h0"></path><path d="M256.0 61h0.0"></path><rect height="22" width="88.0" x="168.0" y="50"></rect><text x="212.0" y="65">dsparams</text></g><path d="M256.0 61h10"></path><g>
<path d="M266.0 61h0"></path><path d="M684.5 61h0.0"></path><path d="M266.0 61h20"></path><g class="terminal">
<path d="M286.0 61h0"></path><path d="M340.0 61h324.5"></path><rect height="22" rx="10" ry="10" width="54.0" x="286.0" y="50"></rect><text x="313.0" y="65">help</text></g><path d="M664.5 61h20"></path><path d="M266.0 61a10 10 0 0 1 10 10v10a10 10 0 0 0 10 10"></path><g>
<path d="M286.0 91h0"></path><path d="M664.5 91h0.0"></path><g class="non-terminal">
<path d="M286.0 91h0"></path><path d="M340.0 91h0.0"></path><rect height="22" width="54.0" x="286.0" y="80"></rect><text x="313.0" y="95">diff</text></g><path d="M340.0 91h10"></path><g>
<path d="M350.0 91h0"></path><path d="M664.5 91h0.0"></path><path d="M350.0 91h20"></path><g class="terminal">
<path d="M370.0 91h0"></path><path d="M424.0 91h220.5"></path><rect height="22" rx="10" ry="10" width="54.0" x="370.0" y="80"></rect><text x="397.0" y="95">help</text></g><path d="M644.5 91h20"></path><path d="M350.0 91a10 10 0 0 1 10 10v10a10 10 0 0 0 10 10"></path><g>
<path d="M370.0 121h0"></path><path d="M644.5 121h0.0"></path><g>
<path d="M370.0 121h0"></path><path d="M644.5 121h0.0"></path><path d="M400.0 121h10"></path><g>
<path d="M410.0 121h0"></path><path d="M614.5 121h0.0"></path><g class="non-terminal">
<path d="M410.0 121h0"></path><path d="M489.5 121h0.0"></path><rect height="22" width="79.5" x="410.0" y="110"></rect><text x="449.75" y="125">-before</text></g><path d="M489.5 121h10"></path><path d="M499.5 121h10"></path><g class="terminal">
<path d="M509.5 121h0"></path><path d="M614.5 121h0.0"></path><rect height="22" rx="10" ry="10" width="105.0" x="509.5" y="110"></rect><text x="562.0" y="125">{filename}</text></g></g><path d="M614.5 121h10"></path><path d="M400.0 121v20a10 10 0 0 0 10 10"></path><g>
<path d="M410.0 151h0"></path><path d="M606.0 151h8.5"></path><g class="non-terminal">
<path d="M410.0 151h0"></path><path d="M481.0 151h0.0"></path><rect height="22" width="71.0" x="410.0" y="140"></rect><text x="445.5" y="155">-after</text></g><path d="M481.0 151h10"></path><path d="M491.0 151h10"></path><g class="terminal">
<path d="M501.0 151h0"></path><path d="M606.0 151h0.0"></path><rect height="22" rx="10" ry="10" width="105.0" x="501.0" y="140"></rect><text x="553.5" y="155">{filename}</text></g></g><path d="M614.5 151a10 10 0 0 0 10 -10v-10"></path><path d="M400.0 121v50a10 10 0 0 0 10 10"></path><g>
<path d="M410.0 181h0"></path><path d="M597.5 181h17.0"></path><g class="non-terminal">
<path d="M410.0 181h0"></path><path d="M472.5 181h0.0"></path><rect height="22" width="62.5" x="410.0" y="170"></rect><text x="441.25" y="185">-diff</text></g><path d="M472.5 181h10"></path><path d="M482.5 181h10"></path><g class="terminal">
<path d="M492.5 181h0"></path><path d="M597.5 181h0.0"></path><rect height="22" rx="10" ry="10" width="105.0" x="492.5" y="170"></rect><text x="545.0" y="185">{filename}</text></g></g><path d="M614.5 181a10 10 0 0 0 10 -10v-40"></path><g class="diagram-text">
<title>take all branches, once each, in any order</title><path class="diagram-text" d="M 400.0 111 h -26 a 4 4 0 0 0 -4 4 v 12 a 4 4 0 0 0 4 4 h 26 z"></path><text class="diagram-text" x="385.0" y="125">all</text><path class="diagram-text" d="M 624.5 111 h 16 a 4 4 0 0 1 4 4 v 12 a 4 4 0 0 1 -4 4 h -16 z"></path><text class="diagram-arrow" x="634.5" y="125">↺</text></g></g></g><path d="M644.5 121a10 10 0 0 0 10 -10v-10a10 10 0 0 1 10 -10"></path></g></g><path d="M664.5 91a10 10 0 0 0 10 -10v-10a10 10 0 0 1 10 -10"></path></g></g><path d="M684.5 61a10 10 0 0 0 10 -10v-10a10 10 0 0 1 10 -10"></path></g><path d="M 704.5 31 h 20 m -10 -10 v 20 m 10 -20 v 20"></path></g></svg>