<svg class="railroad-diagram" height="302" viewBox="0 0 1217.5 302" width="1217.5" xmlns="http://www.w3.org/2000/svg" xmlns:xlink="http://www.w3.org/1999/xlink">
<g>
<style>/* <![CDATA[ */
	svg.railroad-diagram {
		background-color: white;
	}
	svg.railroad-diagram path {
		stroke-width:2;
		stroke:black;
		fill: rgba(255, 255, 255, 1.0);
	}
	svg.railroad-diagram text {
		font:bold 14px monospace;
		text-anchor:middle;
	}
	svg.railroad-diagram text.arrow {
		font:bold 24px monospace;
		text-anchor:middle;
	}
	svg.railroad-diagram text.label{
		text-anchor:start;
	}
	svg.railroad-diagram text.comment{
		font:italic 12px monospace;
	}
	svg.railroad-diagram rect{
		stroke-width:2;
		stroke:black;
		fill:white;
	}

/* ]]> */
</style><g>
<path d="M20 21v20m10 -20v20m-10 -10h20"></path></g><path d="M40 31h10"></path><g class="non-terminal">
<path d="M50 31h0"></path><path d="M138.0 31h0.0"></path><rect height="22" width="88.0" x="50" y="20"></rect><text x="94.0" y="35">mettleci</text></g><path d="M138.0 31h10"></path><g>
<path d="M148.0 31h0"></path><path d="M1177.5 31h0.0"></path><path d="M148.0 31h20"></path><g class="terminal">
<path d="M168.0 31h0"></path><path d="M222.0 31h935.5"></path><rect height="22" rx="10" ry="10" width="54.0" x="168.0" y="20"></rect><text x="195.0" y="35">help</text></g><path d="M1157.5 31h20"></path><path d="M148.0 31a10 10 0 0 1 10 10v10a10 10 0 0 0 10 10"></path><g>
<path d="M168.0 61h0"></path><path d="M1157.5 61h0.0"></path><g class="non-terminal">
<path d="M168.0 61h0"></path><path d="M213.5 61h0.0"></path><rect height="22" width="45.5" x="168.0" y="50"></rect><text x="190.75" y="65">isx</text></g><path d="M213.5 61h10"></path><g>
<path d="M223.5 61h0"></path><path d="M1157.5 61h0.0"></path><path d="M223.5 61h20"></path><g class="terminal">
<path d="M243.5 61h0"></path><path d="M297.5 61h840.0"></path><rect height="22" rx="10" ry="10" width="54.0" x="243.5" y="50"></rect><text x="270.5" y="65">help</text></g><path d="M1137.5 61h20"></path><path d="M223.5 61a10 10 0 0 1 10 10v10a10 10 0 0 0 10 10"></path><g>
<path d="M243.5 91h0"></path><path d="M1137.5 91h0.0"></path><g class="non-terminal">
<path d="M243.5 91h0"></path><path d="M314.5 91h0.0"></path><rect height="22" width="71.0" x="243.5" y="80"></rect><text x="279.0" y="95">import</text></g><path d="M314.5 91h10"></path><g>
<path d="M324.5 91h0"></path><path d="M1137.5 91h0.0"></path><path d="M324.5 91h20"></path><g class="terminal">
<path d="M344.5 91h0"></path><path d="M398.5 91h719.0"></path><rect height="22" rx="10" ry="10" width="54.0" x="344.5" y="80"></rect><text x="371.5" y="95">help</text></g><path d="M1117.5 91h20"></path><path d="M324.5 91a10 10 0 0 1 10 10v10a10 10 0 0 0 10 10"></path><g>
<path d="M344.5 121h0"></path><path d="M1117.5 121h0.0"></path><g>
<path d="M344.5 121h0"></path><path d="M704.0 121h0.0"></path><path d="M374.5 121h10"></path><g>
<path d="M384.5 121h0"></path><path d="M631.5 121h42.5"></path><g class="non-terminal">
<path d="M384.5 121h0"></path><path d="M464.0 121h0.0"></path><rect height="22" width="79.5" x="384.5" y="110"></rect><text x="424.25" y="125">-domain</text></g><path d="M464.0 121h10"></path><path d="M474.0 121h10"></path><g class="terminal">
<path d="M484.0 121h0"></path><path d="M631.5 121h0.0"></path><rect height="22" rx="10" ry="10" width="147.5" x="484.0" y="110"></rect><text x="557.75" y="125">{Services tier}</text></g></g><path d="M674.0 121h10"></path><path d="M374.5 121v20a10 10 0 0 0 10 10"></path><g>
<path d="M384.5 151h0"></path><path d="M614.5 151h59.5"></path><g class="non-terminal">
<path d="M384.5 151h0"></path><path d="M464.0 151h0.0"></path><rect height="22" width="79.5" x="384.5" y="140"></rect><text x="424.25" y="155">-server</text></g><path d="M464.0 151h10"></path><path d="M474.0 151h10"></path><g class="terminal">
<path d="M484.0 151h0"></path><path d="M614.5 151h0.0"></path><rect height="22" rx="10" ry="10" width="130.5" x="484.0" y="140"></rect><text x="549.25" y="155">{Engine tier}</text></g></g><path d="M674.0 151a10 10 0 0 0 10 -10v-10"></path><path d="M374.5 121v50a10 10 0 0 0 10 10"></path><g>
<path d="M384.5 181h0"></path><path d="M614.5 181h59.5"></path><g class="non-terminal">
<path d="M384.5 181h0"></path><path d="M481.0 181h0.0"></path><rect height="22" width="96.5" x="384.5" y="170"></rect><text x="432.75" y="185">-username</text></g><path d="M481.0 181h10"></path><path d="M491.0 181h10"></path><g class="terminal">
<path d="M501.0 181h0"></path><path d="M614.5 181h0.0"></path><rect height="22" rx="10" ry="10" width="113.5" x="501.0" y="170"></rect><text x="557.75" y="185">{User Name}</text></g></g><path d="M674.0 181a10 10 0 0 0 10 -10v-40"></path><path d="M374.5 121v80a10 10 0 0 0 10 10"></path><g>
<path d="M384.5 211h0"></path><path d="M606.0 211h68.0"></path><g class="non-terminal">
<path d="M384.5 211h0"></path><path d="M481.0 211h0.0"></path><rect height="22" width="96.5" x="384.5" y="200"></rect><text x="432.75" y="215">-password</text></g><path d="M481.0 211h10"></path><path d="M491.0 211h10"></path><g class="terminal">
<path d="M501.0 211h0"></path><path d="M606.0 211h0.0"></path><rect height="22" rx="10" ry="10" width="105.0" x="501.0" y="200"></rect><text x="553.5" y="215">{Password}</text></g></g><path d="M674.0 211a10 10 0 0 0 10 -10v-70"></path><path d="M374.5 121v110a10 10 0 0 0 10 10"></path><g>
<path d="M384.5 241h0"></path><path d="M631.5 241h42.5"></path><g class="non-terminal">
<path d="M384.5 241h0"></path><path d="M472.5 241h0.0"></path><rect height="22" width="88.0" x="384.5" y="230"></rect><text x="428.5" y="245">-project</text></g><path d="M472.5 241h10"></path><path d="M482.5 241h10"></path><g class="terminal">
<path d="M492.5 241h0"></path><path d="M631.5 241h0.0"></path><rect height="22" rx="10" ry="10" width="139.0" x="492.5" y="230"></rect><text x="562.0" y="245">{Project Name}</text></g></g><path d="M674.0 241a10 10 0 0 0 10 -10v-100"></path><path d="M374.5 121v140a10 10 0 0 0 10 10"></path><g>
<path d="M384.5 271h0"></path><path d="M674.0 271h0.0"></path><g class="non-terminal">
<path d="M384.5 271h0"></path><path d="M481.0 271h0.0"></path><rect height="22" width="96.5" x="384.5" y="260"></rect><text x="432.75" y="275">-location</text></g><path d="M481.0 271h10"></path><path d="M491.0 271h10"></path><g class="terminal">
<path d="M501.0 271h0"></path><path d="M674.0 271h0.0"></path><rect height="22" rx="10" ry="10" width="173.0" x="501.0" y="260"></rect><text x="587.5" y="275">{Source directory}</text></g></g><path d="M674.0 271a10 10 0 0 0 10 -10v-130"></path><g class="diagram-text">
<title>take all branches, once each, in any order</title><path class="diagram-text" d="M 374.5 111 h -26 a 4 4 0 0 0 -4 4 v 12 a 4 4 0 0 0 4 4 h 26 z"></path><text class="diagram-text" x="359.5" y="125">all</text><path class="diagram-text" d="M 684.0 111 h 16 a 4 4 0 0 1 4 4 v 12 a 4 4 0 0 1 -4 4 h -16 z"></path><text class="diagram-arrow" x="694.0" y="125">↺</text></g></g><path d="M704.0 121h10"></path><path d="M714.0 121h10"></path><g>
<path d="M724.0 121h0"></path><path d="M1117.5 121h0.0"></path><path d="M754.0 121h10"></path><g>
<path d="M764.0 121h0"></path><path d="M764.0 121h323.5"></path><g>
<path d="M764.0 121h0"></path></g></g><path d="M1087.5 121h10"></path><path d="M754.0 121v10a10 10 0 0 0 10 10"></path><g>
<path d="M764.0 141h0"></path><path d="M1087.5 141h0.0"></path><g class="non-terminal">
<path d="M764.0 141h0"></path><path d="M903.0 141h0.0"></path><rect height="22" width="139.0" x="764.0" y="130"></rect><text x="833.5" y="145">-project-cache</text></g><path d="M903.0 141h10"></path><path d="M913.0 141h10"></path><g class="terminal">
<path d="M923.0 141h0"></path><path d="M1087.5 141h0.0"></path><rect height="22" rx="10" ry="10" width="164.5" x="923.0" y="130"></rect><text x="1005.25" y="145">{Cache directory}</text></g></g><path d="M1087.5 141a10 10 0 0 0 10 -10v0"></path><path d="M754.0 121v40a10 10 0 0 0 10 10"></path><g>
<path d="M764.0 171h0"></path><path d="M1011.0 171h76.5"></path><g class="non-terminal">
<path d="M764.0 171h0"></path><path d="M852.0 171h0.0"></path><rect height="22" width="88.0" x="764.0" y="160"></rect><text x="808.0" y="175">-threads</text></g><path d="M852.0 171h10"></path><path d="M862.0 171h10"></path><g class="terminal">
<path d="M872.0 171h0"></path><path d="M1011.0 171h0.0"></path><rect height="22" rx="10" ry="10" width="139.0" x="872.0" y="160"></rect><text x="941.5" y="175">{Thread count}</text></g></g><path d="M1087.5 171a10 10 0 0 0 10 -10v-30"></path><path d="M754.0 121v70a10 10 0 0 0 10 10"></path><g>
<path d="M764.0 201h0"></path><path d="M1045.0 201h42.5"></path><g class="non-terminal">
<path d="M764.0 201h0"></path><path d="M911.5 201h0.0"></path><rect height="22" width="147.5" x="764.0" y="190"></rect><text x="837.75" y="205">-parameter-sets</text></g><path d="M911.5 201h10"></path><path d="M921.5 201h10"></path><g class="terminal">
<path d="M931.5 201h0"></path><path d="M1045.0 201h0.0"></path><rect height="22" rx="10" ry="10" width="113.5" x="931.5" y="190"></rect><text x="988.25" y="205">{Directory}</text></g></g><path d="M1087.5 201a10 10 0 0 0 10 -10v-60"></path><path d="M754.0 121v100a10 10 0 0 0 10 10"></path><g>
<path d="M764.0 231h0"></path><path d="M920.0 231h167.5"></path><g class="non-terminal">
<path d="M764.0 231h0"></path><path d="M920.0 231h0.0"></path><rect height="22" width="156.0" x="764.0" y="220"></rect><text x="842.0" y="235">-exclude-designs</text></g></g><path d="M1087.5 231a10 10 0 0 0 10 -10v-90"></path><path d="M754.0 121v130a10 10 0 0 0 10 10"></path><g>
<path d="M764.0 261h0"></path><path d="M869.0 261h218.5"></path><g class="non-terminal">
<path d="M764.0 261h0"></path><path d="M869.0 261h0.0"></path><rect height="22" width="105.0" x="764.0" y="250"></rect><text x="816.5" y="265">-whitelist</text></g></g><path d="M1087.5 261a10 10 0 0 0 10 -10v-120"></path><g class="diagram-text">
<title>take one or more branches, once each, in any order</title><path class="diagram-text" d="M 754.0 111 h -26 a 4 4 0 0 0 -4 4 v 12 a 4 4 0 0 0 4 4 h 26 z"></path><text class="diagram-text" x="739.0" y="125">1+</text><path class="diagram-text" d="M 1097.5 111 h 16 a 4 4 0 0 1 4 4 v 12 a 4 4 0 0 1 -4 4 h -16 z"></path><text class="diagram-arrow" x="1107.5" y="125">↺</text></g></g></g><path d="M1117.5 121a10 10 0 0 0 10 -10v-10a10 10 0 0 1 10 -10"></path></g></g><path d="M1137.5 91a10 10 0 0 0 10 -10v-10a10 10 0 0 1 10 -10"></path></g></g><path d="M1157.5 61a10 10 0 0 0 10 -10v-10a10 10 0 0 1 10 -10"></path></g><path d="M 1177.5 31 h 20 m -10 -10 v 20 m 10 -20 v 20"></path></g></svg>