<svg class="railroad-diagram" height="182" viewBox="0 0 753.0 182" width="753.0" xmlns="http://www.w3.org/2000/svg" xmlns:xlink="http://www.w3.org/1999/xlink">
<g>
<style>/* <![CDATA[ */
	svg.railroad-diagram {
		background-color: white;
	}
	svg.railroad-diagram path {
		stroke-width:2;
		stroke:black;
		fill: rgba(255, 255, 255, 1.0);
	}
	svg.railroad-diagram text {
		font:bold 14px monospace;
		text-anchor:middle;
	}
	svg.railroad-diagram text.arrow {
		font:bold 24px monospace;
		text-anchor:middle;
	}
	svg.railroad-diagram text.label{
		text-anchor:start;
	}
	svg.railroad-diagram text.comment{
		font:italic 12px monospace;
	}
	svg.railroad-diagram rect{
		stroke-width:2;
		stroke:black;
		fill:white;
	}

/* ]]> */
</style><g>
<path d="M20 21v20m10 -20v20m-10 -10h20"></path></g><path d="M40 31h10"></path><g class="non-terminal">
<path d="M50 31h0"></path><path d="M104.0 31h0.0"></path><rect height="22" width="54.0" x="50" y="20"></rect><text x="77.0" y="35">mcix</text></g><path d="M104.0 31h10"></path><g>
<path d="M114.0 31h0"></path><path d="M713.0 31h0.0"></path><path d="M114.0 31h20"></path><g class="terminal">
<path d="M134.0 31h0"></path><path d="M188.0 31h505.0"></path><rect height="22" rx="10" ry="10" width="54.0" x="134.0" y="20"></rect><text x="161.0" y="35">help</text></g><path d="M693.0 31h20"></path><path d="M114.0 31a10 10 0 0 1 10 10v10a10 10 0 0 0 10 10"></path><g>
<path d="M134.0 61h0"></path><path d="M693.0 61h0.0"></path><g class="non-terminal">
<path d="M134.0 61h0"></path><path d="M179.5 61h0.0"></path><rect height="22" width="45.5" x="134.0" y="50"></rect><text x="156.75" y="65">isx</text></g><path d="M179.5 61h10"></path><g>
<path d="M189.5 61h0"></path><path d="M693.0 61h0.0"></path><path d="M189.5 61h20"></path><g class="terminal">
<path d="M209.5 61h0"></path><path d="M263.5 61h409.5"></path><rect height="22" rx="10" ry="10" width="54.0" x="209.5" y="50"></rect><text x="236.5" y="65">help</text></g><path d="M673.0 61h20"></path><path d="M189.5 61a10 10 0 0 1 10 10v10a10 10 0 0 0 10 10"></path><g>
<path d="M209.5 91h0"></path><path d="M673.0 91h0.0"></path><g class="non-terminal">
<path d="M209.5 91h0"></path><path d="M365.5 91h0.0"></path><rect height="22" width="156.0" x="209.5" y="80"></rect><text x="287.5" y="95">message-handlers</text></g><path d="M365.5 91h10"></path><g>
<path d="M375.5 91h0"></path><path d="M673.0 91h0.0"></path><path d="M375.5 91h20"></path><g class="terminal">
<path d="M395.5 91h0"></path><path d="M449.5 91h203.5"></path><rect height="22" rx="10" ry="10" width="54.0" x="395.5" y="80"></rect><text x="422.5" y="95">help</text></g><path d="M653.0 91h20"></path><path d="M375.5 91a10 10 0 0 1 10 10v10a10 10 0 0 0 10 10"></path><g>
<path d="M395.5 121h0"></path><path d="M653.0 121h0.0"></path><g>
<path d="M395.5 121h0"></path><path d="M653.0 121h0.0"></path><path d="M425.5 121h10"></path><g>
<path d="M435.5 121h0"></path><path d="M623.0 121h0.0"></path><g class="non-terminal">
<path d="M435.5 121h0"></path><path d="M489.5 121h0.0"></path><rect height="22" width="54.0" x="435.5" y="110"></rect><text x="462.5" y="125">-isx</text></g><path d="M489.5 121h10"></path><path d="M499.5 121h10"></path><g class="terminal">
<path d="M509.5 121h0"></path><path d="M623.0 121h0.0"></path><rect height="22" rx="10" ry="10" width="113.5" x="509.5" y="110"></rect><text x="566.25" y="125">{directory}</text></g></g><path d="M623.0 121h10"></path><path d="M425.5 121v20a10 10 0 0 0 10 10"></path><g>
<path d="M435.5 151h0"></path><path d="M623.0 151h0.0"></path><g class="non-terminal">
<path d="M435.5 151h0"></path><path d="M489.5 151h0.0"></path><rect height="22" width="54.0" x="435.5" y="140"></rect><text x="462.5" y="155">-msh</text></g><path d="M489.5 151h10"></path><path d="M499.5 151h10"></path><g class="terminal">
<path d="M509.5 151h0"></path><path d="M623.0 151h0.0"></path><rect height="22" rx="10" ry="10" width="113.5" x="509.5" y="140"></rect><text x="566.25" y="155">{directory}</text></g></g><path d="M623.0 151a10 10 0 0 0 10 -10v-10"></path><g class="diagram-text">
<title>take all branches, once each, in any order</title><path class="diagram-text" d="M 425.5 111 h -26 a 4 4 0 0 0 -4 4 v 12 a 4 4 0 0 0 4 4 h 26 z"></path><text class="diagram-text" x="410.5" y="125">all</text><path class="diagram-text" d="M 633.0 111 h 16 a 4 4 0 0 1 4 4 v 12 a 4 4 0 0 1 -4 4 h -16 z"></path><text class="diagram-arrow" x="643.0" y="125">↺</text></g></g></g><path d="M653.0 121a10 10 0 0 0 10 -10v-10a10 10 0 0 1 10 -10"></path></g></g><path d="M673.0 91a10 10 0 0 0 10 -10v-10a10 10 0 0 1 10 -10"></path></g></g><path d="M693.0 61a10 10 0 0 0 10 -10v-10a10 10 0 0 1 10 -10"></path></g><path d="M 713.0 31 h 20 m -10 -10 v 20 m 10 -20 v 20"></path></g></svg>