<svg class="railroad-diagram" height="182" viewBox="0 0 676.5 182" width="676.5" xmlns="http://www.w3.org/2000/svg" xmlns:xlink="http://www.w3.org/1999/xlink">
<g>
<style>/* <![CDATA[ */
	svg.railroad-diagram {
		background-color: white;
	}
	svg.railroad-diagram path {
		stroke-width:2;
		stroke:black;
		fill: rgba(255, 255, 255, 1.0);
	}
	svg.railroad-diagram text {
		font:bold 14px monospace;
		text-anchor:middle;
	}
	svg.railroad-diagram text.arrow {
		font:bold 24px monospace;
		text-anchor:middle;
	}
	svg.railroad-diagram text.label{
		text-anchor:start;
	}
	svg.railroad-diagram text.comment{
		font:italic 12px monospace;
	}
	svg.railroad-diagram rect{
		stroke-width:2;
		stroke:black;
		fill:white;
	}

/* ]]> */
</style><g>
<path d="M20 21v20m10 -20v20m-10 -10h20"></path></g><path d="M40 31h10"></path><g class="non-terminal">
<path d="M50 31h0"></path><path d="M138.0 31h0.0"></path><rect height="22" width="88.0" x="50" y="20"></rect><text x="94.0" y="35">mettleci</text></g><path d="M138.0 31h10"></path><g>
<path d="M148.0 31h0"></path><path d="M636.5 31h0.0"></path><path d="M148.0 31h20"></path><g class="terminal">
<path d="M168.0 31h0"></path><path d="M222.0 31h394.5"></path><rect height="22" rx="10" ry="10" width="54.0" x="168.0" y="20"></rect><text x="195.0" y="35">help</text></g><path d="M616.5 31h20"></path><path d="M148.0 31a10 10 0 0 1 10 10v10a10 10 0 0 0 10 10"></path><g>
<path d="M168.0 61h0"></path><path d="M616.5 61h0.0"></path><g class="non-terminal">
<path d="M168.0 61h0"></path><path d="M213.5 61h0.0"></path><rect height="22" width="45.5" x="168.0" y="50"></rect><text x="190.75" y="65">isx</text></g><path d="M213.5 61h10"></path><g>
<path d="M223.5 61h0"></path><path d="M616.5 61h0.0"></path><path d="M223.5 61h20"></path><g class="terminal">
<path d="M243.5 61h0"></path><path d="M297.5 61h299.0"></path><rect height="22" rx="10" ry="10" width="54.0" x="243.5" y="50"></rect><text x="270.5" y="65">help</text></g><path d="M596.5 61h20"></path><path d="M223.5 61a10 10 0 0 1 10 10v10a10 10 0 0 0 10 10"></path><g>
<path d="M243.5 91h0"></path><path d="M596.5 91h0.0"></path><g class="non-terminal">
<path d="M243.5 91h0"></path><path d="M289.0 91h0.0"></path><rect height="22" width="45.5" x="243.5" y="80"></rect><text x="266.25" y="95">cut</text></g><path d="M289.0 91h10"></path><g>
<path d="M299.0 91h0"></path><path d="M596.5 91h0.0"></path><path d="M299.0 91h20"></path><g class="terminal">
<path d="M319.0 91h0"></path><path d="M373.0 91h203.5"></path><rect height="22" rx="10" ry="10" width="54.0" x="319.0" y="80"></rect><text x="346.0" y="95">help</text></g><path d="M576.5 91h20"></path><path d="M299.0 91a10 10 0 0 1 10 10v10a10 10 0 0 0 10 10"></path><g>
<path d="M319.0 121h0"></path><path d="M576.5 121h0.0"></path><g>
<path d="M319.0 121h0"></path><path d="M576.5 121h0.0"></path><path d="M349.0 121h10"></path><g>
<path d="M359.0 121h0"></path><path d="M546.5 121h0.0"></path><g class="non-terminal">
<path d="M359.0 121h0"></path><path d="M413.0 121h0.0"></path><rect height="22" width="54.0" x="359.0" y="110"></rect><text x="386.0" y="125">-dir</text></g><path d="M413.0 121h10"></path><path d="M423.0 121h10"></path><g class="terminal">
<path d="M433.0 121h0"></path><path d="M546.5 121h0.0"></path><rect height="22" rx="10" ry="10" width="113.5" x="433.0" y="110"></rect><text x="489.75" y="125">{directory}</text></g></g><path d="M546.5 121h10"></path><path d="M349.0 121v20a10 10 0 0 0 10 10"></path><g>
<path d="M359.0 151h0"></path><path d="M538.0 151h8.5"></path><g class="non-terminal">
<path d="M359.0 151h0"></path><path d="M413.0 151h0.0"></path><rect height="22" width="54.0" x="359.0" y="140"></rect><text x="386.0" y="155">-isx</text></g><path d="M413.0 151h10"></path><path d="M423.0 151h10"></path><g class="terminal">
<path d="M433.0 151h0"></path><path d="M538.0 151h0.0"></path><rect height="22" rx="10" ry="10" width="105.0" x="433.0" y="140"></rect><text x="485.5" y="155">{filename}</text></g></g><path d="M546.5 151a10 10 0 0 0 10 -10v-10"></path><g class="diagram-text">
<title>take all branches, once each, in any order</title><path class="diagram-text" d="M 349.0 111 h -26 a 4 4 0 0 0 -4 4 v 12 a 4 4 0 0 0 4 4 h 26 z"></path><text class="diagram-text" x="334.0" y="125">all</text><path class="diagram-text" d="M 556.5 111 h 16 a 4 4 0 0 1 4 4 v 12 a 4 4 0 0 1 -4 4 h -16 z"></path><text class="diagram-arrow" x="566.5" y="125">↺</text></g></g></g><path d="M576.5 121a10 10 0 0 0 10 -10v-10a10 10 0 0 1 10 -10"></path></g></g><path d="M596.5 91a10 10 0 0 0 10 -10v-10a10 10 0 0 1 10 -10"></path></g></g><path d="M616.5 61a10 10 0 0 0 10 -10v-10a10 10 0 0 1 10 -10"></path></g><path d="M 636.5 31 h 20 m -10 -10 v 20 m 10 -20 v 20"></path></g></svg>