<svg class="railroad-diagram" height="152" viewBox="0 0 1149.5 152" width="1149.5" xmlns="http://www.w3.org/2000/svg" xmlns:xlink="http://www.w3.org/1999/xlink">
<g>
<style>/* <![CDATA[ */
	svg.railroad-diagram {
		background-color: white;
	}
	svg.railroad-diagram path {
		stroke-width:2;
		stroke:black;
		fill: rgba(255, 255, 255, 1.0);
	}
	svg.railroad-diagram text {
		font:bold 14px monospace;
		text-anchor:middle;
	}
	svg.railroad-diagram text.arrow {
		font:bold 24px monospace;
		text-anchor:middle;
	}
	svg.railroad-diagram text.label{
		text-anchor:start;
	}
	svg.railroad-diagram text.comment{
		font:italic 12px monospace;
	}
	svg.railroad-diagram rect{
		stroke-width:2;
		stroke:black;
		fill:white;
	}

/* ]]> */
</style><g>
<path d="M20 21v20m10 -20v20m-10 -10h20"></path></g><path d="M40 31h10"></path><g class="non-terminal">
<path d="M50 31h0"></path><path d="M104.0 31h0.0"></path><rect height="22" width="54.0" x="50" y="20"></rect><text x="77.0" y="35">mcix</text></g><path d="M104.0 31h10"></path><g>
<path d="M114.0 31h0"></path><path d="M1109.5 31h0.0"></path><path d="M114.0 31h20"></path><g class="terminal">
<path d="M134.0 31h0"></path><path d="M188.0 31h901.5"></path><rect height="22" rx="10" ry="10" width="54.0" x="134.0" y="20"></rect><text x="161.0" y="35">help</text></g><path d="M1089.5 31h20"></path><path d="M114.0 31a10 10 0 0 1 10 10v10a10 10 0 0 0 10 10"></path><g>
<path d="M134.0 61h0"></path><path d="M1089.5 61h0.0"></path><g class="non-terminal">
<path d="M134.0 61h0"></path><path d="M179.5 61h0.0"></path><rect height="22" width="45.5" x="134.0" y="50"></rect><text x="156.75" y="65">isx</text></g><path d="M179.5 61h10"></path><g>
<path d="M189.5 61h0"></path><path d="M1089.5 61h0.0"></path><path d="M189.5 61h20"></path><g class="terminal">
<path d="M209.5 61h0"></path><path d="M263.5 61h806.0"></path><rect height="22" rx="10" ry="10" width="54.0" x="209.5" y="50"></rect><text x="236.5" y="65">help</text></g><path d="M1069.5 61h20"></path><path d="M189.5 61a10 10 0 0 1 10 10v10a10 10 0 0 0 10 10"></path><g>
<path d="M209.5 91h0"></path><path d="M1069.5 91h0.0"></path><g class="non-terminal">
<path d="M209.5 91h0"></path><path d="M314.5 91h0.0"></path><rect height="22" width="105.0" x="209.5" y="80"></rect><text x="262.0" y="95">set-params</text></g><path d="M314.5 91h10"></path><g>
<path d="M324.5 91h0"></path><path d="M1069.5 91h0.0"></path><path d="M324.5 91h20"></path><g class="terminal">
<path d="M344.5 91h0"></path><path d="M398.5 91h651.0"></path><rect height="22" rx="10" ry="10" width="54.0" x="344.5" y="80"></rect><text x="371.5" y="95">help</text></g><path d="M1049.5 91h20"></path><path d="M324.5 91a10 10 0 0 1 10 10v10a10 10 0 0 0 10 10"></path><g>
<path d="M344.5 121h0"></path><path d="M1049.5 121h0.0"></path><g>
<path d="M344.5 121h0"></path><path d="M712.5 121h0.0"></path><path d="M374.5 121h10"></path><g>
<path d="M384.5 121h0"></path><path d="M682.5 121h0.0"></path><g class="non-terminal">
<path d="M384.5 121h0"></path><path d="M472.5 121h0.0"></path><rect height="22" width="88.0" x="384.5" y="110"></rect><text x="428.5" y="125">-pattern</text></g><path d="M472.5 121h10"></path><path d="M482.5 121h10"></path><g class="terminal">
<path d="M492.5 121h0"></path><path d="M682.5 121h0.0"></path><rect height="22" rx="10" ry="10" width="190.0" x="492.5" y="110"></rect><text x="587.5" y="125">{File specification}</text></g></g><path d="M682.5 121h10"></path><g class="diagram-text">
<title>take one or more branches, once each, in any order</title><path class="diagram-text" d="M 374.5 111 h -26 a 4 4 0 0 0 -4 4 v 12 a 4 4 0 0 0 4 4 h 26 z"></path><text class="diagram-text" x="359.5" y="125">1+</text><path class="diagram-text" d="M 692.5 111 h 16 a 4 4 0 0 1 4 4 v 12 a 4 4 0 0 1 -4 4 h -16 z"></path><text class="diagram-arrow" x="702.5" y="125">↺</text></g></g><path d="M712.5 121h10"></path><path d="M722.5 121h10"></path><g>
<path d="M732.5 121h0"></path><path d="M1049.5 121h0.0"></path><path d="M762.5 121h10"></path><g>
<path d="M772.5 121h0"></path><path d="M1019.5 121h0.0"></path><g class="non-terminal">
<path d="M772.5 121h0"></path><path d="M809.5 121h0.0"></path><rect height="22" width="37.0" x="772.5" y="110"></rect><text x="791.0" y="125">-P</text></g><path d="M809.5 121h10"></path><path d="M819.5 121h10"></path><g class="terminal">
<path d="M829.5 121h0"></path><path d="M1019.5 121h0.0"></path><rect height="22" rx="10" ry="10" width="190.0" x="829.5" y="110"></rect><text x="924.5" y="125">"{Variable}={Value}"</text></g></g><path d="M1019.5 121h10"></path><g class="diagram-text">
<title>take one or more branches, once each, in any order</title><path class="diagram-text" d="M 762.5 111 h -26 a 4 4 0 0 0 -4 4 v 12 a 4 4 0 0 0 4 4 h 26 z"></path><text class="diagram-text" x="747.5" y="125">1+</text><path class="diagram-text" d="M 1029.5 111 h 16 a 4 4 0 0 1 4 4 v 12 a 4 4 0 0 1 -4 4 h -16 z"></path><text class="diagram-arrow" x="1039.5" y="125">↺</text></g></g></g><path d="M1049.5 121a10 10 0 0 0 10 -10v-10a10 10 0 0 1 10 -10"></path></g></g><path d="M1069.5 91a10 10 0 0 0 10 -10v-10a10 10 0 0 1 10 -10"></path></g></g><path d="M1089.5 61a10 10 0 0 0 10 -10v-10a10 10 0 0 1 10 -10"></path></g><path d="M 1109.5 31 h 20 m -10 -10 v 20 m 10 -20 v 20"></path></g></svg>