<svg class="railroad-diagram" height="182" viewBox="0 0 642.5 182" width="642.5" xmlns="http://www.w3.org/2000/svg" xmlns:xlink="http://www.w3.org/1999/xlink">
<g>
<style>/* <![CDATA[ */
	svg.railroad-diagram {
		background-color: white;
	}
	svg.railroad-diagram path {
		stroke-width:2;
		stroke:black;
		fill: rgba(255, 255, 255, 1.0);
	}
	svg.railroad-diagram text {
		font:bold 14px monospace;
		text-anchor:middle;
	}
	svg.railroad-diagram text.arrow {
		font:bold 24px monospace;
		text-anchor:middle;
	}
	svg.railroad-diagram text.label{
		text-anchor:start;
	}
	svg.railroad-diagram text.comment{
		font:italic 12px monospace;
	}
	svg.railroad-diagram rect{
		stroke-width:2;
		stroke:black;
		fill:white;
	}

/* ]]> */
</style><g>
<path d="M20 21v20m10 -20v20m-10 -10h20"></path></g><path d="M40 31h10"></path><g class="non-terminal">
<path d="M50 31h0"></path><path d="M104.0 31h0.0"></path><rect height="22" width="54.0" x="50" y="20"></rect><text x="77.0" y="35">mcix</text></g><path d="M104.0 31h10"></path><g>
<path d="M114.0 31h0"></path><path d="M602.5 31h0.0"></path><path d="M114.0 31h20"></path><g class="terminal">
<path d="M134.0 31h0"></path><path d="M188.0 31h394.5"></path><rect height="22" rx="10" ry="10" width="54.0" x="134.0" y="20"></rect><text x="161.0" y="35">help</text></g><path d="M582.5 31h20"></path><path d="M114.0 31a10 10 0 0 1 10 10v10a10 10 0 0 0 10 10"></path><g>
<path d="M134.0 61h0"></path><path d="M582.5 61h0.0"></path><g class="non-terminal">
<path d="M134.0 61h0"></path><path d="M179.5 61h0.0"></path><rect height="22" width="45.5" x="134.0" y="50"></rect><text x="156.75" y="65">isx</text></g><path d="M179.5 61h10"></path><g>
<path d="M189.5 61h0"></path><path d="M582.5 61h0.0"></path><path d="M189.5 61h20"></path><g class="terminal">
<path d="M209.5 61h0"></path><path d="M263.5 61h299.0"></path><rect height="22" rx="10" ry="10" width="54.0" x="209.5" y="50"></rect><text x="236.5" y="65">help</text></g><path d="M562.5 61h20"></path><path d="M189.5 61a10 10 0 0 1 10 10v10a10 10 0 0 0 10 10"></path><g>
<path d="M209.5 91h0"></path><path d="M562.5 91h0.0"></path><g class="non-terminal">
<path d="M209.5 91h0"></path><path d="M255.0 91h0.0"></path><rect height="22" width="45.5" x="209.5" y="80"></rect><text x="232.25" y="95">cut</text></g><path d="M255.0 91h10"></path><g>
<path d="M265.0 91h0"></path><path d="M562.5 91h0.0"></path><path d="M265.0 91h20"></path><g class="terminal">
<path d="M285.0 91h0"></path><path d="M339.0 91h203.5"></path><rect height="22" rx="10" ry="10" width="54.0" x="285.0" y="80"></rect><text x="312.0" y="95">help</text></g><path d="M542.5 91h20"></path><path d="M265.0 91a10 10 0 0 1 10 10v10a10 10 0 0 0 10 10"></path><g>
<path d="M285.0 121h0"></path><path d="M542.5 121h0.0"></path><g>
<path d="M285.0 121h0"></path><path d="M542.5 121h0.0"></path><path d="M315.0 121h10"></path><g>
<path d="M325.0 121h0"></path><path d="M512.5 121h0.0"></path><g class="non-terminal">
<path d="M325.0 121h0"></path><path d="M379.0 121h0.0"></path><rect height="22" width="54.0" x="325.0" y="110"></rect><text x="352.0" y="125">-dir</text></g><path d="M379.0 121h10"></path><path d="M389.0 121h10"></path><g class="terminal">
<path d="M399.0 121h0"></path><path d="M512.5 121h0.0"></path><rect height="22" rx="10" ry="10" width="113.5" x="399.0" y="110"></rect><text x="455.75" y="125">{directory}</text></g></g><path d="M512.5 121h10"></path><path d="M315.0 121v20a10 10 0 0 0 10 10"></path><g>
<path d="M325.0 151h0"></path><path d="M504.0 151h8.5"></path><g class="non-terminal">
<path d="M325.0 151h0"></path><path d="M379.0 151h0.0"></path><rect height="22" width="54.0" x="325.0" y="140"></rect><text x="352.0" y="155">-isx</text></g><path d="M379.0 151h10"></path><path d="M389.0 151h10"></path><g class="terminal">
<path d="M399.0 151h0"></path><path d="M504.0 151h0.0"></path><rect height="22" rx="10" ry="10" width="105.0" x="399.0" y="140"></rect><text x="451.5" y="155">{filename}</text></g></g><path d="M512.5 151a10 10 0 0 0 10 -10v-10"></path><g class="diagram-text">
<title>take all branches, once each, in any order</title><path class="diagram-text" d="M 315.0 111 h -26 a 4 4 0 0 0 -4 4 v 12 a 4 4 0 0 0 4 4 h 26 z"></path><text class="diagram-text" x="300.0" y="125">all</text><path class="diagram-text" d="M 522.5 111 h 16 a 4 4 0 0 1 4 4 v 12 a 4 4 0 0 1 -4 4 h -16 z"></path><text class="diagram-arrow" x="532.5" y="125">↺</text></g></g></g><path d="M542.5 121a10 10 0 0 0 10 -10v-10a10 10 0 0 1 10 -10"></path></g></g><path d="M562.5 91a10 10 0 0 0 10 -10v-10a10 10 0 0 1 10 -10"></path></g></g><path d="M582.5 61a10 10 0 0 0 10 -10v-10a10 10 0 0 1 10 -10"></path></g><path d="M 602.5 31 h 20 m -10 -10 v 20 m 10 -20 v 20"></path></g></svg>