<svg class="railroad-diagram" height="182" viewBox="0 0 787.0 182" width="787.0" xmlns="http://www.w3.org/2000/svg" xmlns:xlink="http://www.w3.org/1999/xlink">
<g>
<style>/* <![CDATA[ */
	svg.railroad-diagram {
		background-color: white;
	}
	svg.railroad-diagram path {
		stroke-width:2;
		stroke:black;
		fill: rgba(255, 255, 255, 1.0);
	}
	svg.railroad-diagram text {
		font:bold 14px monospace;
		text-anchor:middle;
	}
	svg.railroad-diagram text.arrow {
		font:bold 24px monospace;
		text-anchor:middle;
	}
	svg.railroad-diagram text.label{
		text-anchor:start;
	}
	svg.railroad-diagram text.comment{
		font:italic 12px monospace;
	}
	svg.railroad-diagram rect{
		stroke-width:2;
		stroke:black;
		fill:white;
	}

/* ]]> */
</style><g>
<path d="M20 21v20m10 -20v20m-10 -10h20"></path></g><path d="M40 31h10"></path><g class="non-terminal">
<path d="M50 31h0"></path><path d="M138.0 31h0.0"></path><rect height="22" width="88.0" x="50" y="20"></rect><text x="94.0" y="35">mettleci</text></g><path d="M138.0 31h10"></path><g>
<path d="M148.0 31h0"></path><path d="M747.0 31h0.0"></path><path d="M148.0 31h20"></path><g class="terminal">
<path d="M168.0 31h0"></path><path d="M222.0 31h505.0"></path><rect height="22" rx="10" ry="10" width="54.0" x="168.0" y="20"></rect><text x="195.0" y="35">help</text></g><path d="M727.0 31h20"></path><path d="M148.0 31a10 10 0 0 1 10 10v10a10 10 0 0 0 10 10"></path><g>
<path d="M168.0 61h0"></path><path d="M727.0 61h0.0"></path><g class="non-terminal">
<path d="M168.0 61h0"></path><path d="M213.5 61h0.0"></path><rect height="22" width="45.5" x="168.0" y="50"></rect><text x="190.75" y="65">isx</text></g><path d="M213.5 61h10"></path><g>
<path d="M223.5 61h0"></path><path d="M727.0 61h0.0"></path><path d="M223.5 61h20"></path><g class="terminal">
<path d="M243.5 61h0"></path><path d="M297.5 61h409.5"></path><rect height="22" rx="10" ry="10" width="54.0" x="243.5" y="50"></rect><text x="270.5" y="65">help</text></g><path d="M707.0 61h20"></path><path d="M223.5 61a10 10 0 0 1 10 10v10a10 10 0 0 0 10 10"></path><g>
<path d="M243.5 91h0"></path><path d="M707.0 91h0.0"></path><g class="non-terminal">
<path d="M243.5 91h0"></path><path d="M399.5 91h0.0"></path><rect height="22" width="156.0" x="243.5" y="80"></rect><text x="321.5" y="95">message-handlers</text></g><path d="M399.5 91h10"></path><g>
<path d="M409.5 91h0"></path><path d="M707.0 91h0.0"></path><path d="M409.5 91h20"></path><g class="terminal">
<path d="M429.5 91h0"></path><path d="M483.5 91h203.5"></path><rect height="22" rx="10" ry="10" width="54.0" x="429.5" y="80"></rect><text x="456.5" y="95">help</text></g><path d="M687.0 91h20"></path><path d="M409.5 91a10 10 0 0 1 10 10v10a10 10 0 0 0 10 10"></path><g>
<path d="M429.5 121h0"></path><path d="M687.0 121h0.0"></path><g>
<path d="M429.5 121h0"></path><path d="M687.0 121h0.0"></path><path d="M459.5 121h10"></path><g>
<path d="M469.5 121h0"></path><path d="M657.0 121h0.0"></path><g class="non-terminal">
<path d="M469.5 121h0"></path><path d="M523.5 121h0.0"></path><rect height="22" width="54.0" x="469.5" y="110"></rect><text x="496.5" y="125">-isx</text></g><path d="M523.5 121h10"></path><path d="M533.5 121h10"></path><g class="terminal">
<path d="M543.5 121h0"></path><path d="M657.0 121h0.0"></path><rect height="22" rx="10" ry="10" width="113.5" x="543.5" y="110"></rect><text x="600.25" y="125">{directory}</text></g></g><path d="M657.0 121h10"></path><path d="M459.5 121v20a10 10 0 0 0 10 10"></path><g>
<path d="M469.5 151h0"></path><path d="M657.0 151h0.0"></path><g class="non-terminal">
<path d="M469.5 151h0"></path><path d="M523.5 151h0.0"></path><rect height="22" width="54.0" x="469.5" y="140"></rect><text x="496.5" y="155">-msh</text></g><path d="M523.5 151h10"></path><path d="M533.5 151h10"></path><g class="terminal">
<path d="M543.5 151h0"></path><path d="M657.0 151h0.0"></path><rect height="22" rx="10" ry="10" width="113.5" x="543.5" y="140"></rect><text x="600.25" y="155">{directory}</text></g></g><path d="M657.0 151a10 10 0 0 0 10 -10v-10"></path><g class="diagram-text">
<title>take all branches, once each, in any order</title><path class="diagram-text" d="M 459.5 111 h -26 a 4 4 0 0 0 -4 4 v 12 a 4 4 0 0 0 4 4 h 26 z"></path><text class="diagram-text" x="444.5" y="125">all</text><path class="diagram-text" d="M 667.0 111 h 16 a 4 4 0 0 1 4 4 v 12 a 4 4 0 0 1 -4 4 h -16 z"></path><text class="diagram-arrow" x="677.0" y="125">↺</text></g></g></g><path d="M687.0 121a10 10 0 0 0 10 -10v-10a10 10 0 0 1 10 -10"></path></g></g><path d="M707.0 91a10 10 0 0 0 10 -10v-10a10 10 0 0 1 10 -10"></path></g></g><path d="M727.0 61a10 10 0 0 0 10 -10v-10a10 10 0 0 1 10 -10"></path></g><path d="M 747.0 31 h 20 m -10 -10 v 20 m 10 -20 v 20"></path></g></svg>