<svg class="railroad-diagram" height="221" viewBox="0 0 950.5 221" width="950.5" xmlns="http://www.w3.org/2000/svg" xmlns:xlink="http://www.w3.org/1999/xlink">
<g>
<style>/* <![CDATA[ */
	svg.railroad-diagram {
		background-color: white;
	}
	svg.railroad-diagram path {
		stroke-width:2;
		stroke:black;
		fill: rgba(255, 255, 255, 1.0);
	}
	svg.railroad-diagram text {
		font:bold 14px monospace;
		text-anchor:middle;
	}
	svg.railroad-diagram text.arrow {
		font:bold 24px monospace;
		text-anchor:middle;
	}
	svg.railroad-diagram text.label{
		text-anchor:start;
	}
	svg.railroad-diagram text.comment{
		font:italic 12px monospace;
	}
	svg.railroad-diagram rect{
		stroke-width:2;
		stroke:black;
		fill:white;
	}

/* ]]> */
</style><g>
<path d="M20 21v20m10 -20v20m-10 -10h20"></path></g><path d="M40 31h10"></path><g class="non-terminal">
<path d="M50 31h0"></path><path d="M104.0 31h0.0"></path><rect height="22" width="54.0" x="50" y="20"></rect><text x="77.0" y="35">mcix</text></g><path d="M104.0 31h10"></path><g>
<path d="M114.0 31h0"></path><path d="M910.5 31h0.0"></path><path d="M114.0 31h20"></path><g class="terminal">
<path d="M134.0 31h0"></path><path d="M188.0 31h702.5"></path><rect height="22" rx="10" ry="10" width="54.0" x="134.0" y="20"></rect><text x="161.0" y="35">help</text></g><path d="M890.5 31h20"></path><path d="M114.0 31a10 10 0 0 1 10 10v10a10 10 0 0 0 10 10"></path><g>
<path d="M134.0 61h0"></path><path d="M890.5 61h0.0"></path><g class="non-terminal">
<path d="M134.0 61h0"></path><path d="M239.0 61h0.0"></path><rect height="22" width="105.0" x="134.0" y="50"></rect><text x="186.5" y="65">properties</text></g><path d="M239.0 61h10"></path><g>
<path d="M249.0 61h0"></path><path d="M890.5 61h0.0"></path><path d="M249.0 61h20"></path><g class="terminal">
<path d="M269.0 61h0"></path><path d="M323.0 61h547.5"></path><rect height="22" rx="10" ry="10" width="54.0" x="269.0" y="50"></rect><text x="296.0" y="65">help</text></g><path d="M870.5 61h20"></path><path d="M249.0 61a10 10 0 0 1 10 10v10a10 10 0 0 0 10 10"></path><g>
<path d="M269.0 91h0"></path><path d="M870.5 91h0.0"></path><g class="non-terminal">
<path d="M269.0 91h0"></path><path d="M340.0 91h0.0"></path><rect height="22" width="71.0" x="269.0" y="80"></rect><text x="304.5" y="95">config</text></g><path d="M340.0 91h10"></path><g>
<path d="M350.0 91h0"></path><path d="M870.5 91h0.0"></path><path d="M350.0 91h20"></path><g class="terminal">
<path d="M370.0 91h0"></path><path d="M424.0 91h426.5"></path><rect height="22" rx="10" ry="10" width="54.0" x="370.0" y="80"></rect><text x="397.0" y="95">help</text></g><path d="M850.5 91h20"></path><path d="M350.0 91a10 10 0 0 1 10 10v19a10 10 0 0 0 10 10"></path><g>
<path d="M370.0 130h0"></path><path d="M850.5 130h0.0"></path><g>
<path d="M370.0 130h0"></path><path d="M678.5 130h0.0"></path><path d="M400.0 130h10"></path><g>
<path d="M410.0 130h0"></path><path d="M623.0 130h25.5"></path><g class="non-terminal">
<path d="M410.0 130h0"></path><path d="M498.0 130h0.0"></path><rect height="22" width="88.0" x="410.0" y="119"></rect><text x="454.0" y="134">-baseDir</text></g><path d="M498.0 130h10"></path><path d="M508.0 130h10"></path><g class="terminal">
<path d="M518.0 130h0"></path><path d="M623.0 130h0.0"></path><rect height="22" rx="10" ry="10" width="105.0" x="518.0" y="119"></rect><text x="570.5" y="134">{filename}</text></g></g><path d="M648.5 130h10"></path><path d="M400.0 130v20a10 10 0 0 0 10 10"></path><g>
<path d="M410.0 160h0"></path><path d="M648.5 160h0.0"></path><g class="non-terminal">
<path d="M410.0 160h0"></path><path d="M523.5 160h0.0"></path><rect height="22" width="113.5" x="410.0" y="149"></rect><text x="466.75" y="164">-properties</text></g><path d="M523.5 160h10"></path><path d="M533.5 160h10"></path><g class="terminal">
<path d="M543.5 160h0"></path><path d="M648.5 160h0.0"></path><rect height="22" rx="10" ry="10" width="105.0" x="543.5" y="149"></rect><text x="596.0" y="164">{filename}</text></g></g><path d="M648.5 160a10 10 0 0 0 10 -10v-10"></path><path d="M400.0 130v50a10 10 0 0 0 10 10"></path><g>
<path d="M410.0 190h0"></path><path d="M623.0 190h25.5"></path><g class="non-terminal">
<path d="M410.0 190h0"></path><path d="M489.5 190h0.0"></path><rect height="22" width="79.5" x="410.0" y="179"></rect><text x="449.75" y="194">-outDir</text></g><path d="M489.5 190h10"></path><path d="M499.5 190h10"></path><g class="terminal">
<path d="M509.5 190h0"></path><path d="M623.0 190h0.0"></path><rect height="22" rx="10" ry="10" width="113.5" x="509.5" y="179"></rect><text x="566.25" y="194">{directory}</text></g></g><path d="M648.5 190a10 10 0 0 0 10 -10v-40"></path><g class="diagram-text">
<title>take all branches, once each, in any order</title><path class="diagram-text" d="M 400.0 120 h -26 a 4 4 0 0 0 -4 4 v 12 a 4 4 0 0 0 4 4 h 26 z"></path><text class="diagram-text" x="385.0" y="134">all</text><path class="diagram-text" d="M 658.5 120 h 16 a 4 4 0 0 1 4 4 v 12 a 4 4 0 0 1 -4 4 h -16 z"></path><text class="diagram-arrow" x="668.5" y="134">↺</text></g></g><path d="M678.5 130h10"></path><g>
<path d="M688.5 130h0"></path><path d="M850.5 130h0.0"></path><path d="M688.5 130a10 10 0 0 0 10 -10v0a10 10 0 0 1 10 -10"></path><g>
<path d="M708.5 110h122.0"></path></g><path d="M830.5 110a10 10 0 0 1 10 10v0a10 10 0 0 0 10 10"></path><path d="M688.5 130h20"></path><g class="non-terminal">
<path d="M708.5 130h0"></path><path d="M830.5 130h0.0"></path><rect height="22" width="122.0" x="708.5" y="119"></rect><text x="769.5" y="134">-filePattern</text></g><path d="M830.5 130h20"></path></g></g><path d="M850.5 130a10 10 0 0 0 10 -10v-19a10 10 0 0 1 10 -10"></path></g></g><path d="M870.5 91a10 10 0 0 0 10 -10v-10a10 10 0 0 1 10 -10"></path></g></g><path d="M890.5 61a10 10 0 0 0 10 -10v-10a10 10 0 0 1 10 -10"></path></g><path d="M 910.5 31 h 20 m -10 -10 v 20 m 10 -20 v 20"></path></g></svg>