<svg class="railroad-diagram" height="251" viewBox="0 0 1281.0 251" width="1281.0" xmlns="http://www.w3.org/2000/svg" xmlns:xlink="http://www.w3.org/1999/xlink">
<g>
<style>/* <![CDATA[ */
	svg.railroad-diagram {
		background-color: white;
	}
	svg.railroad-diagram path {
		stroke-width:2;
		stroke:black;
		fill: rgba(255, 255, 255, 1.0);
	}
	svg.railroad-diagram text {
		font:bold 14px monospace;
		text-anchor:middle;
	}
	svg.railroad-diagram text.arrow {
		font:bold 24px monospace;
		text-anchor:middle;
	}
	svg.railroad-diagram text.label{
		text-anchor:start;
	}
	svg.railroad-diagram text.comment{
		font:italic 12px monospace;
	}
	svg.railroad-diagram rect{
		stroke-width:2;
		stroke:black;
		fill:white;
	}

/* ]]> */
</style><g>
<path d="M20 21v20m10 -20v20m-10 -10h20"></path></g><path d="M40 31h10"></path><g class="non-terminal">
<path d="M50 31h0"></path><path d="M138.0 31h0.0"></path><rect height="22" width="88.0" x="50" y="20"></rect><text x="94.0" y="35">mettleci</text></g><path d="M138.0 31h10"></path><g>
<path d="M148.0 31h0"></path><path d="M1241.0 31h0.0"></path><path d="M148.0 31h20"></path><g class="terminal">
<path d="M168.0 31h0"></path><path d="M222.0 31h999.0"></path><rect height="22" rx="10" ry="10" width="54.0" x="168.0" y="20"></rect><text x="195.0" y="35">help</text></g><path d="M1221.0 31h20"></path><path d="M148.0 31a10 10 0 0 1 10 10v10a10 10 0 0 0 10 10"></path><g>
<path d="M168.0 61h0"></path><path d="M1221.0 61h0.0"></path><g class="non-terminal">
<path d="M168.0 61h0"></path><path d="M239.0 61h0.0"></path><rect height="22" width="71.0" x="168.0" y="50"></rect><text x="203.5" y="65">remote</text></g><path d="M239.0 61h10"></path><g>
<path d="M249.0 61h0"></path><path d="M1221.0 61h0.0"></path><path d="M249.0 61h20"></path><g class="terminal">
<path d="M269.0 61h0"></path><path d="M323.0 61h878.0"></path><rect height="22" rx="10" ry="10" width="54.0" x="269.0" y="50"></rect><text x="296.0" y="65">help</text></g><path d="M1201.0 61h20"></path><path d="M249.0 61a10 10 0 0 1 10 10v10a10 10 0 0 0 10 10"></path><g>
<path d="M269.0 91h0"></path><path d="M1201.0 91h0.0"></path><g class="non-terminal">
<path d="M269.0 91h0"></path><path d="M348.5 91h0.0"></path><rect height="22" width="79.5" x="269.0" y="80"></rect><text x="308.75" y="95">execute</text></g><path d="M348.5 91h10"></path><g>
<path d="M358.5 91h0"></path><path d="M1201.0 91h0.0"></path><path d="M358.5 91h20"></path><g class="terminal">
<path d="M378.5 91h0"></path><path d="M432.5 91h748.5"></path><rect height="22" rx="10" ry="10" width="54.0" x="378.5" y="80"></rect><text x="405.5" y="95">help</text></g><path d="M1181.0 91h20"></path><path d="M358.5 91a10 10 0 0 1 10 10v19a10 10 0 0 0 10 10"></path><g>
<path d="M378.5 130h0"></path><path d="M1181.0 130h0.0"></path><g>
<path d="M378.5 130h0"></path><path d="M805.5 130h0.0"></path><path d="M408.5 130h10"></path><g>
<path d="M418.5 130h0"></path><path d="M775.5 130h0.0"></path><g class="non-terminal">
<path d="M418.5 130h0"></path><path d="M481.0 130h0.0"></path><rect height="22" width="62.5" x="418.5" y="119"></rect><text x="449.75" y="134">-host</text></g><path d="M481.0 130h10"></path><path d="M491.0 130h10"></path><g class="terminal">
<path d="M501.0 130h0"></path><path d="M572.0 130h0.0"></path><rect height="22" rx="10" ry="10" width="71.0" x="501.0" y="119"></rect><text x="536.5" y="134">{host}</text></g><path d="M572.0 130h10"></path><g>
<path d="M582.0 130h0"></path><path d="M775.5 130h0.0"></path><path d="M582.0 130a10 10 0 0 0 10 -10v0a10 10 0 0 1 10 -10"></path><g>
<path d="M602.0 110h153.5"></path></g><path d="M755.5 110a10 10 0 0 1 10 10v0a10 10 0 0 0 10 10"></path><path d="M582.0 130h20"></path><g>
<path d="M602.0 130h0"></path><path d="M755.5 130h0.0"></path><g class="non-terminal">
<path d="M602.0 130h0"></path><path d="M664.5 130h0.0"></path><rect height="22" width="62.5" x="602.0" y="119"></rect><text x="633.25" y="134">-port</text></g><path d="M664.5 130h10"></path><path d="M674.5 130h10"></path><g class="terminal">
<path d="M684.5 130h0"></path><path d="M755.5 130h0.0"></path><rect height="22" rx="10" ry="10" width="71.0" x="684.5" y="119"></rect><text x="720.0" y="134">{port}</text></g></g><path d="M755.5 130h20"></path></g></g><path d="M775.5 130h10"></path><path d="M408.5 130v20a10 10 0 0 0 10 10"></path><g>
<path d="M418.5 160h0"></path><path d="M606.0 160h169.5"></path><g class="non-terminal">
<path d="M418.5 160h0"></path><path d="M515.0 160h0.0"></path><rect height="22" width="96.5" x="418.5" y="149"></rect><text x="466.75" y="164">-username</text></g><path d="M515.0 160h10"></path><path d="M525.0 160h10"></path><g class="terminal">
<path d="M535.0 160h0"></path><path d="M606.0 160h0.0"></path><rect height="22" rx="10" ry="10" width="71.0" x="535.0" y="149"></rect><text x="570.5" y="164">{user}</text></g></g><path d="M775.5 160a10 10 0 0 0 10 -10v-10"></path><path d="M408.5 130v50a10 10 0 0 0 10 10"></path><g>
<path d="M418.5 190h0"></path><path d="M606.0 190h169.5"></path><g class="non-terminal">
<path d="M418.5 190h0"></path><path d="M498.0 190h0.0"></path><rect height="22" width="79.5" x="418.5" y="179"></rect><text x="458.25" y="194">-script</text></g><path d="M498.0 190h10"></path><path d="M508.0 190h10"></path><g class="terminal">
<path d="M518.0 190h0"></path><path d="M606.0 190h0.0"></path><rect height="22" rx="10" ry="10" width="88.0" x="518.0" y="179"></rect><text x="562.0" y="194">{script}</text></g></g><path d="M775.5 190a10 10 0 0 0 10 -10v-40"></path><path d="M408.5 130v80a10 10 0 0 0 10 10"></path><g>
<path d="M418.5 220h0"></path><path d="M759.0 220h16.5"></path><g class="non-terminal">
<path d="M418.5 220h0"></path><path d="M574.5 220h0.0"></path><rect height="22" width="156.0" x="418.5" y="209"></rect><text x="496.5" y="224">-transferPattern</text></g><path d="M574.5 220h10"></path><path d="M584.5 220h10"></path><g class="terminal">
<path d="M594.5 220h0"></path><path d="M759.0 220h0.0"></path><rect height="22" rx="10" ry="10" width="164.5" x="594.5" y="209"></rect><text x="676.75" y="224">{transferPattern}</text></g></g><path d="M775.5 220a10 10 0 0 0 10 -10v-70"></path><g class="diagram-text">
<title>take all branches, once each, in any order</title><path class="diagram-text" d="M 408.5 120 h -26 a 4 4 0 0 0 -4 4 v 12 a 4 4 0 0 0 4 4 h 26 z"></path><text class="diagram-text" x="393.5" y="134">all</text><path class="diagram-text" d="M 785.5 120 h 16 a 4 4 0 0 1 4 4 v 12 a 4 4 0 0 1 -4 4 h -16 z"></path><text class="diagram-arrow" x="795.5" y="134">↺</text></g></g><path d="M805.5 130h10"></path><g>
<path d="M815.5 130h0"></path><path d="M1181.0 130h0.0"></path><path d="M815.5 130h20"></path><g>
<path d="M835.5 130h0"></path><path d="M1057.0 130h104.0"></path><g class="non-terminal">
<path d="M835.5 130h0"></path><path d="M932.0 130h0.0"></path><rect height="22" width="96.5" x="835.5" y="119"></rect><text x="883.75" y="134">-password</text></g><path d="M932.0 130h10"></path><path d="M942.0 130h10"></path><g class="terminal">
<path d="M952.0 130h0"></path><path d="M1057.0 130h0.0"></path><rect height="22" rx="10" ry="10" width="105.0" x="952.0" y="119"></rect><text x="1004.5" y="134">{password}</text></g></g><path d="M1161.0 130h20"></path><path d="M815.5 130a10 10 0 0 1 10 10v10a10 10 0 0 0 10 10"></path><g>
<path d="M835.5 160h0"></path><path d="M1161.0 160h0.0"></path><path d="M865.5 160h10"></path><g>
<path d="M875.5 160h0"></path><path d="M1071.5 160h59.5"></path><g class="non-terminal">
<path d="M875.5 160h0"></path><path d="M989.0 160h0.0"></path><rect height="22" width="113.5" x="875.5" y="149"></rect><text x="932.25" y="164">-privateKey</text></g><path d="M989.0 160h10"></path><path d="M999.0 160h10"></path><g class="terminal">
<path d="M1009.0 160h0"></path><path d="M1071.5 160h0.0"></path><rect height="22" rx="10" ry="10" width="62.5" x="1009.0" y="149"></rect><text x="1040.25" y="164">{key}</text></g></g><path d="M1131.0 160h10"></path><path d="M865.5 160v20a10 10 0 0 0 10 10"></path><g>
<path d="M875.5 190h0"></path><path d="M1131.0 190h0.0"></path><g class="non-terminal">
<path d="M875.5 190h0"></path><path d="M989.0 190h0.0"></path><rect height="22" width="113.5" x="875.5" y="179"></rect><text x="932.25" y="194">-passphrase</text></g><path d="M989.0 190h10"></path><path d="M999.0 190h10"></path><g class="terminal">
<path d="M1009.0 190h0"></path><path d="M1131.0 190h0.0"></path><rect height="22" rx="10" ry="10" width="122.0" x="1009.0" y="179"></rect><text x="1070.0" y="194">{passphrase}</text></g></g><path d="M1131.0 190a10 10 0 0 0 10 -10v-10"></path><g class="diagram-text">
<title>take all branches, once each, in any order</title><path class="diagram-text" d="M 865.5 150 h -26 a 4 4 0 0 0 -4 4 v 12 a 4 4 0 0 0 4 4 h 26 z"></path><text class="diagram-text" x="850.5" y="164">all</text><path class="diagram-text" d="M 1141.0 150 h 16 a 4 4 0 0 1 4 4 v 12 a 4 4 0 0 1 -4 4 h -16 z"></path><text class="diagram-arrow" x="1151.0" y="164">↺</text></g></g><path d="M1161.0 160a10 10 0 0 0 10 -10v-10a10 10 0 0 1 10 -10"></path></g></g><path d="M1181.0 130a10 10 0 0 0 10 -10v-19a10 10 0 0 1 10 -10"></path></g></g><path d="M1201.0 91a10 10 0 0 0 10 -10v-10a10 10 0 0 1 10 -10"></path></g></g><path d="M1221.0 61a10 10 0 0 0 10 -10v-10a10 10 0 0 1 10 -10"></path></g><path d="M 1241.0 31 h 20 m -10 -10 v 20 m 10 -20 v 20"></path></g></svg>