<svg class="railroad-diagram" height="202" viewBox="0 0 1033.0 202" width="1033.0" xmlns="http://www.w3.org/2000/svg" xmlns:xlink="http://www.w3.org/1999/xlink">
<g>
<style>/* <![CDATA[ */
	svg.railroad-diagram {
		background-color: white;
	}
	svg.railroad-diagram path {
		stroke-width:2;
		stroke:black;
		fill: rgba(255, 255, 255, 1.0);
	}
	svg.railroad-diagram text {
		font:bold 14px monospace;
		text-anchor:middle;
	}
	svg.railroad-diagram text.arrow {
		font:bold 24px monospace;
		text-anchor:middle;
	}
	svg.railroad-diagram text.label{
		text-anchor:start;
	}
	svg.railroad-diagram text.comment{
		font:italic 12px monospace;
	}
	svg.railroad-diagram rect{
		stroke-width:2;
		stroke:black;
		fill:white;
	}

/* ]]> */
</style><g>
<path d="M20 21v20m10 -20v20m-10 -10h20"></path></g><path d="M40 31h10"></path><g class="non-terminal">
<path d="M50 31h0"></path><path d="M138.0 31h0.0"></path><rect height="22" width="88.0" x="50" y="20"></rect><text x="94.0" y="35">mettleci</text></g><path d="M138.0 31h10"></path><g>
<path d="M148.0 31h0"></path><path d="M993.0 31h0.0"></path><path d="M148.0 31h20"></path><g class="terminal">
<path d="M168.0 31h0"></path><path d="M222.0 31h751.0"></path><rect height="22" rx="10" ry="10" width="54.0" x="168.0" y="20"></rect><text x="195.0" y="35">help</text></g><path d="M973.0 31h20"></path><path d="M148.0 31a10 10 0 0 1 10 10v10a10 10 0 0 0 10 10"></path><g>
<path d="M168.0 61h0"></path><path d="M973.0 61h0.0"></path><g class="non-terminal">
<path d="M168.0 61h0"></path><path d="M256.0 61h0.0"></path><rect height="22" width="88.0" x="168.0" y="50"></rect><text x="212.0" y="65">unittest</text></g><path d="M256.0 61h10"></path><g>
<path d="M266.0 61h0"></path><path d="M973.0 61h0.0"></path><path d="M266.0 61h20"></path><g class="terminal">
<path d="M286.0 61h0"></path><path d="M340.0 61h613.0"></path><rect height="22" rx="10" ry="10" width="54.0" x="286.0" y="50"></rect><text x="313.0" y="65">help</text></g><path d="M953.0 61h20"></path><path d="M266.0 61a10 10 0 0 1 10 10v10a10 10 0 0 0 10 10"></path><g>
<path d="M286.0 91h0"></path><path d="M953.0 91h0.0"></path><g class="non-terminal">
<path d="M286.0 91h0"></path><path d="M374.0 91h0.0"></path><rect height="22" width="88.0" x="286.0" y="80"></rect><text x="330.0" y="95">generate</text></g><path d="M374.0 91h10"></path><g>
<path d="M384.0 91h0"></path><path d="M953.0 91h0.0"></path><path d="M384.0 91h20"></path><g class="terminal">
<path d="M404.0 91h0"></path><path d="M458.0 91h475.0"></path><rect height="22" rx="10" ry="10" width="54.0" x="404.0" y="80"></rect><text x="431.0" y="95">help</text></g><path d="M933.0 91h20"></path><path d="M384.0 91a10 10 0 0 1 10 10v10a10 10 0 0 0 10 10"></path><g>
<path d="M404.0 121h0"></path><path d="M933.0 121h0.0"></path><g>
<path d="M404.0 121h0"></path><path d="M644.5 121h0.0"></path><path d="M434.0 121h10"></path><g>
<path d="M444.0 121h0"></path><path d="M606.0 121h8.5"></path><g class="non-terminal">
<path d="M444.0 121h0"></path><path d="M515.0 121h0.0"></path><rect height="22" width="71.0" x="444.0" y="110"></rect><text x="479.5" y="125">-specs</text></g><path d="M515.0 121h10"></path><path d="M525.0 121h10"></path><g class="terminal">
<path d="M535.0 121h0"></path><path d="M606.0 121h0.0"></path><rect height="22" rx="10" ry="10" width="71.0" x="535.0" y="110"></rect><text x="570.5" y="125">{path}</text></g></g><path d="M614.5 121h10"></path><path d="M434.0 121v20a10 10 0 0 0 10 10"></path><g>
<path d="M444.0 151h0"></path><path d="M614.5 151h0.0"></path><g class="non-terminal">
<path d="M444.0 151h0"></path><path d="M523.5 151h0.0"></path><rect height="22" width="79.5" x="444.0" y="140"></rect><text x="483.75" y="155">-assets</text></g><path d="M523.5 151h10"></path><path d="M533.5 151h10"></path><g class="terminal">
<path d="M543.5 151h0"></path><path d="M614.5 151h0.0"></path><rect height="22" rx="10" ry="10" width="71.0" x="543.5" y="140"></rect><text x="579.0" y="155">{path}</text></g></g><path d="M614.5 151a10 10 0 0 0 10 -10v-10"></path><g class="diagram-text">
<title>take all branches, once each, in any order</title><path class="diagram-text" d="M 434.0 111 h -26 a 4 4 0 0 0 -4 4 v 12 a 4 4 0 0 0 4 4 h 26 z"></path><text class="diagram-text" x="419.0" y="125">all</text><path class="diagram-text" d="M 624.5 111 h 16 a 4 4 0 0 1 4 4 v 12 a 4 4 0 0 1 -4 4 h -16 z"></path><text class="diagram-arrow" x="634.5" y="125">↺</text></g></g><path d="M644.5 121h10"></path><path d="M654.5 121h10"></path><g>
<path d="M664.5 121h0"></path><path d="M933.0 121h0.0"></path><path d="M694.5 121h10"></path><g>
<path d="M704.5 121h0"></path><path d="M704.5 121h198.5"></path><g>
<path d="M704.5 121h0"></path></g></g><path d="M903.0 121h10"></path><path d="M694.5 121v10a10 10 0 0 0 10 10"></path><g>
<path d="M704.5 141h0"></path><path d="M883.5 141h19.5"></path><g class="non-terminal">
<path d="M704.5 141h0"></path><path d="M792.5 141h0.0"></path><rect height="22" width="88.0" x="704.5" y="130"></rect><text x="748.5" y="145">-joblist</text></g><path d="M792.5 141h10"></path><path d="M802.5 141h10"></path><g class="terminal">
<path d="M812.5 141h0"></path><path d="M883.5 141h0.0"></path><rect height="22" rx="10" ry="10" width="71.0" x="812.5" y="130"></rect><text x="848.0" y="145">{path}</text></g></g><path d="M903.0 141a10 10 0 0 0 10 -10v0"></path><path d="M694.5 121v40a10 10 0 0 0 10 10"></path><g class="non-terminal">
<path d="M704.5 171h0"></path><path d="M903.0 171h0.0"></path><rect height="22" width="198.5" x="704.5" y="160"></rect><text x="803.75" y="175">-check-row-count-only</text></g><path d="M903.0 171a10 10 0 0 0 10 -10v-30"></path><g class="diagram-text">
<title>take one or more branches, once each, in any order</title><path class="diagram-text" d="M 694.5 111 h -26 a 4 4 0 0 0 -4 4 v 12 a 4 4 0 0 0 4 4 h 26 z"></path><text class="diagram-text" x="679.5" y="125">1+</text><path class="diagram-text" d="M 913.0 111 h 16 a 4 4 0 0 1 4 4 v 12 a 4 4 0 0 1 -4 4 h -16 z"></path><text class="diagram-arrow" x="923.0" y="125">↺</text></g></g></g><path d="M933.0 121a10 10 0 0 0 10 -10v-10a10 10 0 0 1 10 -10"></path></g></g><path d="M953.0 91a10 10 0 0 0 10 -10v-10a10 10 0 0 1 10 -10"></path></g></g><path d="M973.0 61a10 10 0 0 0 10 -10v-10a10 10 0 0 1 10 -10"></path></g><path d="M 993.0 31 h 20 m -10 -10 v 20 m 10 -20 v 20"></path></g></svg>