<svg class="railroad-diagram" height="272" viewBox="0 0 1166.5 272" width="1166.5" xmlns="http://www.w3.org/2000/svg" xmlns:xlink="http://www.w3.org/1999/xlink">
<g>
<style>/* <![CDATA[ */
	svg.railroad-diagram {
		background-color: white;
	}
	svg.railroad-diagram path {
		stroke-width:2;
		stroke:black;
		fill: rgba(255, 255, 255, 1.0);
	}
	svg.railroad-diagram text {
		font:bold 14px monospace;
		text-anchor:middle;
	}
	svg.railroad-diagram text.arrow {
		font:bold 24px monospace;
		text-anchor:middle;
	}
	svg.railroad-diagram text.label{
		text-anchor:start;
	}
	svg.railroad-diagram text.comment{
		font:italic 12px monospace;
	}
	svg.railroad-diagram rect{
		stroke-width:2;
		stroke:black;
		fill:white;
	}

/* ]]> */
</style><g>
<path d="M20 21v20m10 -20v20m-10 -10h20"></path></g><path d="M40 31h10"></path><g class="non-terminal">
<path d="M50 31h0"></path><path d="M138.0 31h0.0"></path><rect height="22" width="88.0" x="50" y="20"></rect><text x="94.0" y="35">mettleci</text></g><path d="M138.0 31h10"></path><g>
<path d="M148.0 31h0"></path><path d="M1126.5 31h0.0"></path><path d="M148.0 31h20"></path><g class="terminal">
<path d="M168.0 31h0"></path><path d="M222.0 31h884.5"></path><rect height="22" rx="10" ry="10" width="54.0" x="168.0" y="20"></rect><text x="195.0" y="35">help</text></g><path d="M1106.5 31h20"></path><path d="M148.0 31a10 10 0 0 1 10 10v10a10 10 0 0 0 10 10"></path><g>
<path d="M168.0 61h0"></path><path d="M1106.5 61h0.0"></path><g class="non-terminal">
<path d="M168.0 61h0"></path><path d="M256.0 61h0.0"></path><rect height="22" width="88.0" x="168.0" y="50"></rect><text x="212.0" y="65">unittest</text></g><path d="M256.0 61h10"></path><g>
<path d="M266.0 61h0"></path><path d="M1106.5 61h0.0"></path><path d="M266.0 61h20"></path><g class="terminal">
<path d="M286.0 61h0"></path><path d="M340.0 61h746.5"></path><rect height="22" rx="10" ry="10" width="54.0" x="286.0" y="50"></rect><text x="313.0" y="65">help</text></g><path d="M1086.5 61h20"></path><path d="M266.0 61a10 10 0 0 1 10 10v10a10 10 0 0 0 10 10"></path><g>
<path d="M286.0 91h0"></path><path d="M1086.5 91h0.0"></path><g class="non-terminal">
<path d="M286.0 91h0"></path><path d="M365.5 91h0.0"></path><rect height="22" width="79.5" x="286.0" y="80"></rect><text x="325.75" y="95">migrate</text></g><path d="M365.5 91h10"></path><g>
<path d="M375.5 91h0"></path><path d="M1086.5 91h0.0"></path><path d="M375.5 91h20"></path><g class="terminal">
<path d="M395.5 91h0"></path><path d="M449.5 91h617.0"></path><rect height="22" rx="10" ry="10" width="54.0" x="395.5" y="80"></rect><text x="422.5" y="95">help</text></g><path d="M1066.5 91h20"></path><path d="M375.5 91a10 10 0 0 1 10 10v10a10 10 0 0 0 10 10"></path><g>
<path d="M395.5 121h0"></path><path d="M1066.5 121h0.0"></path><g>
<path d="M395.5 121h0"></path><path d="M729.5 121h0.0"></path><path d="M425.5 121h10"></path><g>
<path d="M435.5 121h0"></path><path d="M572.0 121h127.5"></path><g class="non-terminal">
<path d="M435.5 121h0"></path><path d="M489.5 121h0.0"></path><rect height="22" width="54.0" x="435.5" y="110"></rect><text x="462.5" y="125">-url</text></g><path d="M489.5 121h10"></path><path d="M499.5 121h10"></path><g class="terminal">
<path d="M509.5 121h0"></path><path d="M572.0 121h0.0"></path><rect height="22" rx="10" ry="10" width="62.5" x="509.5" y="110"></rect><text x="540.75" y="125">{url}</text></g></g><path d="M699.5 121h10"></path><path d="M425.5 121v20a10 10 0 0 0 10 10"></path><g>
<path d="M435.5 151h0"></path><path d="M623.0 151h76.5"></path><g class="non-terminal">
<path d="M435.5 151h0"></path><path d="M498.0 151h0.0"></path><rect height="22" width="62.5" x="435.5" y="140"></rect><text x="466.75" y="155">-user</text></g><path d="M498.0 151h10"></path><path d="M508.0 151h10"></path><g class="terminal">
<path d="M518.0 151h0"></path><path d="M623.0 151h0.0"></path><rect height="22" rx="10" ry="10" width="105.0" x="518.0" y="140"></rect><text x="570.5" y="155">{username}</text></g></g><path d="M699.5 151a10 10 0 0 0 10 -10v-10"></path><path d="M425.5 121v50a10 10 0 0 0 10 10"></path><g>
<path d="M435.5 181h0"></path><path d="M631.5 181h68.0"></path><g class="non-terminal">
<path d="M435.5 181h0"></path><path d="M523.5 181h0.0"></path><rect height="22" width="88.0" x="435.5" y="170"></rect><text x="479.5" y="185">-api-key</text></g><path d="M523.5 181h10"></path><path d="M533.5 181h10"></path><g class="terminal">
<path d="M543.5 181h0"></path><path d="M631.5 181h0.0"></path><rect height="22" rx="10" ry="10" width="88.0" x="543.5" y="170"></rect><text x="587.5" y="185">{apikey}</text></g></g><path d="M699.5 181a10 10 0 0 0 10 -10v-40"></path><path d="M425.5 121v80a10 10 0 0 0 10 10"></path><g>
<path d="M435.5 211h0"></path><path d="M597.5 211h102.0"></path><g class="non-terminal">
<path d="M435.5 211h0"></path><path d="M506.5 211h0.0"></path><rect height="22" width="71.0" x="435.5" y="200"></rect><text x="471.0" y="215">-specs</text></g><path d="M506.5 211h10"></path><path d="M516.5 211h10"></path><g class="terminal">
<path d="M526.5 211h0"></path><path d="M597.5 211h0.0"></path><rect height="22" rx="10" ry="10" width="71.0" x="526.5" y="200"></rect><text x="562.0" y="215">{path}</text></g></g><path d="M699.5 211a10 10 0 0 0 10 -10v-70"></path><path d="M425.5 121v110a10 10 0 0 0 10 10"></path><g>
<path d="M435.5 241h0"></path><path d="M699.5 241h0.0"></path><g class="non-terminal">
<path d="M435.5 241h0"></path><path d="M608.5 241h0.0"></path><rect height="22" width="173.0" x="435.5" y="230"></rect><text x="522.0" y="245">-test-data-archive</text></g><path d="M608.5 241h10"></path><path d="M618.5 241h10"></path><g class="terminal">
<path d="M628.5 241h0"></path><path d="M699.5 241h0.0"></path><rect height="22" rx="10" ry="10" width="71.0" x="628.5" y="230"></rect><text x="664.0" y="245">{path}</text></g></g><path d="M699.5 241a10 10 0 0 0 10 -10v-100"></path><g class="diagram-text">
<title>take all branches, once each, in any order</title><path class="diagram-text" d="M 425.5 111 h -26 a 4 4 0 0 0 -4 4 v 12 a 4 4 0 0 0 4 4 h 26 z"></path><text class="diagram-text" x="410.5" y="125">all</text><path class="diagram-text" d="M 709.5 111 h 16 a 4 4 0 0 1 4 4 v 12 a 4 4 0 0 1 -4 4 h -16 z"></path><text class="diagram-arrow" x="719.5" y="125">↺</text></g></g><path d="M729.5 121h10"></path><path d="M739.5 121h10"></path><g>
<path d="M749.5 121h0"></path><path d="M1066.5 121h0.0"></path><path d="M779.5 121h10"></path><g>
<path d="M789.5 121h0"></path><path d="M789.5 121h247.0"></path><g>
<path d="M789.5 121h0"></path></g></g><path d="M1036.5 121h10"></path><path d="M779.5 121v10a10 10 0 0 0 10 10"></path><g>
<path d="M789.5 141h0"></path><path d="M1036.5 141h0.0"></path><g class="non-terminal">
<path d="M789.5 141h0"></path><path d="M903.0 141h0.0"></path><rect height="22" width="113.5" x="789.5" y="130"></rect><text x="846.25" y="145">-project-id</text></g><path d="M903.0 141h10"></path><path d="M913.0 141h10"></path><g class="terminal">
<path d="M923.0 141h0"></path><path d="M1036.5 141h0.0"></path><rect height="22" rx="10" ry="10" width="113.5" x="923.0" y="130"></rect><text x="979.75" y="145">{projectid}</text></g></g><path d="M1036.5 141a10 10 0 0 0 10 -10v0"></path><path d="M779.5 121v40a10 10 0 0 0 10 10"></path><g>
<path d="M789.5 171h0"></path><path d="M1028.0 171h8.5"></path><g class="non-terminal">
<path d="M789.5 171h0"></path><path d="M877.5 171h0.0"></path><rect height="22" width="88.0" x="789.5" y="160"></rect><text x="833.5" y="175">-project</text></g><path d="M877.5 171h10"></path><path d="M887.5 171h10"></path><g class="terminal">
<path d="M897.5 171h0"></path><path d="M1028.0 171h0.0"></path><rect height="22" rx="10" ry="10" width="130.5" x="897.5" y="160"></rect><text x="962.75" y="175">{projectname}</text></g></g><path d="M1036.5 171a10 10 0 0 0 10 -10v-30"></path><g class="diagram-text">
<title>take one or more branches, once each, in any order</title><path class="diagram-text" d="M 779.5 111 h -26 a 4 4 0 0 0 -4 4 v 12 a 4 4 0 0 0 4 4 h 26 z"></path><text class="diagram-text" x="764.5" y="125">1+</text><path class="diagram-text" d="M 1046.5 111 h 16 a 4 4 0 0 1 4 4 v 12 a 4 4 0 0 1 -4 4 h -16 z"></path><text class="diagram-arrow" x="1056.5" y="125">↺</text></g></g></g><path d="M1066.5 121a10 10 0 0 0 10 -10v-10a10 10 0 0 1 10 -10"></path></g></g><path d="M1086.5 91a10 10 0 0 0 10 -10v-10a10 10 0 0 1 10 -10"></path></g></g><path d="M1106.5 61a10 10 0 0 0 10 -10v-10a10 10 0 0 1 10 -10"></path></g><path d="M 1126.5 31 h 20 m -10 -10 v 20 m 10 -20 v 20"></path></g></svg>